{
.appVersion = "1330";
DisplayStrings = (
HB,
"OCHMeatfNPR\012eWsvwyn/jdotless jgGyes\012pnhleaSnHsHnure\012\012/W.001 BAVWXYZHnuHpC",
"/a.ss02 abcdefngh/dotaccentcomb j/idotless ixklmnopqrstuvwxyz\012VARIOUSBC\012fung/dotaccentcomb ible\012Hfgi/horncomb o/ohorn/_part.bowl blo\012vysSuhmnutr/a.ss02 az\012Metun/a.ss02 iallica\012MetamorphoSsis\012klmno5qf/f.ss01 FEDHPB\012HtHtHtt\012HeHeHe",
"XYZ\012JKYDTIHACGcH\012CHCnl/idotless inl",
"/_part.bowl-reverse.ss01/a.ss01 H/d.ss01/a.ss02 ag/g.ss01/q.ss01 n/a.ss01/b.ss01/d.ss01/g.ss01/i.ss01/l.ss01/o.ss01/p.ss01 o/_part.bowl.ss01/_part.bowl-reverse.ss01/q.ss01/_part.bowl.ss01/b.ss01/p.ss01/_part.bowl.ss01/thorn.ss01/_part.bowl-reverse.ss01/p.ss01/q.ss01/t.ss01/u.ss01/h.ss01/m.ss01/n.ss01/f.ss01 XYZ\012n/idotless/dotaccentcomb iodine/space RolandpSwS",
"UOQUOQOU\012n/a.ss02 aduino"
);
classes = (
{
automatic = 1;

glyphs = (
{
glyphname = A;
lastChange = "2020-06-16 08:56:22 +0000";
layers = (
{
anchors = (
{
name = bottom;
position = "{281, 0}";
},
{
name = ogonek;
position = "{510, 0}";
},
{
name = top;
position = "{426, 720}";
}
);
guideLines = (
{
angle = 67.5;
position = "{-280, -200}";
}
);
layerId = "AB099EFE-E788-4EFC-8633-CF147CB782A6";
paths = (
{
closed = 1;
nodes = (
"17 0 LINE",
"157 238 LINE",
"167 255 LINE",
"413 673 LINE",
"417 673 LINE",
"497 252 LINE",
"499 242 LINE",
"545 0 LINE",
"577 0 LINE",
"436 720 LINE",
"408 720 LINE",
"-19 0 LINE"
);
},
{
closed = 1;
nodes = (
"512 232 LINE",
"519 262 LINE",
"147 262 LINE",
"140 232 LINE"
);
}
);
width = 660;
},
{
anchors = (
{
name = bottom;
position = "{319, 0}";
},
{
name = ogonek;
position = "{612, 0}";
},
{
name = top;
position = "{464, 720}";
}
);
guideLines = (
{
angle = 67.5;
position = "{-302, -200}";
}
);
layerId = "2D8F7115-C311-411E-929D-56333CF7FFB2";
paths = (
{
closed = 1;
nodes = (
"161 0 LINE",
"258 176 LINE",
"286 246 LINE",
"426 514 LINE",
"430 514 LINE",
"472 246 LINE",
"473 176 LINE",
"501 0 LINE",
"683 0 LINE",
"540 720 LINE",
"384 720 LINE",
"-49 0 LINE"
);
},
{
closed = 1;
nodes = (
"538 132 LINE",
"568 278 LINE",
"182 278 LINE",
"151 132 LINE"
);
}
);
width = 740;
},
{
anchors = (
{
name = bottom;
position = "{298, 0}";
},
{
name = ogonek;
position = "{559, 0}";
},
{
name = top;
position = "{443, 720}";
}
);
associatedMasterId = "AB099EFE-E788-4EFC-8633-CF147CB782A6";
guideLines = (
{
angle = 67.5;
position = "{-300, -200}";
}
);
layerId = "118C2287-473A-4C1A-8D33-C3B93A8616D0";
name = "Half {450}";
paths = (
{
closed = 1;
nodes = (
"73 0 LINE",
"196 206 LINE",
"219 244 LINE",
"415 573 LINE",
"419 573 LINE",
"482 244 LINE",
"488 208 LINE",
"531 0 LINE",
"632 0 LINE",
"482 720 LINE",
"399 720 LINE",
"-40 0 LINE"
);
},
{
closed = 1;
nodes = (
"527 180 LINE",
"545 272 LINE",
"155 272 LINE",
"137 180 LINE"
);
}
);
width = 696;
}
);
leftKerningGroup = LAT_A_UC;
rightKerningGroup = LAT_A_UC;
unicode = 0041;
},
{
glyphname = AE;
lastChange = "2020-06-14 07:13:58 +0000";
layers = (
{
anchors = (
{
name = bottom;
position = "{479, 0}";
},
{
name = top;
position = "{641, 720}";
}
);
background = {
components = (
{
name = E;
transform = "{1, 0, 0, 1, 369, 0}";
}
);
};
layerId = "AB099EFE-E788-4EFC-8633-CF147CB782A6";
paths = (
{
closed = 1;
nodes = (
"-5 0 LINE",
"317 428 LINE",
"498 666 LINE",
"519 666 LINE",
"526 720 LINE",
"501 720 LINE",
"-43 0 LINE"
);
},
{
closed = 1;
nodes = (
"461 232 LINE",
"464 262 LINE",
"165 262 LINE",
"158 232 LINE"
);
},
{
closed = 1;
nodes = (
"766 0 LINE",
"771 30 LINE",
"456 30 LINE",
"528 690 LINE",
"903 690 LINE",
"911 720 LINE",
"507 720 LINE",
"487 582 LINE",
"423 0 LINE"
);
},
{
closed = 1;
nodes = (
"789 354 LINE",
"797 384 LINE",
"489 384 LINE",
"485 354 LINE"
);
}
);
width = 887;
},
{
anchors = (
{
name = bottom;
position = "{505, 0}";
},
{
name = top;
position = "{649, 720}";
}
);
background = {
components = (
{
name = E;
transform = "{1, 0, 0, 1, 379, 0}";
}
);
};
layerId = "2D8F7115-C311-411E-929D-56333CF7FFB2";
paths = (
{
closed = 1;
nodes = (
"149 0 LINE",
"347 314 LINE",
"492 564 LINE",
"502 564 LINE",
"526 720 LINE",
"403 720 LINE",
"-51 0 LINE"
);
},
{
closed = 1;
nodes = (
"569 138 LINE",
"586 274 LINE",
"211 274 LINE",
"184 138 LINE"
);
},
{
closed = 1;
nodes = (
"802 0 LINE",
"834 160 LINE",
"609 160 LINE",
"652 560 LINE",
"915 560 LINE",
"947 720 LINE",
"519 720 LINE",
"472 466 LINE",
"417 0 LINE"
);
},
{
closed = 1;
nodes = (
"816 286 LINE",
"849 438 LINE",
"623 438 LINE",
"603 286 LINE"
);
}
);
width = 906;
}
);
leftKerningGroup = LAT_AE_UC;
rightKerningGroup = LAT_E_UC;
rightMetricsKey = E;
unicode = 00C6;
},
{
glyphname = B;
lastChange = "2020-06-14 07:32:54 +0000";
layers = (
{
anchors = (
{
name = bottom;
position = "{233, 0}";
},
{
name = center;
position = "{109, 206}";
},
{
name = top;
position = "{374, 720}";
}
);
background = {
paths = (
{
closed = 1;
nodes = (
"135 0 LINE",
"135 720 LINE",
"103 720 LINE",
"103 0 LINE"
);
},
{
closed = 1;
nodes = (
"309 0 LINE SMOOTH",
"443 0 OFFCURVE",
"531 70 OFFCURVE",
"531 192 CURVE SMOOTH",
"531 288 OFFCURVE",
"461 362 OFFCURVE",
"361 378 CURVE",
"357 370 LINE",
"420 399 OFFCURVE",
"474 462 OFFCURVE",
"473 546 CURVE SMOOTH",
"474 660 OFFCURVE",
"385 720 OFFCURVE",
"257 720 CURVE SMOOTH",
"113 720 LINE",
"113 690 LINE",
"253 690 LINE SMOOTH",
"367 690 OFFCURVE",
"441 639 OFFCURVE",
"441 546 CURVE SMOOTH",
"441 456 OFFCURVE",
"367 384 OFFCURVE",
"291 384 CURVE SMOOTH",
"113 384 LINE",
"113 356 LINE",
"309 356 LINE SMOOTH",
"428 356 OFFCURVE",
"498 280 OFFCURVE",
"499 190 CURVE SMOOTH",
"498 96 OFFCURVE",
"437 30 OFFCURVE",
"315 30 CURVE SMOOTH",
"131 30 LINE",
"131 0 LINE"
);
}
);
};
layerId = "AB099EFE-E788-4EFC-8633-CF147CB782A6";
paths = (
{
closed = 1;
nodes = (
"281 0 LINE SMOOTH",
"399 0 OFFCURVE",
"488 64 OFFCURVE",
"503 173 CURVE SMOOTH",
"516 268 OFFCURVE",
"459 355 OFFCURVE",
"371 374 CURVE",
"373 367 LINE",
"446 396 OFFCURVE",
"498 451 OFFCURVE",
"512 526 CURVE SMOOTH",
"532 636 OFFCURVE",
"459 720 OFFCURVE",
"348 720 CURVE SMOOTH",
"204 720 LINE",
"196 690 LINE",
"344 690 LINE SMOOTH",
"423 690 OFFCURVE",
"501 634 OFFCURVE",
"480 529 CURVE SMOOTH",
"463 446 OFFCURVE",
"389 386 OFFCURVE",
"311 386 CURVE SMOOTH",
"137 386 LINE",
"129 356 LINE",
"307 356 LINE SMOOTH",
"414 356 OFFCURVE",
"485 273 OFFCURVE",
"472 178 CURVE SMOOTH",
"459 84 OFFCURVE",
"381 30 OFFCURVE",
"280 30 CURVE SMOOTH",
"82 30 LINE",
"77 0 LINE"
);
},
{
closed = 1;
nodes = (
"82 0 LINE",
"227 720 LINE",
"194 720 LINE",
"49 0 LINE"
);
}
);
width = 580;
},
{
anchors = (
{
name = bottom;
position = "{290, 0}";
},
{
name = center;
position = "{157, 226}";
},
{
name = top;
position = "{397, 720}";
}
);
background = {
paths = (
{
closed = 1;
nodes = (
"399 0 LINE SMOOTH",
"541 0 OFFCURVE",
"640 88 OFFCURVE",
"641 212 CURVE SMOOTH",
"640 324 OFFCURVE",
"560 369 OFFCURVE",
"465 394 CURVE",
"465 350 LINE",
"545 382 OFFCURVE",
"613 453 OFFCURVE",
"613 536 CURVE SMOOTH",
"613 647 OFFCURVE",
"511 719 OFFCURVE",
"359 720 CURVE SMOOTH",
"243 720 LINE",
"243 568 LINE",
"349 568 LINE SMOOTH",
"400 567 OFFCURVE",
"435 545 OFFCURVE",
"435 500 CURVE SMOOTH",
"435 454 OFFCURVE",
"402 428 OFFCURVE",
"357 428 CURVE SMOOTH",
"243 428 LINE",
"243 300 LINE",
"373 300 LINE SMOOTH",
"430 300 OFFCURVE",
"463 275 OFFCURVE",
"463 230 CURVE SMOOTH",
"463 183 OFFCURVE",
"426 152 OFFCURVE",
"379 152 CURVE SMOOTH",
"243 152 LINE",
"243 0 LINE"
);
},
{
closed = 1;
nodes = (
"257 0 LINE",
"257 720 LINE",
"81 720 LINE",
"81 0 LINE"
);
}
);
};
layerId = "2D8F7115-C311-411E-929D-56333CF7FFB2";
paths = (
{
closed = 1;
nodes = (
"367 0 LINE SMOOTH",
"504 0 OFFCURVE",
"594 81 OFFCURVE",
"614 194 CURVE SMOOTH",
"637 320 OFFCURVE",
"553 379 OFFCURVE",
"465 392 CURVE",
"461 347 LINE",
"534 372 OFFCURVE",
"604 434 OFFCURVE",
"618 522 CURVE SMOOTH",
"637 642 OFFCURVE",
"534 720 OFFCURVE",
"385 720 CURVE SMOOTH",
"330 720 LINE",
"298 564 LINE",
"369 564 LINE SMOOTH",
"419 564 OFFCURVE",
"445 544 OFFCURVE",
"442 506 CURVE SMOOTH",
"439 469 OFFCURVE",
"409 430 OFFCURVE",
"368 430 CURVE SMOOTH",
"271 430 LINE",
"245 298 LINE",
"377 298 LINE SMOOTH",
"421 298 OFFCURVE",
"443 273 OFFCURVE",
"438 233 CURVE SMOOTH",
"432 189 OFFCURVE",
"402 156 OFFCURVE",
"357 156 CURVE SMOOTH",
"217 156 LINE",
"185 0 LINE"
);
},
{
closed = 1;
nodes = (
"203 0 LINE",
"348 720 LINE",
"164 720 LINE",
"19 0 LINE"
);
}
);
width = 656;
},
{
anchors = (
{
name = bottom;
position = "{258, 0}";
},
{
name = center;
position = "{129, 216}";
},
{
name = top;
position = "{382, 720}";
}
);
associatedMasterId = "AB099EFE-E788-4EFC-8633-CF147CB782A6";
background = {
paths = (
{
closed = 1;
nodes = (
"332 0 LINE SMOOTH",
"462 0 OFFCURVE",
"573 68 OFFCURVE",
"574 210 CURVE SMOOTH",
"573 303 OFFCURVE",
"504 360 OFFCURVE",
"420 390 CURVE",
"420 364 LINE",
"485 395 OFFCURVE",
"538 453 OFFCURVE",
"538 534 CURVE SMOOTH",
"538 660 OFFCURVE",
"440 719 OFFCURVE",
"296 720 CURVE SMOOTH",
"176 720 LINE",
"176 624 LINE",
"298 624 LINE SMOOTH",
"382 625 OFFCURVE",
"431 590 OFFCURVE",
"432 520 CURVE SMOOTH",
"431 448 OFFCURVE",
"388 415 OFFCURVE",
"306 416 CURVE SMOOTH",
"176 416 LINE",
"176 320 LINE",
"312 320 LINE SMOOTH",
"409 321 OFFCURVE",
"466 284 OFFCURVE",
"466 210 CURVE SMOOTH",
"468 134 OFFCURVE",
"411 95 OFFCURVE",
"326 94 CURVE SMOOTH",
"186 94 LINE",
"186 0 LINE"
);
},
{
closed = 1;
nodes = (
"198 0 LINE",
"198 720 LINE",
"92 720 LINE",
"92 0 LINE"
);
}
);
};
layerId = "5AD6DEE3-C1BF-45C1-B31B-12614FF61D47";
name = "Half {450}";
paths = (
{
closed = 1;
nodes = (
"322 0 LINE SMOOTH",
"443 0 OFFCURVE",
"537 74 OFFCURVE",
"554 191 CURVE SMOOTH",
"570 301 OFFCURVE",
"503 365 OFFCURVE",
"429 381 CURVE",
"429 356 LINE",
"487 383 OFFCURVE",
"545 437 OFFCURVE",
"558 524 CURVE SMOOTH",
"575 638 OFFCURVE",
"482 720 OFFCURVE",
"353 720 CURVE SMOOTH",
"264 720 LINE",
"244 628 LINE",
"339 628 LINE SMOOTH",
"404 628 OFFCURVE",
"467 596 OFFCURVE",
"455 518 CURVE SMOOTH",
"446 462 OFFCURVE",
"398 414 OFFCURVE",
"335 414 CURVE SMOOTH",
"201 414 LINE",
"184 322 LINE",
"338 322 LINE SMOOTH",
"412 322 OFFCURVE",
"461 277 OFFCURVE",
"453 205 CURVE SMOOTH",
"446 141 OFFCURVE",
"393 92 OFFCURVE",
"315 92 CURVE SMOOTH",
"147 92 LINE",
"128 0 LINE"
);
},
{
closed = 1;
nodes = (
"134 0 LINE",
"279 720 LINE",
"177 720 LINE",
"32 0 LINE"
);
}
);
width = 620;
}
);
leftKerningGroup = LAT_H_UC;
leftMetricsKey = H;
rightKerningGroup = LAT_B_UC;
unicode = 0042;
},
{
glyphname = C;
lastChange = "2020-06-16 12:08:52 +0000";
layers = (
{
anchors = (
{
name = base;
position = "{362, 0}";
},
{
name = bottom;
position = "{343, 0}";
},
{
name = cedilla;
position = "{343, 0}";
},
{
name = top;
position = "{487, 720}";
}
);
guideLines = (
{
angle = 67.5;
position = "{553, 360}";
},
{
angle = 112.5;
position = "{557, 360}";
}
);
layerId = "AB099EFE-E788-4EFC-8633-CF147CB782A6";
paths = (
{
closed = 1;
nodes = (
"422 -8 OFFCURVE",
"507 18 OFFCURVE",
"578 76 CURVE",
"569 110 LINE",
"510 54 OFFCURVE",
"430 22 OFFCURVE",
"352 22 CURVE SMOOTH",
"183 22 OFFCURVE",
"76 170 OFFCURVE",
"113 359 CURVE SMOOTH",
"152 556 OFFCURVE",
"320 698 OFFCURVE",
"478 698 CURVE SMOOTH",
"544 698 OFFCURVE",
"625 675 OFFCURVE",
"667 622 CURVE",
"686 652 LINE",
"642 696 OFFCURVE",
"561 728 OFFCURVE",
"479 728 CURVE SMOOTH",
"300 728 OFFCURVE",
"125 576 OFFCURVE",
"83 362 CURVE SMOOTH",
"39 140 OFFCURVE",
"174 -8 OFFCURVE",
"349 -8 CURVE SMOOTH"
);
}
);
width = 658;
},
{
anchors = (
{
name = base;
position = "{354, 0}";
},
{
name = bottom;
position = "{349, 0}";
},
{
name = cedilla;
position = "{361, 0}";
},
{
name = top;
position = "{490, 720}";
}
);
layerId = "2D8F7115-C311-411E-929D-56333CF7FFB2";
paths = (
{
closed = 1;
nodes = (
"465 -8 OFFCURVE",
"533 9 OFFCURVE",
"591 42 CURVE",
"550 215 LINE",
"515 177 OFFCURVE",
"453 156 OFFCURVE",
"399 156 CURVE SMOOTH",
"289 156 OFFCURVE",
"213 243 OFFCURVE",
"231 364 CURVE SMOOTH",
"245 459 OFFCURVE",
"321 564 OFFCURVE",
"448 564 CURVE SMOOTH",
"503 564 OFFCURVE",
"553 545 OFFCURVE",
"587 514 CURVE",
"684 666 LINE",
"617 705 OFFCURVE",
"537 728 OFFCURVE",
"455 728 CURVE SMOOTH",
"240 728 OFFCURVE",
"86 570 OFFCURVE",
"53 388 CURVE SMOOTH",
"14 174 OFFCURVE",
"156 -8 OFFCURVE",
"393 -8 CURVE SMOOTH"
);
}
);
width = 659;
},
{
anchors = (
{
name = base;
position = "{358, 0}";
},
{
name = bottom;
position = "{344, 0}";
},
{
name = cedilla;
position = "{350, 0}";
},
{
name = top;
position = "{488, 720}";
}
);
associatedMasterId = "AB099EFE-E788-4EFC-8633-CF147CB782A6";
layerId = "0C70BBED-6CBF-4E45-B429-2F50D50C94E8";
name = "Half {450}";
paths = (
{
closed = 1;
nodes = (
"455 -8 OFFCURVE",
"536 17 OFFCURVE",
"587 56 CURVE",
"562 162 LINE",
"510 120 OFFCURVE",
"441 94 OFFCURVE",
"373 94 CURVE SMOOTH",
"225 94 OFFCURVE",
"139 217 OFFCURVE",
"166 368 CURVE SMOOTH",
"191 508 OFFCURVE",
"303 632 OFFCURVE",
"453 632 CURVE SMOOTH",
"518 632 OFFCURVE",
"593 608 OFFCURVE",
"631 568 CURVE",
"686 662 LINE",
"630 702 OFFCURVE",
"543 728 OFFCURVE",
"460 728 CURVE SMOOTH",
"252 728 OFFCURVE",
"96 570 OFFCURVE",
"63 376 CURVE SMOOTH",
"27 163 OFFCURVE",
"152 -8 OFFCURVE",
"373 -8 CURVE SMOOTH"
);
}
);
width = 649;
}
);
leftKerningGroup = LAT_O_UC;
leftMetricsKey = O;
rightKerningGroup = LAT_C_UC;
unicode = 0043;
},
{
glyphname = D;
lastChange = "2020-06-16 12:08:53 +0000";
layers = (
{
anchors = (
{
name = bottom;
position = "{286, 0}";
},
{
name = center;
position = "{141, 360}";
},
{
name = top;
position = "{429, 720}";
}
);
layerId = "AB099EFE-E788-4EFC-8633-CF147CB782A6";
paths = (
{
closed = 1;
nodes = (
"278 0 LINE SMOOTH",
"445 0 OFFCURVE",
"592 111 OFFCURVE",
"631 325 CURVE SMOOTH",
"670 540 OFFCURVE",
"583 720 OFFCURVE",
"385 720 CURVE SMOOTH",
"194 720 LINE",
"49 0 LINE"
);
},
{
closed = 1;
nodes = (
"220 690 LINE",
"381 690 LINE SMOOTH",
"553 690 OFFCURVE",
"635 540 OFFCURVE",
"601 337 CURVE SMOOTH",
"569 149 OFFCURVE",
"446 30 OFFCURVE",
"281 30 CURVE SMOOTH",
"88 30 LINE"
);
}
);
width = 679;
},
{
anchors = (
{
name = bottom;
position = "{286, 0}";
},
{
name = center;
position = "{189, 360}";
},
{
name = top;
position = "{433, 720}";
}
);
layerId = "2D8F7115-C311-411E-929D-56333CF7FFB2";
paths = (
{
closed = 1;
nodes = (
"304 0 LINE SMOOTH",
"500 0 OFFCURVE",
"653 124 OFFCURVE",
"690 311 CURVE SMOOTH",
"734 531 OFFCURVE",
"596 720 OFFCURVE",
"378 720 CURVE SMOOTH",
"164 720 LINE",
"19 0 LINE"
);
},
{
closed = 1;
nodes = (
"315 560 LINE",
"366 560 LINE SMOOTH",
"477 560 OFFCURVE",
"534 465 OFFCURVE",
"516 351 CURVE SMOOTH",
"497 233 OFFCURVE",
"413 160 OFFCURVE",
"326 160 CURVE SMOOTH",
"235 160 LINE"
);
}
);
width = 710;
}
);
leftKerningGroup = LAT_H_UC;
leftMetricsKey = H;
rightKerningGroup = LAT_O_UC;
rightMetricsKey = O;
unicode = 0044;
},
{
glyphname = E;
lastChange = "2020-06-16 08:10:04 +0000";
layers = (
{
anchors = (
{
name = bottom;
position = "{248, 0}";
},
{
name = cedilla;
position = "{242, 0}";
},
{
name = ogonek;
position = "{332, 0}";
},
{
name = top;
position = "{383, 720}";
},
{
name = topleft;
position = "{117, 720}";
}
);
hints = (
{
horizontal = 1;
origin = "{0, 2}";
target = "{0, 11}";
type = TTStem;
options = 4;
},
{
horizontal = 1;
origin = "{0, 3}";
target = "{0, 6}";
type = TTStem;
options = 1;
},
{
horizontal = 1;
origin = "{0, 10}";
target = "{0, 7}";
type = TTStem;
options = 4;
}
);
layerId = "AB099EFE-E788-4EFC-8633-CF147CB782A6";
paths = (
{
closed = 1;
nodes = (
"407 0 LINE",
"412 30 LINE",
"88 30 LINE",
"153 354 LINE",
"430 354 LINE",
"438 384 LINE",
"159 384 LINE",
"221 690 LINE",
"544 690 LINE",
"552 720 LINE",
"194 720 LINE",
"49 0 LINE"
);
}
);
width = 528;
},
{
anchors = (
{
name = bottom;
position = "{248, 0}";
},
{
name = cedilla;
position = "{246, 0}";
},
{
name = ogonek;
position = "{342, 0}";
},
{
name = top;
position = "{391, 720}";
},
{
name = topleft;
position = "{117, 720}";
}
);
hints = (
{
horizontal = 1;
origin = "{0, 2}";
target = "{0, 11}";
type = TTStem;
options = 4;
},
{
horizontal = 1;
origin = "{0, 3}";
target = "{0, 6}";
type = TTStem;
options = 1;
},
{
horizontal = 1;
origin = "{0, 10}";
target = "{0, 7}";
type = TTStem;
options = 4;
}
);
layerId = "2D8F7115-C311-411E-929D-56333CF7FFB2";
paths = (
{
closed = 1;
nodes = (
"435 0 LINE",
"468 160 LINE",
"236 160 LINE",
"260 286 LINE",
"450 286 LINE",
"484 438 LINE",
"291 438 LINE",
"315 560 LINE",
"546 560 LINE",
"580 720 LINE",
"164 720 LINE",
"19 0 LINE"
);
}
);
width = 539;
}
);
leftKerningGroup = LAT_H_UC;
leftMetricsKey = H;
rightKerningGroup = LAT_E_UC;
unicode = 0045;
},
{
glyphname = F;
lastChange = "2020-06-16 08:28:43 +0000";
layers = (
{
anchors = (
{
name = bottom;
position = "{65, 0}";
},
{
name = center;
position = "{102, 184}";
},
{
name = top;
position = "{383, 720}";
}
);
layerId = "AB099EFE-E788-4EFC-8633-CF147CB782A6";
paths = (
{
closed = 1;
nodes = (
"82 0 LINE",
"153 354 LINE",
"426 354 LINE",
"434 384 LINE",
"159 384 LINE",
"221 690 LINE",
"532 690 LINE",
"540 720 LINE",
"194 720 LINE",
"49 0 LINE"
);
}
);
width = 488;
},
{
anchors = (
{
name = bottom;
position = "{111, 0}";
},
{
name = center;
position = "{139, 142}";
},
{
name = top;
position = "{403, 720}";
}
);
layerId = "2D8F7115-C311-411E-929D-56333CF7FFB2";
paths = (
{
closed = 1;
nodes = (
"203 0 LINE",
"254 256 LINE",
"445 256 LINE",
"477 416 LINE",
"287 416 LINE",
"314 560 LINE",
"548 560 LINE",
"580 720 LINE",
"164 720 LINE",
"19 0 LINE"
);
}
);
width = 519;
}
);
leftKerningGroup = LAT_H_UC;
leftMetricsKey = H;
rightKerningGroup = LAT_F_UC;
unicode = 0046;
},
{
glyphname = G;
lastChange = "2020-06-16 12:09:02 +0000";
layers = (
{
anchors = (
{
name = bottom;
position = "{321, 0}";
},
{
name = hook;
position = "{681, 652}";
},
{
name = top;
position = "{465, 720}";
}
);
layerId = "AB099EFE-E788-4EFC-8633-CF147CB782A6";
paths = (
{
closed = 1;
nodes = (
"521 -8 OFFCURVE",
"649 147 OFFCURVE",
"684 342 CURVE SMOOTH",
"689 370 LINE",
"385 370 LINE",
"380 342 LINE",
"666 342 LINE",
"654 351 LINE",
"614 135 OFFCURVE",
"484 20 OFFCURVE",
"345 20 CURVE SMOOTH",
"190 20 OFFCURVE",
"78 163 OFFCURVE",
"113 356 CURVE SMOOTH",
"149 553 OFFCURVE",
"318 698 OFFCURVE",
"480 698 CURVE SMOOTH",
"544 698 OFFCURVE",
"625 675 OFFCURVE",
"667 622 CURVE",
"686 652 LINE",
"642 696 OFFCURVE",
"561 728 OFFCURVE",
"479 728 CURVE SMOOTH",
"297 728 OFFCURVE",
"123 571 OFFCURVE",
"84 364 CURVE SMOOTH",
"45 156 OFFCURVE",
"162 -8 OFFCURVE",
"344 -8 CURVE SMOOTH"
);
}
);
width = 727;
},
{
anchors = (
{
name = bottom;
position = "{333, 0}";
},
{
name = hook;
position = "{697, 670}";
},
{
name = top;
position = "{478, 720}";
}
);
layerId = "2D8F7115-C311-411E-929D-56333CF7FFB2";
paths = (
{
closed = 1;
nodes = (
"550 -8 OFFCURVE",
"686 121 OFFCURVE",
"718 280 CURVE SMOOTH",
"746 420 LINE",
"404 418 LINE",
"376 274 LINE",
"627 274 LINE",
"549 306 LINE",
"541 212 OFFCURVE",
"475 152 OFFCURVE",
"385 152 CURVE SMOOTH",
"271 152 OFFCURVE",
"209 254 OFFCURVE",
"233 372 CURVE SMOOTH",
"255 484 OFFCURVE",
"349 564 OFFCURVE",
"457 564 CURVE SMOOTH",
"514 564 OFFCURVE",
"577 542 OFFCURVE",
"596 514 CURVE",
"694 666 LINE",
"642 700 OFFCURVE",
"560 728 OFFCURVE",
"467 728 CURVE SMOOTH",
"260 728 OFFCURVE",
"92 587 OFFCURVE",
"54 396 CURVE SMOOTH",
"12 180 OFFCURVE",
"154 -8 OFFCURVE",
"371 -8 CURVE SMOOTH"
);
}
);
width = 745;
},
{
anchors = (
{
name = bottom;
position = "{326, 0}";
},
{
name = hook;
position = "{693, 662}";
},
{
name = top;
position = "{462, 720}";
}
);
associatedMasterId = "AB099EFE-E788-4EFC-8633-CF147CB782A6";
background = {
components = (
{
name = C;
transform = "{1, 0, 0, 1, 2, 0}";
}
);
};
layerId = "468E3CD5-7719-4A9D-BC7F-DB35573366CF";
name = "Half {450}";
paths = (
{
closed = 1;
nodes = (
"534 -8 OFFCURVE",
"654 135 OFFCURVE",
"691 314 CURVE SMOOTH",
"707 392 LINE",
"387 392 LINE",
"370 300 LINE",
"631 300 LINE",
"587 332 LINE",
"573 184 OFFCURVE",
"481 88 OFFCURVE",
"364 88 CURVE SMOOTH",
"238 88 OFFCURVE",
"135 196 OFFCURVE",
"162 357 CURVE SMOOTH",
"186 496 OFFCURVE",
"299 632 OFFCURVE",
"453 632 CURVE SMOOTH",
"523 632 OFFCURVE",
"602 603 OFFCURVE",
"629 566 CURVE",
"685 662 LINE",
"642 696 OFFCURVE",
"548 728 OFFCURVE",
"461 728 CURVE SMOOTH",
"262 728 OFFCURVE",
"94 563 OFFCURVE",
"62 367 CURVE SMOOTH",
"27 150 OFFCURVE",
"175 -8 OFFCURVE",
"358 -8 CURVE SMOOTH"
);
}
);
width = 717;
}
);
leftKerningGroup = LAT_O_UC;
leftMetricsKey = O;
rightKerningGroup = LAT_G_UC;
unicode = 0047;
},
{
glyphname = H;
lastChange = "2020-06-14 07:15:10 +0000";
layers = (
{
anchors = (
{
name = bottom;
position = "{290, 0}";
},
{
name = center;
position = "{395, 530}";
},
{
name = top;
position = "{433, 720}";
}
);
layerId = "AB099EFE-E788-4EFC-8633-CF147CB782A6";
paths = (
{
closed = 1;
nodes = (
"82 0 LINE",
"153 354 LINE",
"569 354 LINE",
"498 0 LINE",
"531 0 LINE",
"674 720 LINE",
"641 720 LINE",
"575 384 LINE",
"159 384 LINE",
"227 720 LINE",
"194 720 LINE",
"49 0 LINE"
);
}
);
width = 682;
},
{
anchors = (
{
name = bottom;
position = "{324, 0}";
},
{
name = center;
position = "{440, 578}";
},
{
name = top;
position = "{468, 720}";
}
);
guideLines = (
{
angle = 78.75;
position = "{-38, 0}";
}
);
layerId = "2D8F7115-C311-411E-929D-56333CF7FFB2";
paths = (
{
closed = 1;
nodes = (
"203 0 LINE",
"259 282 LINE",
"499 282 LINE",
"445 0 LINE",
"629 0 LINE",
"773 720 LINE",
"589 720 LINE",
"531 442 LINE",
"291 442 LINE",
"348 720 LINE",
"164 720 LINE",
"19 0 LINE"
);
}
);
width = 754;
},
{
anchors = (
{
name = bottom;
position = "{304, 0}";
},
{
name = center;
position = "{414, 554}";
},
{
name = top;
position = "{447, 720}";
}
);
associatedMasterId = "AB099EFE-E788-4EFC-8633-CF147CB782A6";
layerId = "9963B293-F5C4-4FD8-8DEF-C08B345CCF6A";
name = "{450}";
paths = (
{
closed = 1;
nodes = (
"138 0 LINE",
"202 318 LINE",
"532 318 LINE",
"469 0 LINE",
"575 0 LINE",
"719 720 LINE",
"613 720 LINE",
"552 414 LINE",
"221 414 LINE",
"283 720 LINE",
"177 720 LINE",
"32 0 LINE"
);
}
);
width = 712;
}
);
leftKerningGroup = LAT_H_UC;
rightKerningGroup = LAT_H_UC;
unicode = 0048;
},
{
glyphname = I;
lastChange = "2020-06-16 08:21:50 +0000";
layers = (
{
anchors = (
{
name = bottom;
position = "{69, 0}";
},
{
name = ogonek;
position = "{25, 0}";
},
{
name = top;
position = "{214, 720}";
}
);
layerId = "AB099EFE-E788-4EFC-8633-CF147CB782A6";
paths = (
{
closed = 1;
nodes = (
"85 0 LINE",
"230 720 LINE",
"197 720 LINE",
"52 0 LINE"
);
}
);
width = 241;
},
{
anchors = (
{
name = bottom;
position = "{119, 0}";
},
{
name = ogonek;
position = "{105, 0}";
},
{
name = top;
position = "{264, 720}";
}
);
layerId = "2D8F7115-C311-411E-929D-56333CF7FFB2";
paths = (
{
closed = 1;
nodes = (
"210 0 LINE",
"355 720 LINE",
"172 720 LINE",
"27 0 LINE"
);
}
);
width = 346;
}
);
leftKerningGroup = LAT_H_UC;
rightKerningGroup = LAT_H_UC;
unicode = 0049;
},
{
color = 10;
glyphname = I.ss04;
lastChange = "2020-06-14 07:13:58 +0000";
layers = (
{
anchors = (
{
name = bottom;
position = "{128, 0}";
},
{
name = ogonek;
position = "{104, 0}";
},
{
name = top;
position = "{273, 720}";
}
);
layerId = "AB099EFE-E788-4EFC-8633-CF147CB782A6";
paths = (
{
closed = 1;
nodes = (
"144 0 LINE",
"289 720 LINE",
"257 720 LINE",
"114 0 LINE"
);
},
{
closed = 1;
nodes = (
"228 0 LINE",
"233 30 LINE",
"35 30 LINE",
"30 0 LINE"
);
},
{
closed = 1;
nodes = (
"364 690 LINE",
"373 720 LINE",
"175 720 LINE",
"167 690 LINE"
);
}
);
width = 361;
},
{
anchors = (
{
name = bottom;
position = "{187, 0}";
},
{
name = ogonek;
position = "{171, 0}";
},
{
name = top;
position = "{332, 720}";
}
);
layerId = "2D8F7115-C311-411E-929D-56333CF7FFB2";
paths = (
{
closed = 1;
nodes = (
"277 0 LINE",
"422 720 LINE",
"244 720 LINE",
"99 0 LINE"
);
},
{
closed = 1;
nodes = (
"369 0 LINE",
"401 156 LINE",
"42 156 LINE",
"7 0 LINE"
);
},
{
closed = 1;
nodes = (
"479 564 LINE",
"514 720 LINE",
"152 720 LINE",
"117 564 LINE"
);
}
);
width = 481;
}
);
leftKerningGroup = LAT_ISS03_UC;
rightKerningGroup = LAT_ISS03_UC;
},
{
color = 10;
glyphname = IJ.ss04;
lastChange = "2020-06-14 03:25:06 +0000";
layers = (
{
components = (
{
name = I.ss04;
}
);
layerId = "AB099EFE-E788-4EFC-8633-CF147CB782A6";
paths = (
{
closed = 1;
nodes = (
"352 -77 OFFCURVE",
"322 -184 OFFCURVE",
"183 -184 CURVE SMOOTH",
"140 -184 OFFCURVE",
"107 -164 OFFCURVE",
"92 -120 CURVE",
"64 -134 LINE",
"83 -180 OFFCURVE",
"123 -212 OFFCURVE",
"188 -212 CURVE SMOOTH",
"334 -212 OFFCURVE",
"378 -111 OFFCURVE",
"404 18 CURVE SMOOTH",
"545 720 LINE",
"513 720 LINE",
"370 10 LINE SMOOTH"
);
}
);
width = 553;
},
{
components = (
{
name = I.ss04;
}
);
layerId = "2D8F7115-C311-411E-929D-56333CF7FFB2";
paths = (
{
closed = 1;
nodes = (
"472 -66 OFFCURVE",
"434 -100 OFFCURVE",
"394 -100 CURVE SMOOTH",
"373 -100 OFFCURVE",
"344 -90 OFFCURVE",
"341 -68 CURVE",
"187 -128 LINE",
"207 -204 OFFCURVE",
"295 -248 OFFCURVE",
"394 -248 CURVE SMOOTH",
"523 -248 OFFCURVE",
"627 -174 OFFCURVE",
"656 -30 CURVE SMOOTH",
"806 720 LINE",
"630 720 LINE",
"480 -28 LINE SMOOTH"
);
}
);
width = 787;
}
);
leftKerningGroup = LAT_ISS03_UC;
leftMetricsKey = I.ss04;
rightKerningGroup = LAT_J_UC;
rightMetricsKey = H;
},
{
glyphname = J;
lastChange = "2020-06-14 07:13:58 +0000";
layers = (
{
anchors = (
{
name = bottom;
position = "{155, 0}";
},
{
name = top;
position = "{422, 720}";
}
);
layerId = "AB099EFE-E788-4EFC-8633-CF147CB782A6";
paths = (
{
closed = 1;
nodes = (
"241 -8 OFFCURVE",
"306 56 OFFCURVE",
"336 208 CURVE SMOOTH",
"438 720 LINE",
"406 720 LINE",
"304 208 LINE SMOOTH",
"277 74 OFFCURVE",
"226 22 OFFCURVE",
"152 22 CURVE SMOOTH",
"82 22 OFFCURVE",
"21 77 OFFCURVE",
"39 168 CURVE",
"7 172 LINE",
"-10 68 OFFCURVE",
"59 -8 OFFCURVE",
"153 -8 CURVE SMOOTH"
);
}
);
width = 446;
},
{
anchors = (
{
name = bottom;
position = "{223, 0}";
},
{
name = top;
position = "{480, 720}";
}
);
layerId = "2D8F7115-C311-411E-929D-56333CF7FFB2";
paths = (
{
closed = 1;
nodes = (
"352 -8 OFFCURVE",
"444 78 OFFCURVE",
"473 222 CURVE SMOOTH",
"573 720 LINE",
"389 720 LINE",
"293 237 LINE SMOOTH",
"288 211 OFFCURVE",
"274 152 OFFCURVE",
"224 152 CURVE SMOOTH",
"186 152 OFFCURVE",
"168 183 OFFCURVE",
"179 234 CURVE",
"9 250 LINE",
"-22 95 OFFCURVE",
"63 -8 OFFCURVE",
"219 -8 CURVE SMOOTH"
);
}
);
width = 554;
}
);
leftKerningGroup = LAT_J_UC;
rightKerningGroup = LAT_U_UC;
rightMetricsKey = H;
unicode = 004A;
},
{
glyphname = K;
lastChange = "2020-06-14 07:13:58 +0000";
layers = (
{
anchors = (
{
name = bottom;
position = "{250, 0}";
},
{
name = top;
position = "{395, 720}";
}
);
layerId = "AB099EFE-E788-4EFC-8633-CF147CB782A6";
paths = (
{
closed = 1;
nodes = (
"81 0 LINE",
"150 346 LINE",
"166 346 LINE",
"151 358 LINE",
"451 0 LINE",
"489 0 LINE",
"179 369 LINE",
"180 350 LINE",
"610 720 LINE",
"564 720 LINE",
"151 362 LINE",
"173 374 LINE",
"155 374 LINE",
"226 720 LINE",
"194 720 LINE",
"49 0 LINE"
);
}
);
width = 564;
},
{
anchors = (
{
name = bottom;
position = "{306, 0}";
},
{
name = top;
position = "{433, 720}";
}
);
guideLines = (
{
angle = 120;
position = "{533, 0}";
}
);
layerId = "2D8F7115-C311-411E-929D-56333CF7FFB2";
paths = (
{
closed = 1;
nodes = (
"203 0 LINE",
"265 312 LINE",
"305 312 LINE",
"251 340 LINE",
"427 0 LINE",
"629 0 LINE",
"406 404 LINE",
"398 296 LINE",
"773 720 LINE",
"548 720 LINE",
"261 377 LINE",
"324 404 LINE",
"284 404 LINE",
"348 720 LINE",
"164 720 LINE",
"19 0 LINE"
);
}
);
width = 694;
}
);
leftKerningGroup = LAT_H_UC;
leftMetricsKey = H;
rightKerningGroup = LAT_K_UC;
unicode = 004B;
},
{
glyphname = L;
lastChange = "2020-06-14 07:13:58 +0000";
layers = (
{
anchors = (
{
name = bottom;
position = "{231, 0}";
},
{
name = center;
position = "{137, 360}";
},
{
name = dot;
position = "{381, 360}";
},
{
name = top;
position = "{210, 720}";
},
{
name = topright;
position = "{454, 720}";
}
);
layerId = "AB099EFE-E788-4EFC-8633-CF147CB782A6";
paths = (
{
closed = 1;
nodes = (
"399 0 LINE",
"404 30 LINE",
"86 30 LINE",
"226 720 LINE",
"194 720 LINE",
"49 0 LINE"
);
}
);
width = 476;
},
{
anchors = (
{
name = bottom;
position = "{229, 0}";
},
{
name = center;
position = "{183, 370}";
},
{
name = dot;
position = "{437, 370}";
},
{
name = top;
position = "{260, 720}";
},
{
name = topright;
position = "{396, 720}";
}
);
layerId = "2D8F7115-C311-411E-929D-56333CF7FFB2";
paths = (
{
closed = 1;
nodes = (
"429 0 LINE",
"464 160 LINE",
"235 160 LINE",
"348 720 LINE",
"164 720 LINE",
"19 0 LINE"
);
}
);
width = 499;
}
);
leftKerningGroup = LAT_H_UC;
leftMetricsKey = H;
rightKerningGroup = LAT_L_UC;
unicode = 004C;
},
{
glyphname = M;
lastChange = "2020-06-16 11:54:43 +0000";
layers = (
{
anchors = (
{
name = bottom;
position = "{334, 0}";
},
{
name = top;
position = "{479, 720}";
}
);
layerId = "AB099EFE-E788-4EFC-8633-CF147CB782A6";
paths = (
{
closed = 1;
nodes = (
"81 0 LINE",
"185 522 LINE",
"213 658 LINE",
"217 658 LINE",
"351 134 LINE",
"371 134 LINE",
"716 661 LINE",
"720 661 LINE",
"690 523 LINE",
"585 0 LINE",
"617 0 LINE",
"762 720 LINE",
"718 720 LINE",
"373 188 LINE",
"367 188 LINE",
"230 720 LINE",
"194 720 LINE",
"49 0 LINE"
);
}
);
width = 770;
},
{
anchors = (
{
name = bottom;
position = "{392, 0}";
},
{
name = top;
position = "{537, 720}";
}
);
layerId = "2D8F7115-C311-411E-929D-56333CF7FFB2";
paths = (
{
closed = 1;
nodes = (
"199 0 LINE",
"235 196 LINE",
"271 398 LINE",
"277 398 LINE",
"398 150 LINE",
"430 150 LINE",
"676 418 LINE",
"680 418 LINE",
"626 196 LINE",
"587 0 LINE",
"766 0 LINE",
"910 720 LINE",
"763 720 LINE",
"453 398 LINE",
"449 398 LINE",
"286 720 LINE",
"164 720 LINE",
"19 0 LINE"
);
}
);
width = 891;
},
{
anchors = (
{
name = bottom;
position = "{363, 0}";
},
{
name = top;
position = "{508, 720}";
}
);
associatedMasterId = "AB099EFE-E788-4EFC-8633-CF147CB782A6";
layerId = "6123BCBE-8DAE-43AC-AC2E-27695F353F5A";
name = "Half {450}";
paths = (
{
closed = 1;
nodes = (
"135 0 LINE",
"205 352 LINE",
"234 496 LINE",
"238 496 LINE",
"374 140 LINE",
"408 140 LINE",
"689 503 LINE",
"693 503 LINE",
"659 352 LINE",
"587 0 LINE",
"690 0 LINE",
"835 720 LINE",
"748 720 LINE",
"417 298 LINE",
"413 298 LINE",
"250 720 LINE",
"177 720 LINE",
"32 0 LINE"
);
}
);
width = 828;
}
);
leftKerningGroup = LAT_H_UC;
leftMetricsKey = H;
rightKerningGroup = LAT_H_UC;
rightMetricsKey = H;
unicode = 004D;
},
{
glyphname = N;
lastChange = "2020-06-16 09:45:51 +0000";
layers = (
{
anchors = (
{
name = bottom;
position = "{282, 0}";
},
{
name = leghookright;
position = "{512, 0}";
},
{
name = top;
position = "{434, 720}";
}
);
layerId = "AB099EFE-E788-4EFC-8633-CF147CB782A6";
paths = (
{
closed = 1;
nodes = (
"81 0 LINE",
"176 472 LINE",
"213 660 LINE",
"217 660 LINE",
"274 528 LINE",
"498 0 LINE",
"528 0 LINE",
"673 720 LINE",
"641 720 LINE",
"547 252 LINE",
"508 58 LINE",
"502 58 LINE",
"448 190 LINE",
"222 720 LINE",
"194 720 LINE",
"49 0 LINE"
);
}
);
width = 681;
},
{
anchors = (
{
name = bottom;
position = "{328, 0}";
},
{
name = leghookright;
position = "{552, 0}";
},
{
name = top;
position = "{474, 720}";
}
);
layerId = "2D8F7115-C311-411E-929D-56333CF7FFB2";
paths = (
{
closed = 1;
nodes = (
"203 0 LINE",
"250 254 LINE",
"272 417 LINE",
"276 417 LINE",
"311 348 LINE",
"506 0 LINE",
"640 0 LINE",
"785 720 LINE",
"599 720 LINE",
"548 466 LINE",
"526 312 LINE",
"522 312 LINE",
"489 380 LINE",
"296 720 LINE",
"164 720 LINE",
"19 0 LINE"
);
}
);
width = 766;
},
{
anchors = (
{
name = bottom;
position = "{307, 0}";
},
{
name = leghookright;
position = "{538, 0}";
},
{
name = top;
position = "{456, 720}";
}
);
associatedMasterId = "AB099EFE-E788-4EFC-8633-CF147CB782A6";
background = {
paths = (
{
closed = 1;
nodes = (
"554 190 LINE",
"70 874 LINE",
"92 720 LINE",
"92 0 LINE",
"196 0 LINE",
"196 536 LINE",
"682 -146 LINE",
"658 -2 LINE",
"658 720 LINE",
"554 720 LINE"
);
}
);
};
layerId = "94E0382F-BC24-4C69-AAF8-052F59CB1787";
name = "Half {450}";
paths = (
{
closed = 1;
nodes = (
"133 0 LINE",
"203 352 LINE",
"237 527 LINE",
"241 527 LINE",
"289 438 LINE",
"517 0 LINE",
"590 0 LINE",
"735 720 LINE",
"633 720 LINE",
"564 372 LINE",
"530 192 LINE",
"524 192 LINE",
"478 278 LINE",
"251 720 LINE",
"177 720 LINE",
"32 0 LINE"
);
}
);
width = 728;
}
);
leftKerningGroup = LAT_H_UC;
leftMetricsKey = H;
rightKerningGroup = LAT_H_UC;
rightMetricsKey = H;
unicode = 004E;
},
{
glyphname = O;
lastChange = "2020-06-16 11:52:12 +0000";
layers = (
{
anchors = (
{
name = bottom;
position = "{331, 0}";
},
{
name = center;
position = "{400, 358}";
},
{
name = horn;
position = "{602, 688}";
},
{
name = ogonek;
position = "{341, 0}";
},
{
name = top;
position = "{468, 720}";
},
{
name = topleft;
position = "{119, 720}";
},
{
name = topright;
position = "{801, 720}";
}
);
layerId = "AB099EFE-E788-4EFC-8633-CF147CB782A6";
paths = (
{
closed = 1;
nodes = (
"519 -8 OFFCURVE",
"670 118 OFFCURVE",
"711 319 CURVE SMOOTH",
"752 516 OFFCURVE",
"663 728 OFFCURVE",
"447 728 CURVE SMOOTH",
"280 728 OFFCURVE",
"131 601 OFFCURVE",
"91 404 CURVE SMOOTH",
"47 187 OFFCURVE",
"152 -8 OFFCURVE",
"355 -8 CURVE SMOOTH"
);
},
{
closed = 1;
nodes = (
"180 23 OFFCURVE",
"81 191 OFFCURVE",
"121 393 CURVE SMOOTH",
"156 569 OFFCURVE",
"284 698 OFFCURVE",
"444 698 CURVE SMOOTH",
"639 698 OFFCURVE",
"718 509 OFFCURVE",
"680 325 CURVE SMOOTH",
"641 135 OFFCURVE",
"499 23 OFFCURVE",
"356 23 CURVE SMOOTH"
);
}
);
width = 760;
},
{
anchors = (
{
name = bottom;
position = "{359, 0}";
},
{
name = center;
position = "{412, 360}";
},
{
name = horn;
position = "{616, 696}";
},
{
name = ogonek;
position = "{361, 0}";
},
{
name = top;
position = "{465, 720}";
},
{
name = topleft;
position = "{81, 720}";
},
{
name = topright;
position = "{848, 720}";
}
);
layerId = "2D8F7115-C311-411E-929D-56333CF7FFB2";
paths = (
{
closed = 1;
nodes = (
"571 -8 OFFCURVE",
"729 129 OFFCURVE",
"765 313 CURVE SMOOTH",
"810 539 OFFCURVE",
"676 729 OFFCURVE",
"443 729 CURVE SMOOTH",
"250 729 OFFCURVE",
"94 594 OFFCURVE",
"57 408 CURVE SMOOTH",
"11 178 OFFCURVE",
"151 -8 OFFCURVE",
"380 -8 CURVE SMOOTH"
);
},
{
closed = 1;
nodes = (
"273 156 OFFCURVE",
"204 258 OFFCURVE",
"229 383 CURVE SMOOTH",
"250 487 OFFCURVE",
"333 564 OFFCURVE",
"433 564 CURVE SMOOTH",
"551 564 OFFCURVE",
"618 464 OFFCURVE",
"593 339 CURVE SMOOTH",
"572 233 OFFCURVE",
"489 156 OFFCURVE",
"390 156 CURVE SMOOTH"
);
}
);
width = 784;
},
{
anchors = (
{
name = bottom;
position = "{346, 0}";
},
{
name = center;
position = "{405, 359}";
},
{
name = horn;
position = "{611, 692}";
},
{
name = ogonek;
position = "{347, 0}";
},
{
name = top;
position = "{464, 720}";
},
{
name = topleft;
position = "{104, 720}";
},
{
name = topright;
position = "{826, 720}";
}
);
associatedMasterId = "AB099EFE-E788-4EFC-8633-CF147CB782A6";
layerId = "57EC84BE-8EB9-4FB6-8557-76103B1D2DBA";
name = "Half {450}";
paths = (
{
closed = 1;
nodes = (
"555 -6 OFFCURVE",
"695 133 OFFCURVE",
"732 318 CURVE SMOOTH",
"776 538 OFFCURVE",
"646 726 OFFCURVE",
"433 726 CURVE SMOOTH",
"247 726 OFFCURVE",
"104 580 OFFCURVE",
"68 400 CURVE SMOOTH",
"25 181 OFFCURVE",
"159 -6 OFFCURVE",
"373 -6 CURVE SMOOTH"
);
},
{
closed = 1;
nodes = (
"216 90 OFFCURVE",
"139 227 OFFCURVE",
"169 379 CURVE SMOOTH",
"197 522 OFFCURVE",
"303 631 OFFCURVE",
"435 631 CURVE SMOOTH",
"585 631 OFFCURVE",
"663 492 OFFCURVE",
"632 336 CURVE SMOOTH",
"603 193 OFFCURVE",
"500 90 OFFCURVE",
"370 90 CURVE SMOOTH"
);
}
);
width = 760;
}
);
leftKerningGroup = LAT_O_UC;
rightKerningGroup = LAT_O_UC;
unicode = 004F;
},
{
glyphname = OE;
lastChange = "2020-06-16 12:08:53 +0000";
layers = (
{
anchors = (
{
name = bottom;
position = "{523, 0}";
},
{
name = top;
position = "{667, 720}";
}
);
background = {
components = (
{
name = E;
transform = "{1, 0, 0, 1, 585, 0}";
}
);
};
layerId = "AB099EFE-E788-4EFC-8633-CF147CB782A6";
paths = (
{
closed = 1;
nodes = (
"485 -8 OFFCURVE",
"613 73 OFFCURVE",
"682 220 CURVE",
"668 222 LINE",
"624 0 LINE",
"990 0 LINE",
"995 30 LINE",
"661 30 LINE",
"726 354 LINE",
"1014 354 LINE",
"1021 384 LINE",
"733 384 LINE",
"793 690 LINE",
"1127 690 LINE",
"1134 720 LINE",
"768 720 LINE",
"724 498 LINE",
"732 496 LINE",
"725 642 OFFCURVE",
"617 728 OFFCURVE",
"481 728 CURVE SMOOTH",
"291 728 OFFCURVE",
"123 568 OFFCURVE",
"83 361 CURVE SMOOTH",
"43 156 OFFCURVE",
"157 -8 OFFCURVE",
"350 -8 CURVE SMOOTH"
);
},
{
closed = 1;
nodes = (
"176 20 OFFCURVE",
"78 170 OFFCURVE",
"113 357 CURVE SMOOTH",
"148 542 OFFCURVE",
"299 700 OFFCURVE",
"480 700 CURVE SMOOTH",
"657 700 OFFCURVE",
"739 552 OFFCURVE",
"700 356 CURVE SMOOTH",
"661 164 OFFCURVE",
"522 20 OFFCURVE",
"352 20 CURVE SMOOTH"
);
}
);
width = 1110;
},
{
anchors = (
{
name = bottom;
position = "{463, 0}";
},
{
name = top;
position = "{607, 720}";
}
);
background = {
anchors = (
{
name = bottom;
position = "{514, 0}";
},
{
name = top;
position = "{514, 720}";
}
);
components = (
{
name = E;
transform = "{1, 0, 0, 1, 482, 0}";
}
);
paths = (
{
closed = 1;
nodes = (
"532 0 LINE",
"532 156 LINE",
"434 156 LINE SMOOTH",
"335 156 OFFCURVE",
"263 243 OFFCURVE",
"264 358 CURVE SMOOTH",
"263 471 OFFCURVE",
"333 564 OFFCURVE",
"434 564 CURVE SMOOTH",
"532 564 LINE",
"532 720 LINE",
"440 720 LINE SMOOTH",
"245 720 OFFCURVE",
"86 555 OFFCURVE",
"86 358 CURVE SMOOTH",
"86 158 OFFCURVE",
"234 0 OFFCURVE",
"440 0 CURVE SMOOTH"
);
}
);
};
layerId = "2D8F7115-C311-411E-929D-56333CF7FFB2";
paths = (
{
closed = 1;
nodes = (
"450 -8 OFFCURVE",
"544 45 OFFCURVE",
"610 142 CURVE",
"540 150 LINE",
"510 0 LINE",
"913 0 LINE",
"947 160 LINE",
"707 160 LINE",
"730 286 LINE",
"930 286 LINE",
"962 438 LINE",
"762 438 LINE",
"787 560 LINE",
"1026 560 LINE",
"1057 720 LINE",
"654 720 LINE",
"626 570 LINE",
"692 562 LINE",
"665 662 OFFCURVE",
"592 732 OFFCURVE",
"457 732 CURVE SMOOTH",
"258 732 OFFCURVE",
"91 587 OFFCURVE",
"54 395 CURVE SMOOTH",
"11 175 OFFCURVE",
"140 -8 OFFCURVE",
"340 -8 CURVE SMOOTH"
);
},
{
closed = 1;
nodes = (
"269 144 OFFCURVE",
"210 226 OFFCURVE",
"225 339 CURVE SMOOTH",
"244 475 OFFCURVE",
"347 576 OFFCURVE",
"458 576 CURVE SMOOTH",
"563 576 OFFCURVE",
"620 491 OFFCURVE",
"601 368 CURVE SMOOTH",
"583 250 OFFCURVE",
"481 144 OFFCURVE",
"369 144 CURVE SMOOTH"
);
}
);
width = 1018;
}
);
leftKerningGroup = LAT_O_UC;
leftMetricsKey = O;
rightKerningGroup = LAT_E_UC;
rightMetricsKey = E;
unicode = 0152;
},
{
glyphname = P;
lastChange = "2020-06-16 12:00:10 +0000";
layers = (
{
anchors = (
{
name = bottom;
position = "{75, 0}";
},
{
name = top;
position = "{387, 720}";
}
);
background = {
paths = (
{
closed = 1;
nodes = (
"298 324 LINE SMOOTH",
"422 324 OFFCURVE",
"520 416 OFFCURVE",
"542 526 CURVE SMOOTH",
"565 644 OFFCURVE",
"491 720 OFFCURVE",
"371 720 CURVE SMOOTH",
"209 720 LINE",
"203 690 LINE",
"361 690 LINE SMOOTH",
"469 690 OFFCURVE",
"530 628 OFFCURVE",
"510 526 CURVE SMOOTH",
"490 424 OFFCURVE",
"404 354 OFFCURVE",
"298 354 CURVE SMOOTH",
"136 354 LINE",
"130 324 LINE"
);
},
{
closed = 1;
nodes = (
"81 0 LINE",
"225 720 LINE",
"193 720 LINE",
"49 0 LINE"
);
}
);
};
layerId = "AB099EFE-E788-4EFC-8633-CF147CB782A6";
paths = (
{
closed = 1;
nodes = (
"82 0 LINE",
"227 720 LINE",
"194 720 LINE",
"49 0 LINE"
);
},
{
closed = 1;
nodes = (
"317 324 LINE SMOOTH",
"436 324 OFFCURVE",
"524 392 OFFCURVE",
"543 506 CURVE SMOOTH",
"565 635 OFFCURVE",
"480 720 OFFCURVE",
"366 720 CURVE SMOOTH",
"216 720 LINE",
"208 690 LINE",
"364 690 LINE SMOOTH",
"456 690 OFFCURVE",
"531 624 OFFCURVE",
"512 513 CURVE SMOOTH",
"496 418 OFFCURVE",
"429 354 OFFCURVE",
"324 354 CURVE SMOOTH",
"141 354 LINE",
"136 324 LINE"
);
}
);
width = 545;
},
{
anchors = (
{
name = bottom;
position = "{121, 0}";
},
{
name = top;
position = "{421, 720}";
}
);
background = {
paths = (
{
closed = 1;
nodes = (
"301 236 LINE SMOOTH",
"459 236 OFFCURVE",
"601 325 OFFCURVE",
"631 467 CURVE SMOOTH",
"660 603 OFFCURVE",
"568 720 OFFCURVE",
"390 720 CURVE SMOOTH",
"308 720 LINE",
"276 560 LINE",
"382 560 LINE SMOOTH",
"434 560 OFFCURVE",
"463 525 OFFCURVE",
"460 481 CURVE SMOOTH",
"456 427 OFFCURVE",
"406 382 OFFCURVE",
"352 382 CURVE SMOOTH",
"239 382 LINE",
"211 236 LINE"
);
}
);
};
layerId = "2D8F7115-C311-411E-929D-56333CF7FFB2";
paths = (
{
closed = 1;
nodes = (
"203 0 LINE",
"348 720 LINE",
"164 720 LINE",
"19 0 LINE"
);
},
{
closed = 1;
nodes = (
"353 220 LINE SMOOTH",
"511 220 OFFCURVE",
"614 313 OFFCURVE",
"637 447 CURVE SMOOTH",
"665 610 OFFCURVE",
"554 720 OFFCURVE",
"386 720 CURVE SMOOTH",
"298 720 LINE",
"265 560 LINE",
"376 560 LINE SMOOTH",
"426 560 OFFCURVE",
"469 530 OFFCURVE",
"464 472 CURVE SMOOTH",
"458 410 OFFCURVE",
"406 378 OFFCURVE",
"361 378 CURVE SMOOTH",
"239 378 LINE",
"207 220 LINE"
);
}
);
width = 633;
}
);
leftKerningGroup = LAT_H_UC;
leftMetricsKey = H;
rightKerningGroup = LAT_P_UC;
unicode = 0050;
},
{
glyphname = Thorn;
lastChange = "2020-06-14 07:13:58 +0000";
layers = (
{
layerId = "AB099EFE-E788-4EFC-8633-CF147CB782A6";
paths = (
{
closed = 1;
nodes = (
"81 0 LINE",
"226 720 LINE",
"194 720 LINE",
"49 0 LINE"
);
},
{
closed = 1;
nodes = (
"305 160 LINE SMOOTH",
"421 160 OFFCURVE",
"511 243 OFFCURVE",
"532 353 CURVE SMOOTH",
"557 488 OFFCURVE",
"475 556 OFFCURVE",
"359 556 CURVE SMOOTH",
"186 556 LINE",
"179 526 LINE",
"358 526 LINE SMOOTH",
"454 526 OFFCURVE",
"523 476 OFFCURVE",
"502 360 CURVE SMOOTH",
"485 270 OFFCURVE",
"414 190 OFFCURVE",
"312 190 CURVE SMOOTH",
"112 190 LINE",
"107 160 LINE"
);
}
);
width = 565;
},
{
layerId = "2D8F7115-C311-411E-929D-56333CF7FFB2";
paths = (
{
closed = 1;
nodes = (
"199 0 LINE",
"344 720 LINE",
"164 720 LINE",
"19 0 LINE"
);
},
{
closed = 1;
nodes = (
"324 112 LINE SMOOTH",
"489 112 OFFCURVE",
"590 219 OFFCURVE",
"615 350 CURVE SMOOTH",
"645 507 OFFCURVE",
"554 612 OFFCURVE",
"383 612 CURVE SMOOTH",
"280 612 LINE",
"249 452 LINE",
"351 452 LINE SMOOTH",
"417 452 OFFCURVE",
"446 421 OFFCURVE",
"440 368 CURVE SMOOTH",
"435 323 OFFCURVE",
"396 270 OFFCURVE",
"339 270 CURVE SMOOTH",
"212 270 LINE",
"180 112 LINE"
);
}
);
width = 632;
}
);
leftKerningGroup = LAT_H_UC;
leftMetricsKey = H;
rightKerningGroup = LAT_P_SC;
unicode = 00DE;
},
{
glyphname = Q;
lastChange = "2020-06-16 12:26:34 +0000";
layers = (
{
anchors = (
{
name = bottom;
position = "{321, 0}";
},
{
name = top;
position = "{459, 720}";
}
);
components = (
{
name = O;
}
);
layerId = "AB099EFE-E788-4EFC-8633-CF147CB782A6";
paths = (
{
closed = 1;
nodes = (
"619 0 LINE",
"570 86 LINE",
"565 94 LINE",
"466 268 LINE",
"432 268 LINE",
"541 75 LINE",
"547 66 LINE",
"584 0 LINE"
);
}
);
width = 760;
},
{
anchors = (
{
name = bottom;
position = "{312, 0}";
},
{
name = top;
position = "{470, 720}";
}
);
components = (
{
name = O;
}
);
layerId = "2D8F7115-C311-411E-929D-56333CF7FFB2";
paths = (
{
closed = 1;
nodes = (
"774 0 LINE",
"658 146 LINE",
"565 220 LINE",
"493 308 LINE",
"308 308 LINE",
"441 156 LINE",
"516 98 LINE",
"595 0 LINE"
);
}
);
width = 807;
},
{
anchors = (
{
name = bottom;
position = "{400, 0}";
},
{
name = top;
position = "{383, 720}";
}
);
associatedMasterId = "AB099EFE-E788-4EFC-8633-CF147CB782A6";
components = (
{
alignment = -1;
name = O;
}
);
guideLines = (
{
angle = 120;
position = "{608, 0}";
}
);
layerId = "5F397B99-8889-4A27-BB1C-6FD1F8D7B180";
name = "Half {450}";
paths = (
{
closed = 1;
nodes = (
"716 0 LINE",
"632 126 LINE",
"595 168 LINE",
"510 298 LINE",
"398 298 LINE",
"516 124 LINE",
"551 90 LINE",
"608 0 LINE"
);
}
);
width = 792;
}
);
leftKerningGroup = LAT_O_UC;
leftMetricsKey = O;
rightKerningGroup = LAT_Q_UC;
unicode = 0051;
},
{
glyphname = R;
lastChange = "2020-06-16 12:01:39 +0000";
layers = (
{
anchors = (
{
name = bottom;
position = "{256, 0}";
},
{
name = top;
position = "{385, 720}";
}
);
background = {
paths = (
{
closed = 1;
nodes = (
"328 326 LINE SMOOTH",
"436 327 OFFCURVE",
"524 404 OFFCURVE",
"545 507 CURVE SMOOTH",
"569 631 OFFCURVE",
"485 724 OFFCURVE",
"359 722 CURVE SMOOTH",
"210 720 LINE",
"202 690 LINE",
"355 692 LINE SMOOTH",
"467 693 OFFCURVE",
"534 620 OFFCURVE",
"513 512 CURVE SMOOTH",
"495 427 OFFCURVE",
"425 357 OFFCURVE",
"322 356 CURVE SMOOTH",
"135 354 LINE",
"130 324 LINE"
);
}
);
};
guideLines = (
{
angle = 120;
position = "{435, 0}";
},
{
angle = 67.5;
position = "{23, 2}";
}
);
layerId = "AB099EFE-E788-4EFC-8633-CF147CB782A6";
paths = (
{
closed = 1;
nodes = (
"82 0 LINE",
"227 720 LINE",
"194 720 LINE",
"49 0 LINE"
);
},
{
closed = 1;
nodes = (
"483 0 LINE",
"315 350 LINE",
"290 328 LINE",
"449 0 LINE"
);
},
{
closed = 1;
nodes = (
"305 324 LINE SMOOTH",
"434 324 OFFCURVE",
"524 392 OFFCURVE",
"543 506 CURVE SMOOTH",
"565 635 OFFCURVE",
"480 720 OFFCURVE",
"366 720 CURVE SMOOTH",
"216 720 LINE",
"208 690 LINE",
"364 690 LINE SMOOTH",
"455 690 OFFCURVE",
"530 627 OFFCURVE",
"512 513 CURVE SMOOTH",
"498 423 OFFCURVE",
"432 354 OFFCURVE",
"314 354 CURVE SMOOTH",
"141 354 LINE",
"136 324 LINE"
);
}
);
width = 592;
},
{
anchors = (
{
name = bottom;
position = "{290, 0}";
},
{
name = top;
position = "{425, 720}";
}
);
background = {
paths = (
{
closed = 1;
nodes = (
"301 236 LINE SMOOTH",
"459 236 OFFCURVE",
"601 325 OFFCURVE",
"631 467 CURVE SMOOTH",
"660 603 OFFCURVE",
"568 720 OFFCURVE",
"390 720 CURVE SMOOTH",
"308 720 LINE",
"276 560 LINE",
"382 560 LINE SMOOTH",
"434 560 OFFCURVE",
"459 525 OFFCURVE",
"456 481 CURVE SMOOTH",
"452 427 OFFCURVE",
"406 382 OFFCURVE",
"352 382 CURVE SMOOTH",
"239 382 LINE",
"211 236 LINE"
);
}
);
};
guideLines = (
{
angle = 120;
position = "{553, 0}";
}
);
layerId = "2D8F7115-C311-411E-929D-56333CF7FFB2";
paths = (
{
closed = 1;
nodes = (
"203 0 LINE",
"348 720 LINE",
"164 720 LINE",
"19 0 LINE"
);
},
{
closed = 1;
nodes = (
"599 0 LINE",
"433 360 LINE",
"296 262 LINE",
"411 0 LINE"
);
},
{
closed = 1;
nodes = (
"344 237 LINE SMOOTH",
"502 237 OFFCURVE",
"605 324 OFFCURVE",
"628 449 CURVE SMOOTH",
"656 610 OFFCURVE",
"545 720 OFFCURVE",
"377 720 CURVE SMOOTH",
"289 720 LINE",
"256 560 LINE",
"367 560 LINE SMOOTH",
"417 560 OFFCURVE",
"460 530 OFFCURVE",
"455 472 CURVE SMOOTH",
"449 414 OFFCURVE",
"403 383 OFFCURVE",
"352 383 CURVE SMOOTH",
"230 383 LINE",
"201 237 LINE"
);
}
);
width = 684;
}
);
leftKerningGroup = LAT_H_UC;
leftMetricsKey = H;
rightKerningGroup = LAT_R_UC;
unicode = 0052;
},
{
glyphname = S;
lastChange = "2020-06-16 08:28:14 +0000";
layers = (
{
anchors = (
{
name = bottom;
position = "{252, 0}";
},
{
name = top;
position = "{380, 720}";
}
);
background = {
paths = (
{
closed = 1;
nodes = (
"404 -8 OFFCURVE",
"530 96 OFFCURVE",
"556 222 CURVE SMOOTH",
"583 358 OFFCURVE",
"465 402 OFFCURVE",
"415 420 CURVE SMOOTH",
"370 436 OFFCURVE",
"276 456 OFFCURVE",
"288 514 CURVE SMOOTH",
"294 548 OFFCURVE",
"332 568 OFFCURVE",
"362 568 CURVE SMOOTH",
"402 568 OFFCURVE",
"426 534 OFFCURVE",
"430 506 CURVE",
"610 574 LINE",
"592 666 OFFCURVE",
"512 728 OFFCURVE",
"392 728 CURVE SMOOTH",
"256 728 OFFCURVE",
"135 650 OFFCURVE",
"108 518 CURVE SMOOTH",
"84 396 OFFCURVE",
"163 338 OFFCURVE",
"254 306 CURVE SMOOTH",
"308 286 OFFCURVE",
"385 272 OFFCURVE",
"374 216 CURVE SMOOTH",
"367 180 OFFCURVE",
"326 156 OFFCURVE",
"290 156 CURVE SMOOTH",
"236 156 OFFCURVE",
"208 202 OFFCURVE",
"200 246 CURVE",
"14 174 LINE",
"26 72 OFFCURVE",
"130 -8 OFFCURVE",
"256 -8 CURVE SMOOTH"
);
}
);
};
guideLines = (
{
angle = 22.5;
position = "{330, 458}";
}
);
layerId = "2D8F7115-C311-411E-929D-56333CF7FFB2";
paths = (
{
closed = 1;
nodes = (
"410 -8 OFFCURVE",
"514 69 OFFCURVE",
"538 195 CURVE SMOOTH",
"558 301 OFFCURVE",
"507 368 OFFCURVE",
"409 418 CURVE SMOOTH",
"358 444 OFFCURVE",
"284 471 OFFCURVE",
"288 516 CURVE SMOOTH",
"290 545 OFFCURVE",
"317 568 OFFCURVE",
"352 568 CURVE SMOOTH",
"394 568 OFFCURVE",
"418 534 OFFCURVE",
"424 500 CURVE",
"598 572 LINE",
"582 656 OFFCURVE",
"490 728 OFFCURVE",
"365 728 CURVE SMOOTH",
"241 728 OFFCURVE",
"133 655 OFFCURVE",
"110 538 CURVE SMOOTH",
"91 444 OFFCURVE",
"141 364 OFFCURVE",
"250 312 CURVE SMOOTH",
"301 287 OFFCURVE",
"364 262 OFFCURVE",
"358 211 CURVE SMOOTH",
"354 178 OFFCURVE",
"321 156 OFFCURVE",
"288 156 CURVE SMOOTH",
"245 156 OFFCURVE",
"211 202 OFFCURVE",
"204 245 CURVE",
"21 170 LINE",
"30 64 OFFCURVE",
"145 -8 OFFCURVE",
"275 -8 CURVE SMOOTH"
);
}
);
userData = {
RMXScaler = {
height = 137;
weight = 160;
width = 140;
};
};
width = 592;
},
{
anchors = (
{
name = bottom;
position = "{225, 0}";
},
{
name = top;
position = "{357, 720}";
}
);
background = {
paths = (
{
closed = 1;
nodes = (
"323 -8 OFFCURVE",
"438 64 OFFCURVE",
"463 178 CURVE SMOOTH",
"497 324 OFFCURVE",
"352 366 OFFCURVE",
"295 390 CURVE SMOOTH",
"232 416 OFFCURVE",
"162 462 OFFCURVE",
"183 556 CURVE SMOOTH",
"202 638 OFFCURVE",
"274 698 OFFCURVE",
"365 698 CURVE SMOOTH",
"454 698 OFFCURVE",
"490 644 OFFCURVE",
"501 602 CURVE",
"533 614 LINE",
"521 666 OFFCURVE",
"475 728 OFFCURVE",
"373 728 CURVE SMOOTH",
"269 728 OFFCURVE",
"176 662 OFFCURVE",
"151 556 CURVE SMOOTH",
"127 446 OFFCURVE",
"205 394 OFFCURVE",
"297 356 CURVE SMOOTH",
"358 330 OFFCURVE",
"457 290 OFFCURVE",
"431 178 CURVE SMOOTH",
"410 82 OFFCURVE",
"314 22 OFFCURVE",
"223 22 CURVE SMOOTH",
"144 22 OFFCURVE",
"81 68 OFFCURVE",
"69 142 CURVE",
"35 128 LINE",
"49 62 OFFCURVE",
"101 -8 OFFCURVE",
"213 -8 CURVE SMOOTH"
);
}
);
};
layerId = "AB099EFE-E788-4EFC-8633-CF147CB782A6";
paths = (
{
closed = 1;
nodes = (
"342 -8 OFFCURVE",
"424 62 OFFCURVE",
"443 167 CURVE SMOOTH",
"470 318 OFFCURVE",
"339 363 OFFCURVE",
"279 390 CURVE SMOOTH",
"208 422 OFFCURVE",
"155 473 OFFCURVE",
"172 565 CURVE SMOOTH",
"186 644 OFFCURVE",
"253 698 OFFCURVE",
"340 698 CURVE SMOOTH",
"425 698 OFFCURVE",
"460 646 OFFCURVE",
"472 602 CURVE",
"503 614 LINE",
"489 670 OFFCURVE",
"436 728 OFFCURVE",
"338 728 CURVE SMOOTH",
"242 728 OFFCURVE",
"164 673 OFFCURVE",
"142 572 CURVE SMOOTH",
"115 444 OFFCURVE",
"208 390 OFFCURVE",
"282 356 CURVE SMOOTH",
"340 329 OFFCURVE",
"431 289 OFFCURVE",
"411 170 CURVE SMOOTH",
"394 73 OFFCURVE",
"313 22 OFFCURVE",
"233 22 CURVE SMOOTH",
"151 22 OFFCURVE",
"82 78 OFFCURVE",
"73 146 CURVE",
"39 132 LINE",
"54 64 OFFCURVE",
"123 -8 OFFCURVE",
"233 -8 CURVE SMOOTH"
);
}
);
userData = {
RMXScaler = {
height = 139;
width = 140;
};
};
width = 526;
},
{
anchors = (
{
name = bottom;
position = "{225, 0}";
},
{
name = top;
position = "{368, 720}";
}
);
associatedMasterId = "AB099EFE-E788-4EFC-8633-CF147CB782A6";
background = {
paths = (
{
closed = 1;
nodes = (
"354 -8 OFFCURVE",
"477 74 OFFCURVE",
"506 200 CURVE SMOOTH",
"538 342 OFFCURVE",
"415 390 OFFCURVE",
"352 414 CURVE SMOOTH",
"301 434 OFFCURVE",
"229 462 OFFCURVE",
"246 540 CURVE SMOOTH",
"261 602 OFFCURVE",
"320 632 OFFCURVE",
"370 632 CURVE SMOOTH",
"430 632 OFFCURVE",
"464 588 OFFCURVE",
"472 556 CURVE",
"576 596 LINE",
"561 662 OFFCURVE",
"506 728 OFFCURVE",
"390 728 CURVE SMOOTH",
"270 728 OFFCURVE",
"168 652 OFFCURVE",
"142 540 CURVE SMOOTH",
"117 424 OFFCURVE",
"188 368 OFFCURVE",
"278 332 CURVE SMOOTH",
"322 314 OFFCURVE",
"421 286 OFFCURVE",
"402 198 CURVE SMOOTH",
"387 134 OFFCURVE",
"320 88 OFFCURVE",
"252 88 CURVE SMOOTH",
"182 88 OFFCURVE",
"144 142 OFFCURVE",
"138 196 CURVE",
"32 156 LINE",
"39 74 OFFCURVE",
"116 -8 OFFCURVE",
"236 -8 CURVE SMOOTH"
);
}
);
};
layerId = "86659515-6DAE-41E7-8983-96D73F096C54";
name = "Half {450}";
paths = (
{
closed = 1;
nodes = (
"367 -8 OFFCURVE",
"469 57 OFFCURVE",
"488 181 CURVE SMOOTH",
"510 330 OFFCURVE",
"385 390 OFFCURVE",
"331 414 CURVE SMOOTH",
"274 440 OFFCURVE",
"214 474 OFFCURVE",
"229 548 CURVE SMOOTH",
"238 594 OFFCURVE",
"275 632 OFFCURVE",
"337 632 CURVE SMOOTH",
"396 632 OFFCURVE",
"439 590 OFFCURVE",
"448 558 CURVE",
"545 594 LINE",
"527 670 OFFCURVE",
"447 728 OFFCURVE",
"341 728 CURVE SMOOTH",
"233 728 OFFCURVE",
"152 673 OFFCURVE",
"129 576 CURVE SMOOTH",
"107 482 OFFCURVE",
"149 389 OFFCURVE",
"274 332 CURVE SMOOTH",
"316 313 OFFCURVE",
"400 278 OFFCURVE",
"385 191 CURVE SMOOTH",
"374 128 OFFCURVE",
"322 88 OFFCURVE",
"263 88 CURVE SMOOTH",
"197 88 OFFCURVE",
"138 142 OFFCURVE",
"131 198 CURVE",
"29 162 LINE",
"40 77 OFFCURVE",
"135 -8 OFFCURVE",
"256 -8 CURVE SMOOTH"
);
}
);
userData = {
RMXScaler = {
height = 139;
width = 140;
};
};
width = 552;
}
);
leftKerningGroup = LAT_S_UC;
rightKerningGroup = LAT_S_UC;
unicode = 0053;
userData = {
RMXScaler = {
source = s;
};
};
},
{
glyphname = Germandbls;
lastChange = "2020-06-16 12:08:53 +0000";
layers = (
{
layerId = "AB099EFE-E788-4EFC-8633-CF147CB782A6";
paths = (
{
closed = 1;
nodes = (
"419 -8 OFFCURVE",
"537 90 OFFCURVE",
"564 213 CURVE SMOOTH",
"590 332 OFFCURVE",
"518 444 OFFCURVE",
"358 436 CURVE",
"371 420 LINE",
"539 690 LINE",
"539 698 LINE",
"487 720 OFFCURVE",
"425 728 OFFCURVE",
"377 728 CURVE SMOOTH",
"184 728 OFFCURVE",
"163 606 OFFCURVE",
"152 552 CURVE SMOOTH",
"41 0 LINE",
"73 0 LINE",
"182 550 LINE SMOOTH",
"190 591 OFFCURVE",
"206 698 OFFCURVE",
"385 698 CURVE SMOOTH",
"433 698 OFFCURVE",
"473 690 OFFCURVE",
"506 676 CURVE",
"505 692 LINE",
"341 422 LINE",
"338 408 LINE",
"356 408 LINE SMOOTH",
"482 408 OFFCURVE",
"557 340 OFFCURVE",
"534 224 CURVE SMOOTH",
"509 98 OFFCURVE",
"391 22 OFFCURVE",
"302 22 CURVE SMOOTH",
"271 22 OFFCURVE",
"231 30 OFFCURVE",
"198 38 CURVE",
"193 6 LINE",
"222 -2 OFFCURVE",
"267 -8 OFFCURVE",
"297 -8 CURVE SMOOTH"
);
}
);
width = 633;
},
{
layerId = "2D8F7115-C311-411E-929D-56333CF7FFB2";
paths = (
{
closed = 1;
nodes = (
"533 -9 OFFCURVE",
"642 75 OFFCURVE",
"669 198 CURVE SMOOTH",
"697 324 OFFCURVE",
"624 413 OFFCURVE",
"492 412 CURVE",
"549 344 LINE",
"709 654 LINE",
"707 668 LINE",
"658 698 OFFCURVE",
"554 728 OFFCURVE",
"446 728 CURVE SMOOTH",
"277 728 OFFCURVE",
"143 651 OFFCURVE",
"114 506 CURVE SMOOTH",
"13 0 LINE",
"197 0 LINE",
"289 468 LINE SMOOTH",
"295 499 OFFCURVE",
"326 572 OFFCURVE",
"444 572 CURVE SMOOTH",
"474 572 OFFCURVE",
"490 567 OFFCURVE",
"504 556 CURVE",
"500 599 LINE",
"364 332 LINE",
"360 304 LINE",
"399 304 LINE SMOOTH",
"413 304 OFFCURVE",
"505 297 OFFCURVE",
"498 225 CURVE SMOOTH",
"493 173 OFFCURVE",
"445 142 OFFCURVE",
"383 142 CURVE SMOOTH",
"365 142 OFFCURVE",
"339 145 OFFCURVE",
"321 149 CURVE",
"292 2 LINE",
"300 -1 OFFCURVE",
"333 -9 OFFCURVE",
"379 -9 CURVE SMOOTH"
);
}
);
width = 710;
}
);
leftKerningGroup = LAT_GERMANDBLS_UC;
rightKerningGroup = LAT_GERMANDBLS_UC;
rightMetricsKey = B;
unicode = 1E9E;
},
{
glyphname = Schwa;
lastChange = "2020-06-16 12:09:11 +0000";
layers = (
{
anchors = (
{
name = bottom;
position = "{294, -24}";
},
{
name = top;
position = "{452, 750}";
}
);
layerId = "AB099EFE-E788-4EFC-8633-CF147CB782A6";
paths = (
{
closed = 1;
nodes = (
"475 -8 OFFCURVE",
"620 130 OFFCURVE",
"666 360 CURVE SMOOTH",
"712 592 OFFCURVE",
"616 728 OFFCURVE",
"438 728 CURVE SMOOTH",
"336 728 OFFCURVE",
"222 680 OFFCURVE",
"150 590 CURVE",
"178 572 LINE",
"249 658 OFFCURVE",
"353 698 OFFCURVE",
"443 698 CURVE SMOOTH",
"611 698 OFFCURVE",
"676 564 OFFCURVE",
"636 368 CURVE SMOOTH",
"590 146 OFFCURVE",
"452 22 OFFCURVE",
"299 22 CURVE SMOOTH",
"154 22 OFFCURVE",
"74 142 OFFCURVE",
"112 352 CURVE",
"644 354 LINE",
"651 384 LINE",
"87 384 LINE",
"84 364 LINE SMOOTH",
"52 149 OFFCURVE",
"117 -8 OFFCURVE",
"300 -8 CURVE SMOOTH"
);
}
);
width = 707;
},
{
anchors = (
{
name = bottom;
position = "{327, -24}";
},
{
name = top;
position = "{468, 740}";
}
);
layerId = "2D8F7115-C311-411E-929D-56333CF7FFB2";
paths = (
{
closed = 1;
nodes = (
"527 -8 OFFCURVE",
"687 139 OFFCURVE",
"727 337 CURVE SMOOTH",
"775 573 OFFCURVE",
"644 728 OFFCURVE",
"438 728 CURVE SMOOTH",
"314 728 OFFCURVE",
"189 666 OFFCURVE",
"114 566 CURVE",
"259 485 LINE",
"297 531 OFFCURVE",
"360 572 OFFCURVE",
"427 572 CURVE SMOOTH",
"527 572 OFFCURVE",
"576 492 OFFCURVE",
"552 367 CURVE SMOOTH",
"530 251 OFFCURVE",
"447 144 OFFCURVE",
"331 144 CURVE SMOOTH",
"253 144 OFFCURVE",
"187 194 OFFCURVE",
"201 264 CURVE",
"587 272 LINE",
"615 410 LINE",
"59 412 LINE",
"43 338 LINE SMOOTH",
"-4 120 OFFCURVE",
"129 -8 OFFCURVE",
"316 -8 CURVE SMOOTH"
);
}
);
width = 741;
},
{
anchors = (
{
name = bottom;
position = "{322, -24}";
},
{
name = top;
position = "{471, 746}";
}
);
associatedMasterId = "AB099EFE-E788-4EFC-8633-CF147CB782A6";
layerId = "E88D8049-1054-478F-B246-304D48DB4790";
name = "Half {450}";
paths = (
{
closed = 1;
nodes = (
"485 -6 OFFCURVE",
"670 136 OFFCURVE",
"714 356 CURVE SMOOTH",
"756 567 OFFCURVE",
"640 730 OFFCURVE",
"440 730 CURVE SMOOTH",
"325 730 OFFCURVE",
"204 676 OFFCURVE",
"128 578 CURVE",
"212 532 LINE",
"259 591 OFFCURVE",
"345 638 OFFCURVE",
"428 638 CURVE SMOOTH",
"571 638 OFFCURVE",
"637 516 OFFCURVE",
"608 360 CURVE SMOOTH",
"576 193 OFFCURVE",
"441 86 OFFCURVE",
"314 82 CURVE SMOOTH",
"189 78 OFFCURVE",
"122 172 OFFCURVE",
"147 298 CURVE",
"614 300 LINE",
"632 390 LINE",
"67 390 LINE",
"52 318 LINE SMOOTH",
"13 133 OFFCURVE",
"113 -14 OFFCURVE",
"306 -10 CURVE SMOOTH"
);
}
);
width = 735;
}
);
leftKerningGroup = LAT_SCHWA_UC;
leftMetricsKey = O;
rightKerningGroup = LAT_O_UC;
rightMetricsKey = O;
unicode = 018F;
},
{
glyphname = T;
lastChange = "2020-06-16 08:20:14 +0000";
layers = (
{
anchors = (
{
name = bottom;
position = "{197, 0}";
},
{
name = cedilla;
position = "{197, 0}";
},
{
name = center;
position = "{269, 360}";
},
{
name = top;
position = "{341, 720}";
}
);
layerId = "AB099EFE-E788-4EFC-8633-CF147CB782A6";
paths = (
{
closed = 1;
nodes = (
"213 0 LINE",
"352 698 LINE",
"319 698 LINE",
"180 0 LINE"
);
},
{
closed = 1;
nodes = (
"544 690 LINE",
"551 720 LINE",
"129 720 LINE",
"122 690 LINE"
);
}
);
width = 495;
},
{
anchors = (
{
name = bottom;
position = "{225, 0}";
},
{
name = cedilla;
position = "{225, 0}";
},
{
name = center;
position = "{289, 328}";
},
{
name = top;
position = "{370, 720}";
}
);
layerId = "2D8F7115-C311-411E-929D-56333CF7FFB2";
paths = (
{
closed = 1;
nodes = (
"318 0 LINE",
"434 584 LINE",
"250 584 LINE",
"135 0 LINE"
);
},
{
closed = 1;
nodes = (
"587 560 LINE",
"622 720 LINE",
"118 720 LINE",
"85 560 LINE"
);
}
);
width = 557;
}
);
leftKerningGroup = LAT_T_UC;
rightKerningGroup = LAT_T_UC;
unicode = 0054;
},
{
glyphname = U;
lastChange = "2020-06-16 12:27:08 +0000";
layers = (
{
anchors = (
{
name = bottom;
position = "{278, 0}";
},
{
name = horn;
position = "{632, 720}";
},
{
name = ogonek;
position = "{278, 0}";
},
{
name = top;
position = "{423, 720}";
}
);
layerId = "AB099EFE-E788-4EFC-8633-CF147CB782A6";
paths = (
{
closed = 1;
nodes = (
"428 -8 OFFCURVE",
"523 82 OFFCURVE",
"553 230 CURVE SMOOTH",
"651 720 LINE",
"618 720 LINE",
"523 242 LINE SMOOTH",
"495 102 OFFCURVE",
"403 22 OFFCURVE",
"290 22 CURVE SMOOTH",
"174 22 OFFCURVE",
"101 100 OFFCURVE",
"130 244 CURVE SMOOTH",
"226 720 LINE",
"193 720 LINE",
"97 240 LINE SMOOTH",
"67 90 OFFCURVE",
"149 -8 OFFCURVE",
"291 -8 CURVE SMOOTH"
);
}
);
width = 659;
},
{
anchors = (
{
name = bottom;
position = "{306, 0}";
},
{
name = horn;
position = "{688, 720}";
},
{
name = ogonek;
position = "{306, 0}";
},
{
name = top;
position = "{447, 720}";
}
);
layerId = "2D8F7115-C311-411E-929D-56333CF7FFB2";
paths = (
{
closed = 1;
nodes = (
"500 -8 OFFCURVE",
"611 96 OFFCURVE",
"646 274 CURVE SMOOTH",
"734 720 LINE",
"550 720 LINE",
"464 278 LINE SMOOTH",
"450 205 OFFCURVE",
"406 152 OFFCURVE",
"340 152 CURVE SMOOTH",
"277 152 OFFCURVE",
"242 195 OFFCURVE",
"255 262 CURVE SMOOTH",
"347 720 LINE",
"163 720 LINE",
"79 294 LINE SMOOTH",
"44 116 OFFCURVE",
"154 -8 OFFCURVE",
"329 -8 CURVE SMOOTH"
);
}
);
width = 716;
}
);
leftKerningGroup = LAT_U_UC;
leftMetricsKey = H;
rightKerningGroup = LAT_U_UC;
rightMetricsKey = H;
unicode = 0055;
},
{
glyphname = V;
lastChange = "2020-06-16 08:56:20 +0000";
layers = (
{
anchors = (
{
name = bottom;
position = "{281, 0}";
},
{
name = top;
position = "{422, 720}";
}
);
layerId = "AB099EFE-E788-4EFC-8633-CF147CB782A6";
paths = (
{
closed = 1;
nodes = (
"293 0 LINE",
"724 720 LINE",
"686 720 LINE",
"435 294 LINE",
"288 44 LINE",
"284 44 LINE",
"238 294 LINE",
"156 720 LINE",
"124 720 LINE",
"265 0 LINE"
);
}
);
width = 664;
},
{
anchors = (
{
name = bottom;
position = "{314, 0}";
},
{
name = top;
position = "{457, 720}";
}
);
layerId = "2D8F7115-C311-411E-929D-56333CF7FFB2";
paths = (
{
closed = 1;
nodes = (
"394 0 LINE",
"819 720 LINE",
"609 720 LINE",
"456 438 LINE",
"357 242 LINE",
"357 242 LINE",
"329 438 LINE",
"287 720 LINE",
"95 720 LINE",
"238 0 LINE"
);
}
);
width = 732;
},
{
anchors = (
{
name = bottom;
position = "{296, 0}";
},
{
name = top;
position = "{437, 720}";
}
);
associatedMasterId = "AB099EFE-E788-4EFC-8633-CF147CB782A6";
layerId = "0D7ABE1B-ED2C-477C-ADA0-3A50A773B746";
name = "Half {450}";
paths = (
{
closed = 1;
nodes = (
"337 0 LINE",
"773 720 LINE",
"654 720 LINE",
"452 366 LINE",
"326 152 LINE",
"322 152 LINE",
"278 366 LINE",
"214 720 LINE",
"103 720 LINE",
"254 0 LINE"
);
}
);
width = 694;
}
);
leftKerningGroup = LAT_V_UC;
rightKerningGroup = LAT_V_UC;
unicode = 0056;
},
{
color = 9;
glyphname = W.ss06;
lastChange = "2020-06-14 07:17:22 +0000";
layers = (
{
anchors = (
{
name = bottom;
position = "{390, -24}";
},
{
name = top;
position = "{543, 754}";
}
);
layerId = "AB099EFE-E788-4EFC-8633-CF147CB782A6";
paths = (
{
closed = 1;
nodes = (
"211 0 LINE",
"349 292 LINE",
"520 658 LINE",
"524 658 LINE",
"547 292 LINE",
"570 0 LINE",
"607 0 LINE",
"944 720 LINE",
"911 720 LINE",
"714 290 LINE",
"599 40 LINE",
"595 40 LINE",
"579 290 LINE",
"548 720 LINE",
"521 720 LINE",
"318 290 LINE",
"200 40 LINE",
"196 40 LINE",
"183 290 LINE",
"158 720 LINE",
"124 720 LINE",
"171 0 LINE"
);
}
);
width = 884;
},
{
anchors = (
{
name = bottom;
position = "{424, -24}";
},
{
name = top;
position = "{575, 744}";
}
);
layerId = "2D8F7115-C311-411E-929D-56333CF7FFB2";
paths = (
{
closed = 1;
nodes = (
"300 0 LINE",
"429 236 LINE",
"512 396 LINE",
"508 396 LINE",
"527 236 LINE",
"561 0 LINE",
"737 0 LINE",
"1047 720 LINE",
"845 720 LINE",
"737 432 LINE",
"677 240 LINE",
"675 240 LINE",
"660 396 LINE",
"621 720 LINE",
"514 720 LINE",
"345 398 LINE",
"272 240 LINE",
"275 240 LINE",
"281 432 LINE",
"291 720 LINE",
"101 720 LINE",
"119 0 LINE"
);
}
);
width = 966;
},
{
anchors = (
{
name = bottom;
position = "{427, 0}";
},
{
name = top;
position = "{572, 720}";
}
);
associatedMasterId = "AB099EFE-E788-4EFC-8633-CF147CB782A6";
background = {
paths = (
{
closed = 1;
nodes = (
"198 0 LINE",
"328 0 LINE",
"400 262 LINE",
"470 536 LINE",
"474 536 LINE",
"544 262 LINE",
"616 0 LINE",
"746 0 LINE",
"924 720 LINE",
"808 720 LINE",
"724 352 LINE",
"674 132 LINE",
"672 132 LINE",
"620 344 LINE",
"520 720 LINE",
"424 720 LINE",
"324 346 LINE",
"274 132 LINE",
"270 132 LINE",
"220 352 LINE",
"138 720 LINE",
"20 720 LINE"
);
}
);
};
layerId = "4EB0F398-00BB-4F07-8BB1-D388A8938904";
name = "Half {450}";
paths = (
{
closed = 1;
nodes = (
"278 0 LINE",
"387 214 LINE",
"526 494 LINE",
"530 494 LINE",
"559 214 LINE",
"580 0 LINE",
"677 0 LINE",
"1020 720 LINE",
"915 720 LINE",
"744 350 LINE",
"663 164 LINE",
"659 164 LINE",
"639 364 LINE",
"602 720 LINE",
"544 720 LINE",
"361 364 LINE",
"265 164 LINE",
"261 164 LINE",
"254 350 LINE",
"231 720 LINE",
"124 720 LINE",
"183 0 LINE"
);
}
);
width = 938;
}
);
leftKerningGroup = LAT_W_UC;
rightKerningGroup = LAT_W_UC;
},
{
glyphname = X;
lastChange = "2020-06-16 09:44:49 +0000";
layers = (
{
anchors = (
{
name = bottom;
position = "{252, 0}";
},
{
name = top;
position = "{397, 720}";
}
);
layerId = "AB099EFE-E788-4EFC-8633-CF147CB782A6";
paths = (
{
closed = 1;
nodes = (
"37 0 LINE",
"323 339 LINE",
"327 339 LINE",
"348 356 LINE",
"348 360 LINE",
"647 720 LINE",
"608 720 LINE",
"331 386 LINE",
"327 386 LINE",
"306 368 LINE",
"306 364 LINE",
"-4 0 LINE"
);
},
{
closed = 1;
nodes = (
"509 0 LINE",
"348 358 LINE",
"348 362 LINE",
"333 386 LINE",
"329 386 LINE",
"167 720 LINE",
"134 720 LINE",
"306 366 LINE",
"306 362 LINE",
"321 339 LINE",
"325 339 LINE",
"475 0 LINE"
);
}
);
width = 610;
},
{
anchors = (
{
name = bottom;
position = "{318, 0}";
},
{
name = top;
position = "{463, 720}";
}
);
layerId = "2D8F7115-C311-411E-929D-56333CF7FFB2";
paths = (
{
closed = 1;
nodes = (
"201 0 LINE",
"370 228 LINE",
"373 228 LINE",
"511 347 LINE",
"511 349 LINE",
"803 720 LINE",
"579 720 LINE",
"409 476 LINE",
"406 476 LINE",
"270 373 LINE",
"270 371 LINE",
"-33 0 LINE"
);
},
{
closed = 1;
nodes = (
"664 0 LINE",
"511 345 LINE",
"511 347 LINE",
"415 476 LINE",
"411 476 LINE",
"316 720 LINE",
"118 720 LINE",
"270 375 LINE",
"270 373 LINE",
"369 228 LINE",
"372 228 LINE",
"466 0 LINE"
);
}
);
width = 738;
}
);
leftKerningGroup = LAT_X_UC;
rightKerningGroup = LAT_X_UC;
unicode = 0058;
},
{
glyphname = Y;
lastChange = "2020-06-16 08:20:33 +0000";
layers = (
{
anchors = (
{
name = bottom;
position = "{239, 0}";
},
{
name = top;
position = "{382, 720}";
}
);
layerId = "AB099EFE-E788-4EFC-8633-CF147CB782A6";
paths = (
{
closed = 1;
nodes = (
"255 0 LINE",
"322 329 LINE",
"640 720 LINE",
"601 720 LINE",
"431 510 LINE",
"313 366 LINE",
"309 366 LINE",
"246 510 LINE",
"156 720 LINE",
"124 720 LINE",
"290 333 LINE",
"222 0 LINE"
);
}
);
width = 580;
},
{
anchors = (
{
name = bottom;
position = "{280, 0}";
},
{
name = top;
position = "{411, 720}";
}
);
layerId = "2D8F7115-C311-411E-929D-56333CF7FFB2";
paths = (
{
closed = 1;
nodes = (
"372 0 LINE",
"424 262 LINE",
"755 720 LINE",
"527 720 LINE",
"450 586 LINE",
"362 442 LINE",
"360 442 LINE",
"325 586 LINE",
"287 720 LINE",
"95 720 LINE",
"242 271 LINE",
"188 0 LINE"
);
}
);
width = 668;
}
);
leftKerningGroup = LAT_Y_UC;
rightKerningGroup = LAT_Y_UC;
unicode = 0059;
},
{
glyphname = Z;
lastChange = "2020-06-14 07:13:58 +0000";
layers = (
{
anchors = (
{
name = bottom;
position = "{260, 0}";
},
{
name = top;
position = "{401, 720}";
}
);
guideLines = (
{
angle = 58;
position = "{135, 112}";
}
);
layerId = "AB099EFE-E788-4EFC-8633-CF147CB782A6";
paths = (
{
closed = 1;
nodes = (
"473 0 LINE",
"478 30 LINE",
"68 30 LINE",
"70 32 LINE",
"600 702 LINE",
"604 720 LINE",
"178 720 LINE",
"170 690 LINE",
"548 690 LINE",
"548 688 LINE",
"21 18 LINE",
"17 0 LINE"
);
}
);
width = 592;
},
{
anchors = (
{
name = bottom;
position = "{252, 0}";
},
{
name = top;
position = "{397, 720}";
}
);
guideLines = (
{
angle = 63;
position = "{129, 112}";
}
);
layerId = "2D8F7115-C311-411E-929D-56333CF7FFB2";
paths = (
{
closed = 1;
nodes = (
"525 0 LINE",
"557 158 LINE",
"284 158 LINE",
"287 160 LINE",
"652 694 LINE",
"658 720 LINE",
"142 720 LINE",
"107 562 LINE",
"355 562 LINE",
"352 560 LINE",
"-14 24 LINE",
"-17 0 LINE"
);
}
);
width = 612;
}
);
leftKerningGroup = LAT_Z_UC;
rightKerningGroup = LAT_Z_UC;
unicode = 005A;
},
{
export = 0;
glyphname = C.001;
lastChange = "2020-06-16 12:08:53 +0000";
layers = (
{
anchors = (
{
name = base;
position = "{373, 0}";
},
{
name = bottom;
position = "{353, 0}";
},
{
name = cedilla;
position = "{353, 0}";
},
{
name = top;
position = "{497, 720}";
}
);
layerId = "AB099EFE-E788-4EFC-8633-CF147CB782A6";
paths = (
{
closed = 1;
nodes = (
"621 146 LINE",
"573 79 OFFCURVE",
"464 20 OFFCURVE",
"354 20 CURVE SMOOTH",
"189 20 OFFCURVE",
"74 163 OFFCURVE",
"113 357 CURVE SMOOTH",
"153 559 OFFCURVE",
"337 698 OFFCURVE",
"498 698 CURVE SMOOTH",
"597 698 OFFCURVE",
"686 649 OFFCURVE",
"713 574 CURVE",
"743 586 LINE",
"717 661 OFFCURVE",
"619 728 OFFCURVE",
"499 728 CURVE SMOOTH",
"318 728 OFFCURVE",
"126 577 OFFCURVE",
"83 363 CURVE SMOOTH",
"40 149 OFFCURVE",
"167 -8 OFFCURVE",
"353 -8 CURVE SMOOTH",
"458 -8 OFFCURVE",
"579 43 OFFCURVE",
"645 122 CURVE"
);
}
);
width = 713;
},
{
anchors = (
{
name = base;
position = "{361, 0}";
},
{
name = bottom;
position = "{353, 0}";
},
{
name = cedilla;
position = "{365, 0}";
},
{
name = top;
position = "{496, 720}";
}
);
layerId = "2D8F7115-C311-411E-929D-56333CF7FFB2";
paths = (
{
closed = 1;
nodes = (
"561 244 LINE",
"530 198 OFFCURVE",
"451 144 OFFCURVE",
"373 144 CURVE SMOOTH",
"263 144 OFFCURVE",
"199 230 OFFCURVE",
"222 346 CURVE SMOOTH",
"248 476 OFFCURVE",
"360 576 OFFCURVE",
"478 576 CURVE SMOOTH",
"540 576 OFFCURVE",
"600 545 OFFCURVE",
"612 496 CURVE",
"776 554 LINE",
"747 656 OFFCURVE",
"621 732 OFFCURVE",
"489 732 CURVE SMOOTH",
"282 732 OFFCURVE",
"91 582 OFFCURVE",
"50 377 CURVE SMOOTH",
"5 152 OFFCURVE",
"145 -8 OFFCURVE",
"359 -8 CURVE SMOOTH",
"497 -8 OFFCURVE",
"648 58 OFFCURVE",
"715 166 CURVE"
);
}
);
width = 734;
},
{
anchors = (
{
name = base;
position = "{350, 0}";
},
{
name = bottom;
position = "{340, 0}";
},
{
name = cedilla;
position = "{342, 0}";
},
{
name = top;
position = "{504, 720}";
}
);
associatedMasterId = "AB099EFE-E788-4EFC-8633-CF147CB782A6";
layerId = "0C70BBED-6CBF-4E45-B429-2F50D50C94E8";
name = "Half {450}";
paths = (
{
closed = 1;
nodes = (
"580 194 LINE",
"522 122 OFFCURVE",
"442 82 OFFCURVE",
"356 82 CURVE SMOOTH",
"220 82 OFFCURVE",
"130 194 OFFCURVE",
"168 358 CURVE SMOOTH",
"206 520 OFFCURVE",
"342 636 OFFCURVE",
"486 638 CURVE SMOOTH",
"572 638 OFFCURVE",
"634 596 OFFCURVE",
"658 530 CURVE",
"756 574 LINE",
"720 672 OFFCURVE",
"628 730 OFFCURVE",
"504 730 CURVE SMOOTH",
"302 730 OFFCURVE",
"112 580 OFFCURVE",
"64 362 CURVE SMOOTH",
"12 140 OFFCURVE",
"144 -8 OFFCURVE",
"344 -8 CURVE SMOOTH",
"472 -8 OFFCURVE",
"588 52 OFFCURVE",
"664 148 CURVE"
);
}
);
width = 722;
}
);
leftKerningGroup = LAT_O_UC;
leftMetricsKey = O;
rightKerningGroup = LAT_C_UC;
},
{
export = 0;
glyphname = C.002;
lastChange = "2020-06-16 12:08:53 +0000";
layers = (
{
anchors = (
{
name = base;
position = "{373, 0}";
},
{
name = bottom;
position = "{353, 0}";
},
{
name = cedilla;
position = "{353, 0}";
},
{
name = top;
position = "{497, 720}";
}
);
background = {
paths = (
{
closed = 1;
nodes = (
"639 144 LINE",
"602 78 OFFCURVE",
"506 21 OFFCURVE",
"399 20 CURVE SMOOTH",
"230 21 OFFCURVE",
"86 164 OFFCURVE",
"87 360 CURVE SMOOTH",
"86 559 OFFCURVE",
"240 699 OFFCURVE",
"401 698 CURVE SMOOTH",
"499 699 OFFCURVE",
"600 647 OFFCURVE",
"643 572 CURVE",
"671 588 LINE",
"629 662 OFFCURVE",
"520 728 OFFCURVE",
"401 728 CURVE SMOOTH",
"218 728 OFFCURVE",
"53 576 OFFCURVE",
"55 360 CURVE SMOOTH",
"53 148 OFFCURVE",
"212 -8 OFFCURVE",
"397 -8 CURVE SMOOTH",
"504 -8 OFFCURVE",
"613 43 OFFCURVE",
"665 124 CURVE"
);
}
);
};
layerId = "AB099EFE-E788-4EFC-8633-CF147CB782A6";
paths = (
{
closed = 1;
nodes = (
"440 -8 OFFCURVE",
"535 25 OFFCURVE",
"603 80 CURVE",
"586 110 LINE",
"532 59 OFFCURVE",
"445 22 OFFCURVE",
"356 22 CURVE SMOOTH",
"190 22 OFFCURVE",
"74 163 OFFCURVE",
"113 357 CURVE SMOOTH",
"153 559 OFFCURVE",
"337 698 OFFCURVE",
"498 698 CURVE SMOOTH",
"574 698 OFFCURVE",
"649 669 OFFCURVE",
"688 618 CURVE",
"711 642 LINE",
"667 691 OFFCURVE",
"590 728 OFFCURVE",
"499 728 CURVE SMOOTH",
"318 728 OFFCURVE",
"126 577 OFFCURVE",
"83 363 CURVE SMOOTH",
"40 149 OFFCURVE",
"167 -8 OFFCURVE",
"353 -8 CURVE SMOOTH"
);
}
);
width = 671;
},
{
anchors = (
{
name = base;
position = "{361, 0}";
},
{
name = bottom;
position = "{353, 0}";
},
{
name = cedilla;
position = "{365, 0}";
},
{
name = top;
position = "{496, 720}";
}
);
background = {
paths = (
{
closed = 1;
nodes = (
"565 236 LINE",
"542 189 OFFCURVE",
"476 144 OFFCURVE",
"403 144 CURVE SMOOTH",
"289 144 OFFCURVE",
"202 238 OFFCURVE",
"203 362 CURVE SMOOTH",
"202 483 OFFCURVE",
"289 576 OFFCURVE",
"403 576 CURVE SMOOTH",
"470 576 OFFCURVE",
"538 539 OFFCURVE",
"561 488 CURVE",
"717 562 LINE",
"667 664 OFFCURVE",
"529 732 OFFCURVE",
"401 732 CURVE SMOOTH",
"186 732 OFFCURVE",
"24 571 OFFCURVE",
"23 360 CURVE SMOOTH",
"24 148 OFFCURVE",
"188 -8 OFFCURVE",
"403 -8 CURVE SMOOTH",
"544 -8 OFFCURVE",
"683 66 OFFCURVE",
"729 174 CURVE"
);
}
);
};
backgroundImage = {
crop = "{{21.78, 0}, {150.366, 213}}";
imagePath = ../../Ideation/Client/image_480.png;
locked = "1";
transform = "{4.775, 0, 2.16971, 4.775, -293, -146}";
};
layerId = "2D8F7115-C311-411E-929D-56333CF7FFB2";
paths = (
{
closed = 1;
nodes = (
"451 -8 OFFCURVE",
"553 18 OFFCURVE",
"627 76 CURVE",
"539 216 LINE",
"508 184 OFFCURVE",
"441 152 OFFCURVE",
"375 152 CURVE SMOOTH",
"265 152 OFFCURVE",
"199 230 OFFCURVE",
"222 346 CURVE SMOOTH",
"248 476 OFFCURVE",
"358 568 OFFCURVE",
"476 568 CURVE SMOOTH",
"530 568 OFFCURVE",
"582 550 OFFCURVE",
"605 514 CURVE",
"730 630 LINE",
"675 688 OFFCURVE",
"584 728 OFFCURVE",
"487 728 CURVE SMOOTH",
"282 728 OFFCURVE",
"91 582 OFFCURVE",
"50 377 CURVE SMOOTH",
"5 152 OFFCURVE",
"145 -8 OFFCURVE",
"359 -8 CURVE SMOOTH"
);
}
);
width = 674;
},
{
anchors = (
{
name = base;
position = "{350, 0}";
},
{
name = bottom;
position = "{340, 0}";
},
{
name = cedilla;
position = "{342, 0}";
},
{
name = top;
position = "{504, 720}";
}
);
associatedMasterId = "AB099EFE-E788-4EFC-8633-CF147CB782A6";
background = {
paths = (
{
closed = 1;
nodes = (
"596 192 LINE",
"553 121 OFFCURVE",
"483 82 OFFCURVE",
"400 82 CURVE SMOOTH",
"261 82 OFFCURVE",
"146 195 OFFCURVE",
"146 360 CURVE SMOOTH",
"146 522 OFFCURVE",
"255 637 OFFCURVE",
"398 638 CURVE SMOOTH",
"485 637 OFFCURVE",
"557 594 OFFCURVE",
"596 528 CURVE",
"684 576 LINE",
"627 674 OFFCURVE",
"522 730 OFFCURVE",
"400 730 CURVE SMOOTH",
"197 730 OFFCURVE",
"39 578 OFFCURVE",
"40 360 CURVE SMOOTH",
"39 138 OFFCURVE",
"203 -8 OFFCURVE",
"402 -8 CURVE SMOOTH",
"532 -8 OFFCURVE",
"635 53 OFFCURVE",
"688 150 CURVE"
);
}
);
};
layerId = "0C70BBED-6CBF-4E45-B429-2F50D50C94E8";
name = "Half {450}";
paths = (
{
closed = 1;
nodes = (
"448 -8 OFFCURVE",
"540 30 OFFCURVE",
"612 92 CURVE",
"556 170 LINE",
"502 118 OFFCURVE",
"436 82 OFFCURVE",
"356 82 CURVE SMOOTH",
"220 82 OFFCURVE",
"128 194 OFFCURVE",
"166 358 CURVE SMOOTH",
"204 520 OFFCURVE",
"342 636 OFFCURVE",
"486 638 CURVE SMOOTH",
"568 638 OFFCURVE",
"614 600 OFFCURVE",
"644 556 CURVE",
"728 626 LINE",
"684 690 OFFCURVE",
"610 730 OFFCURVE",
"504 730 CURVE SMOOTH",
"302 730 OFFCURVE",
"112 580 OFFCURVE",
"64 362 CURVE SMOOTH",
"12 140 OFFCURVE",
"144 -8 OFFCURVE",
"344 -8 CURVE SMOOTH"
);
}
);
width = 682;
}
);
leftKerningGroup = LAT_O_UC;
leftMetricsKey = O;
rightKerningGroup = LAT_C_UC;
},
{
export = 0;
glyphname = G.001;
lastChange = "2020-06-16 12:08:53 +0000";
layers = (
{
anchors = (
{
name = bottom;
position = "{339, 0}";
},
{
name = hook;
position = "{714, 616}";
},
{
name = top;
position = "{483, 720}";
}
);
layerId = "AB099EFE-E788-4EFC-8633-CF147CB782A6";
paths = (
{
closed = 1;
nodes = (
"526 18 OFFCURVE",
"352 18 CURVE SMOOTH",
"179 18 OFFCURVE",
"75 163 OFFCURVE",
"113 356 CURVE SMOOTH",
"152 554 OFFCURVE",
"315 698 OFFCURVE",
"488 698 CURVE SMOOTH",
"581 698 OFFCURVE",
"663 658 OFFCURVE",
"697 576 CURVE",
"727 586 LINE",
"689 675 OFFCURVE",
"596 728 OFFCURVE",
"485 728 CURVE SMOOTH",
"297 728 OFFCURVE",
"125 572 OFFCURVE",
"83 362 CURVE SMOOTH",
"39 144 OFFCURVE",
"162 -8 OFFCURVE",
"349 -8 CURVE SMOOTH",
"537 -8 OFFCURVE",
"674 134 OFFCURVE",
"714 340 CURVE SMOOTH",
"719 366 LINE",
"399 366 LINE",
"394 338 LINE",
"682 340 LINE",
"648 166 OFFCURVE"
);
}
);
width = 755;
},
{
anchors = (
{
name = bottom;
position = "{339, 0}";
},
{
name = hook;
position = "{724, 638}";
},
{
name = top;
position = "{484, 720}";
}
);
layerId = "2D8F7115-C311-411E-929D-56333CF7FFB2";
paths = (
{
closed = 1;
nodes = (
"470 144 OFFCURVE",
"375 144 CURVE SMOOTH",
"257 144 OFFCURVE",
"199 231 OFFCURVE",
"222 345 CURVE SMOOTH",
"249 480 OFFCURVE",
"356 576 OFFCURVE",
"466 576 CURVE SMOOTH",
"528 576 OFFCURVE",
"582 550 OFFCURVE",
"602 502 CURVE",
"766 558 LINE",
"725 662 OFFCURVE",
"621 732 OFFCURVE",
"481 732 CURVE SMOOTH",
"279 732 OFFCURVE",
"92 585 OFFCURVE",
"50 377 CURVE SMOOTH",
"3 146 OFFCURVE",
"142 -8 OFFCURVE",
"357 -8 CURVE SMOOTH",
"553 -8 OFFCURVE",
"706 112 OFFCURVE",
"740 282 CURVE SMOOTH",
"766 412 LINE",
"414 410 LINE",
"386 272 LINE",
"576 280 LINE",
"562 209 OFFCURVE"
);
}
);
width = 762;
},
{
anchors = (
{
name = bottom;
position = "{336, 0}";
},
{
name = hook;
position = "{704, 554}";
},
{
name = top;
position = "{492, 720}";
}
);
associatedMasterId = "AB099EFE-E788-4EFC-8633-CF147CB782A6";
layerId = "468E3CD5-7719-4A9D-BC7F-DB35573366CF";
name = "Half {450}";
paths = (
{
closed = 1;
nodes = (
"486 80 OFFCURVE",
"354 82 CURVE SMOOTH",
"212 82 OFFCURVE",
"130 196 OFFCURVE",
"168 360 CURVE SMOOTH",
"206 518 OFFCURVE",
"336 636 OFFCURVE",
"476 638 CURVE SMOOTH",
"556 638 OFFCURVE",
"620 600 OFFCURVE",
"646 536 CURVE",
"748 574 LINE",
"712 672 OFFCURVE",
"614 730 OFFCURVE",
"492 730 CURVE SMOOTH",
"296 730 OFFCURVE",
"110 574 OFFCURVE",
"64 362 CURVE SMOOTH",
"12 142 OFFCURVE",
"134 -12 OFFCURVE",
"338 -8 CURVE SMOOTH",
"528 -12 OFFCURVE",
"678 126 OFFCURVE",
"722 314 CURVE SMOOTH",
"740 392 LINE",
"404 392 LINE",
"384 300 LINE",
"616 302 LINE",
"586 180 OFFCURVE"
);
}
);
width = 758;
}
);
leftKerningGroup = LAT_O_UC;
leftMetricsKey = O;
rightKerningGroup = LAT_G_UC;
},
{
export = 0;
glyphname = G.002;
lastChange = "2020-06-16 12:08:53 +0000";
layers = (
{
anchors = (
{
name = bottom;
position = "{337, 0}";
},
{
name = hook;
position = "{709, 642}";
},
{
name = top;
position = "{481, 720}";
}
);
background = {
paths = (
{
closed = 1;
nodes = (
"657 164 OFFCURVE",
"566 18 OFFCURVE",
"393 18 CURVE SMOOTH",
"223 18 OFFCURVE",
"85 160 OFFCURVE",
"85 360 CURVE SMOOTH",
"85 551 OFFCURVE",
"213 699 OFFCURVE",
"387 698 CURVE SMOOTH",
"482 699 OFFCURVE",
"572 656 OFFCURVE",
"623 574 CURVE",
"653 588 LINE",
"597 678 OFFCURVE",
"492 728 OFFCURVE",
"385 728 CURVE SMOOTH",
"194 728 OFFCURVE",
"52 569 OFFCURVE",
"53 360 CURVE SMOOTH",
"52 142 OFFCURVE",
"204 -8 OFFCURVE",
"391 -8 CURVE SMOOTH",
"579 -8 OFFCURVE",
"690 136 OFFCURVE",
"689 342 CURVE SMOOTH",
"689 366 LINE",
"369 366 LINE",
"369 338 LINE",
"657 338 LINE"
);
}
);
};
layerId = "AB099EFE-E788-4EFC-8633-CF147CB782A6";
paths = (
{
closed = 1;
nodes = (
"537 -8 OFFCURVE",
"674 134 OFFCURVE",
"714 340 CURVE SMOOTH",
"719 366 LINE",
"399 366 LINE",
"394 338 LINE",
"682 340 LINE",
"648 166 OFFCURVE",
"528 20 OFFCURVE",
"352 20 CURVE SMOOTH",
"182 20 OFFCURVE",
"75 161 OFFCURVE",
"113 356 CURVE SMOOTH",
"152 554 OFFCURVE",
"315 698 OFFCURVE",
"494 698 CURVE SMOOTH",
"575 698 OFFCURVE",
"647 670 OFFCURVE",
"686 618 CURVE",
"709 642 LINE",
"666 692 OFFCURVE",
"589 728 OFFCURVE",
"491 728 CURVE SMOOTH",
"295 728 OFFCURVE",
"125 572 OFFCURVE",
"83 362 CURVE SMOOTH",
"39 144 OFFCURVE",
"162 -8 OFFCURVE",
"349 -8 CURVE SMOOTH"
);
}
);
width = 759;
},
{
anchors = (
{
name = bottom;
position = "{341, 0}";
},
{
name = hook;
position = "{736, 640}";
},
{
name = top;
position = "{486, 720}";
}
);
background = {
paths = (
{
closed = 1;
nodes = (
"571 200 OFFCURVE",
"496 144 OFFCURVE",
"409 144 CURVE SMOOTH",
"287 144 OFFCURVE",
"205 236 OFFCURVE",
"205 362 CURVE SMOOTH",
"205 487 OFFCURVE",
"287 576 OFFCURVE",
"393 576 CURVE SMOOTH",
"459 576 OFFCURVE",
"521 543 OFFCURVE",
"551 496 CURVE",
"709 564 LINE",
"646 668 OFFCURVE",
"531 732 OFFCURVE",
"395 732 CURVE SMOOTH",
"188 732 OFFCURVE",
"26 578 OFFCURVE",
"25 360 CURVE SMOOTH",
"26 140 OFFCURVE",
"188 -8 OFFCURVE",
"403 -8 CURVE SMOOTH",
"603 -8 OFFCURVE",
"735 119 OFFCURVE",
"735 290 CURVE SMOOTH",
"735 412 LINE",
"383 410 LINE",
"383 272 LINE",
"571 272 LINE"
);
}
);
};
layerId = "2D8F7115-C311-411E-929D-56333CF7FFB2";
paths = (
{
closed = 1;
nodes = (
"553 -8 OFFCURVE",
"706 112 OFFCURVE",
"740 282 CURVE SMOOTH",
"766 412 LINE",
"414 410 LINE",
"386 272 LINE",
"576 280 LINE",
"562 209 OFFCURVE",
"472 148 OFFCURVE",
"377 148 CURVE SMOOTH",
"259 148 OFFCURVE",
"199 231 OFFCURVE",
"222 345 CURVE SMOOTH",
"251 486 OFFCURVE",
"359 568 OFFCURVE",
"470 568 CURVE SMOOTH",
"532 568 OFFCURVE",
"584 550 OFFCURVE",
"605 514 CURVE",
"732 630 LINE",
"677 688 OFFCURVE",
"586 728 OFFCURVE",
"485 728 CURVE SMOOTH",
"281 728 OFFCURVE",
"92 585 OFFCURVE",
"50 377 CURVE SMOOTH",
"3 146 OFFCURVE",
"142 -8 OFFCURVE",
"357 -8 CURVE SMOOTH"
);
}
);
width = 762;
},
{
anchors = (
{
name = bottom;
position = "{332, 0}";
},
{
name = hook;
position = "{700, 554}";
},
{
name = top;
position = "{488, 720}";
}
);
associatedMasterId = "AB099EFE-E788-4EFC-8633-CF147CB782A6";
background = {
paths = (
{
closed = 1;
nodes = (
"526 81 OFFCURVE",
"396 82 CURVE SMOOTH",
"252 83 OFFCURVE",
"143 198 OFFCURVE",
"144 362 CURVE SMOOTH",
"145 520 OFFCURVE",
"247 637 OFFCURVE",
"386 638 CURVE SMOOTH",
"467 637 OFFCURVE",
"540 599 OFFCURVE",
"580 534 CURVE",
"674 576 LINE",
"617 673 OFFCURVE",
"507 730 OFFCURVE",
"386 730 CURVE SMOOTH",
"188 730 OFFCURVE",
"37 573 OFFCURVE",
"36 360 CURVE SMOOTH",
"37 141 OFFCURVE",
"193 -11 OFFCURVE",
"394 -8 CURVE SMOOTH",
"586 -13 OFFCURVE",
"707 127 OFFCURVE",
"708 316 CURVE SMOOTH",
"708 392 LINE",
"372 392 LINE",
"372 300 LINE",
"604 300 LINE",
"603 178 OFFCURVE"
);
}
);
};
layerId = "468E3CD5-7719-4A9D-BC7F-DB35573366CF";
name = "Half {450}";
paths = (
{
closed = 1;
nodes = (
"526 -8 OFFCURVE",
"678 126 OFFCURVE",
"720 314 CURVE SMOOTH",
"738 392 LINE",
"404 392 LINE",
"384 300 LINE",
"614 302 LINE",
"586 180 OFFCURVE",
"484 80 OFFCURVE",
"352 80 CURVE SMOOTH",
"212 80 OFFCURVE",
"130 196 OFFCURVE",
"166 360 CURVE SMOOTH",
"202 518 OFFCURVE",
"338 638 OFFCURVE",
"480 638 CURVE SMOOTH",
"566 638 OFFCURVE",
"610 600 OFFCURVE",
"640 556 CURVE",
"724 626 LINE",
"682 690 OFFCURVE",
"604 730 OFFCURVE",
"494 730 CURVE SMOOTH",
"294 730 OFFCURVE",
"112 574 OFFCURVE",
"64 362 CURVE SMOOTH",
"14 144 OFFCURVE",
"134 -8 OFFCURVE",
"336 -8 CURVE SMOOTH"
);
}
);
width = 748;
}
);
leftKerningGroup = LAT_O_UC;
leftMetricsKey = O;
rightKerningGroup = LAT_G_UC;
},
{
export = 0;
glyphname = IJ;
lastChange = "2020-06-13 05:34:15 +0000";
layers = (
{
anchors = (
{
name = bottom;
position = "{406, -24}";
},
{
name = top;
position = "{667, 750}";
}
);
components = (
{
name = I;
transform = "{1, 0, 0, 1, 13, 0}";
}
);
layerId = "AB099EFE-E788-4EFC-8633-CF147CB782A6";
paths = (
{
closed = 1;
nodes = (
"272 -214 OFFCURVE",
"325 -152 OFFCURVE",
"341 -70 CURVE SMOOTH",
"498 716 LINE",
"464 716 LINE",
"306 -70 LINE SMOOTH",
"294 -128 OFFCURVE",
"254 -184 OFFCURVE",
"176 -184 CURVE SMOOTH",
"134 -184 OFFCURVE",
"95 -171 OFFCURVE",
"73 -156 CURVE",
"62 -188 LINE",
"100 -207 OFFCURVE",
"138 -214 OFFCURVE",
"177 -214 CURVE SMOOTH"
);
}
);
width = 512;
},
{
anchors = (
{
name = bottom;
position = "{566, -24}";
},
{
name = top;
position = "{811, 740}";
}
);
components = (
{
name = I;
transform = "{1, 0, 0, 1, -5, 0}";
}
);
layerId = "2D8F7115-C311-411E-929D-56333CF7FFB2";
paths = (
{
closed = 1;
nodes = (
"400 -218 OFFCURVE",
"484 -136 OFFCURVE",
"508 -14 CURVE SMOOTH",
"653 716 LINE",
"475 716 LINE",
"337 18 LINE SMOOTH",
"327 -34 OFFCURVE",
"281 -64 OFFCURVE",
"217 -64 CURVE SMOOTH",
"194 -64 OFFCURVE",
"151 -62 OFFCURVE",
"118 -44 CURVE",
"56 -190 LINE",
"103 -207 OFFCURVE",
"180 -218 OFFCURVE",
"241 -218 CURVE SMOOTH"
);
}
);
width = 646;
}
);
leftKerningGroup = LAT_I_UC;
rightKerningGroup = LAT_I_UC;
unicode = 0132;
},
{
export = 0;
glyphname = Q.001;
lastChange = "2020-06-13 05:34:15 +0000";
layers = (
{
anchors = (
{
name = bottom;
position = "{294, -206}";
},
{
name = top;
position = "{479, 720}";
}
);
components = (
{
name = O;
transform = "{1, 0, 0, 1, -2, 0}";
}
);
layerId = "AB099EFE-E788-4EFC-8633-CF147CB782A6";
paths = (
{
closed = 1;
nodes = (
"305 -56 LINE SMOOTH",
"292 -120 OFFCURVE",
"330 -164 OFFCURVE",
"397 -164 CURVE SMOOTH",
"410 -164 OFFCURVE",
"423 -162 OFFCURVE",
"435 -158 CURVE",
"432 -130 LINE",
"422 -132 OFFCURVE",
"408 -134 OFFCURVE",
"396 -134 CURVE SMOOTH",
"357 -134 OFFCURVE",
"328 -116 OFFCURVE",
"337 -70 CURVE SMOOTH",
"352 8 LINE",
"318 8 LINE"
);
}
);
width = 790;
},
{
anchors = (
{
name = bottom;
position = "{296, -206}";
},
{
name = top;
position = "{481, 720}";
}
);
components = (
{
name = O;
transform = "{1, 0, 0, 1, -1, 0}";
}
);
layerId = "2D8F7115-C311-411E-929D-56333CF7FFB2";
paths = (
{
closed = 1;
nodes = (
"263 -46 LINE SMOOTH",
"246 -134 OFFCURVE",
"311 -210 OFFCURVE",
"410 -210 CURVE SMOOTH",
"422 -210 OFFCURVE",
"460 -210 OFFCURVE",
"484 -204 CURVE",
"494 -54 LINE",
"484 -58 OFFCURVE",
"452 -62 OFFCURVE",
"432 -62 CURVE SMOOTH",
"395 -62 OFFCURVE",
"378 -54 OFFCURVE",
"383 -30 CURVE SMOOTH",
"396 32 LINE",
"278 32 LINE"
);
}
);
width = 798;
},
{
anchors = (
{
name = bottom;
position = "{294, -206}";
},
{
name = top;
position = "{504, 720}";
}
);
associatedMasterId = "AB099EFE-E788-4EFC-8633-CF147CB782A6";
components = (
{
alignment = -1;
name = O;
}
);
layerId = "5F397B99-8889-4A27-BB1C-6FD1F8D7B180";
name = "Half {450}";
paths = (
{
closed = 1;
nodes = (
"282 -54 LINE SMOOTH",
"266 -130 OFFCURVE",
"304 -186 OFFCURVE",
"388 -188 CURVE SMOOTH",
"404 -188 OFFCURVE",
"432 -184 OFFCURVE",
"452 -178 CURVE",
"462 -92 LINE",
"448 -98 OFFCURVE",
"420 -102 OFFCURVE",
"406 -100 CURVE SMOOTH",
"372 -100 OFFCURVE",
"362 -80 OFFCURVE",
"370 -48 CURVE SMOOTH",
"386 20 LINE",
"300 20 LINE"
);
}
);
width = 800;
}
);
leftKerningGroup = LAT_O_UC;
rightKerningGroup = LAT_O_UC;
},
{
export = 0;
glyphname = Q.002;
lastChange = "2020-06-13 05:34:15 +0000";
layers = (
{
anchors = (
{
name = bottom;
position = "{343, 0}";
},
{
name = top;
position = "{486, 720}";
}
);
components = (
{
name = O;
transform = "{1, 0, 0, 1, 5, 0}";
}
);
layerId = "AB099EFE-E788-4EFC-8633-CF147CB782A6";
paths = (
{
closed = 1;
nodes = (
"592 -26 LINE",
"557 70 LINE",
"553 82 LINE",
"506 208 LINE",
"478 192 LINE",
"526 62 LINE",
"530 52 LINE",
"560 -44 LINE"
);
}
);
width = 790;
},
{
anchors = (
{
name = bottom;
position = "{348, 0}";
},
{
name = top;
position = "{492, 720}";
}
);
components = (
{
alignment = -1;
name = O;
transform = "{1, 0, 0, 1, 8, 0}";
}
);
layerId = "2D8F7115-C311-411E-929D-56333CF7FFB2";
paths = (
{
closed = 1;
nodes = (
"660 0 LINE",
"619 96 LINE",
"560 206 LINE",
"506 348 LINE",
"372 280 LINE",
"441 106 LINE",
"491 20 LINE",
"525 -68 LINE"
);
}
);
width = 806;
},
{
anchors = (
{
name = bottom;
position = "{338, 0}";
},
{
name = top;
position = "{500, 720}";
}
);
associatedMasterId = "AB099EFE-E788-4EFC-8633-CF147CB782A6";
components = (
{
alignment = -1;
name = O;
}
);
guideLines = (
{
angle = 22.5;
position = "{538, -10}";
},
{
angle = 150;
position = "{552, 0}";
}
);
layerId = "5F397B99-8889-4A27-BB1C-6FD1F8D7B180";
name = "Half {450}";
paths = (
{
closed = 1;
nodes = (
"600 -42 LINE",
"564 64 LINE",
"552 98 LINE",
"498 256 LINE",
"400 208 LINE",
"444 80 LINE",
"460 32 LINE",
"502 -90 LINE"
);
}
);
width = 794;
}
);
leftKerningGroup = LAT_O_UC;
rightKerningGroup = LAT_O_UC;
},
{
export = 0;
glyphname = Q.003;
lastChange = "2020-06-13 05:34:15 +0000";
layers = (
{
anchors = (
{
name = bottom;
position = "{302, -206}";
},
{
name = top;
position = "{487, 720}";
}
);
components = (
{
name = O;
transform = "{1, 0, 0, 1, 6, 0}";
}
);
layerId = "AB099EFE-E788-4EFC-8633-CF147CB782A6";
paths = (
{
closed = 1;
nodes = (
"612 8 LINE",
"567 104 LINE",
"561 118 LINE",
"502 242 LINE",
"472 226 LINE",
"536 96 LINE",
"542 86 LINE",
"582 -8 LINE"
);
}
);
width = 790;
},
{
anchors = (
{
name = bottom;
position = "{305, -206}";
},
{
name = top;
position = "{490, 720}";
}
);
components = (
{
alignment = -1;
name = O;
transform = "{1, 0, 0, 1, 8, 0}";
}
);
layerId = "2D8F7115-C311-411E-929D-56333CF7FFB2";
paths = (
{
closed = 1;
nodes = (
"716 58 LINE",
"654 138 LINE",
"566 226 LINE",
"478 368 LINE",
"358 284 LINE",
"468 128 LINE",
"544 62 LINE",
"598 -26 LINE"
);
}
);
width = 804;
},
{
anchors = (
{
name = bottom;
position = "{290, -206}";
},
{
name = top;
position = "{500, 720}";
}
);
associatedMasterId = "AB099EFE-E788-4EFC-8633-CF147CB782A6";
components = (
{
alignment = -1;
name = O;
}
);
guideLines = (
{
angle = 60;
position = "{552, 0}";
},
{
angle = 150;
position = "{552, 0}";
}
);
layerId = "5F397B99-8889-4A27-BB1C-6FD1F8D7B180";
name = "Half {450}";
paths = (
{
closed = 1;
nodes = (
"692 50 LINE",
"634 130 LINE",
"600 160 LINE",
"498 300 LINE",
"414 240 LINE",
"518 98 LINE",
"550 66 LINE",
"606 -8 LINE"
);
}
);
width = 794;
}
);
leftKerningGroup = LAT_O_UC;
rightKerningGroup = LAT_O_UC;
},
{
export = 0;
glyphname = Q.archive;
lastChange = "2020-06-16 12:08:53 +0000";
layers = (
{
anchors = (
{
name = bottom;
position = "{344, 0}";
},
{
name = top;
position = "{484, 720}";
}
);
components = (
{
name = O;
}
);
guideLines = (
{
angle = 22.5;
position = "{553, 0}";
}
);
layerId = "AB099EFE-E788-4EFC-8633-CF147CB782A6";
paths = (
{
closed = 1;
nodes = (
"618 0 LINE",
"574 84 LINE",
"569 92 LINE",
"479 268 LINE",
"449 256 LINE",
"544 74 LINE",
"548 66 LINE",
"588 -12 LINE"
);
}
);
width = 768;
},
{
anchors = (
{
name = bottom;
position = "{342, 0}";
},
{
name = top;
position = "{487, 720}";
}
);
components = (
{
name = O;
}
);
guideLines = (
{
angle = 22.5;
position = "{549, 0}";
}
);
layerId = "2D8F7115-C311-411E-929D-56333CF7FFB2";
paths = (
{
closed = 1;
nodes = (
"706 12 LINE",
"626 144 LINE",
"548 220 LINE",
"494 320 LINE",
"335 266 LINE",
"418 156 LINE",
"488 98 LINE",
"569 -42 LINE"
);
}
);
width = 793;
},
{
anchors = (
{
name = bottom;
position = "{340, 0}";
},
{
name = top;
position = "{506, 720}";
}
);
associatedMasterId = "AB099EFE-E788-4EFC-8633-CF147CB782A6";
components = (
{
alignment = -1;
name = O;
}
);
guideLines = (
{
angle = 120;
position = "{498, 0}";
},
{
angle = 22.5;
position = "{622, 10}";
}
);
layerId = "5F397B99-8889-4A27-BB1C-6FD1F8D7B180";
name = "Half {450}";
paths = (
{
closed = 1;
nodes = (
"678 10 LINE",
"620 118 LINE",
"590 160 LINE",
"514 308 LINE",
"424 274 LINE",
"508 116 LINE",
"536 82 LINE",
"588 -24 LINE"
);
}
);
width = 802;
}
);
leftKerningGroup = LAT_O_UC;
leftMetricsKey = O;
rightKerningGroup = LAT_Q_UC;
rightMetricsKey = "=O+8";
},
{
export = 0;
glyphname = W.001;
lastChange = "2020-06-16 09:37:37 +0000";
layers = (
{
anchors = (
{
name = bottom;
position = "{397, 0}";
},
{
name = top;
position = "{534, 720}";
}
);
layerId = "AB099EFE-E788-4EFC-8633-CF147CB782A6";
paths = (
{
closed = 1;
nodes = (
"183 0 LINE",
"223 0 LINE",
"511 606 LINE",
"515 606 LINE",
"587 0 LINE",
"627 0 LINE",
"960 720 LINE",
"926 720 LINE",
"656 134 LINE",
"615 36 LINE",
"611 36 LINE",
"535 672 LINE",
"511 672 LINE",
"211 36 LINE",
"207 36 LINE",
"200 134 LINE",
"156 720 LINE",
"124 720 LINE"
);
}
);
width = 900;
},
{
anchors = (
{
name = bottom;
position = "{452, 0}";
},
{
name = top;
position = "{597, 720}";
}
);
layerId = "2D8F7115-C311-411E-929D-56333CF7FFB2";
paths = (
{
closed = 1;
nodes = (
"178 0 LINE",
"324 0 LINE",
"514 312 LINE",
"517 312 LINE",
"612 0 LINE",
"756 0 LINE",
"1095 720 LINE",
"899 720 LINE",
"771 430 LINE",
"696 250 LINE",
"692 250 LINE",
"599 638 LINE",
"527 638 LINE",
"316 250 LINE",
"312 250 LINE",
"302 430 LINE",
"281 720 LINE",
"99 720 LINE"
);
}
);
width = 1012;
},
{
anchors = (
{
name = bottom;
position = "{414, 0}";
},
{
name = top;
position = "{559, 720}";
}
);
associatedMasterId = "AB099EFE-E788-4EFC-8633-CF147CB782A6";
layerId = "EFE37E7D-F637-41FE-8784-1086CBF7F997";
name = "Half {450}";
paths = (
{
closed = 1;
nodes = (
"188 0 LINE",
"279 0 LINE",
"494 396 LINE",
"498 396 LINE",
"575 0 LINE",
"666 0 LINE",
"1011 720 LINE",
"900 720 LINE",
"733 352 LINE",
"641 148 LINE",
"637 148 LINE",
"557 636 LINE",
"517 636 LINE",
"265 148 LINE",
"261 148 LINE",
"243 352 LINE",
"213 720 LINE",
"107 720 LINE"
);
}
);
width = 936;
}
);
leftKerningGroup = LAT_W_UC;
rightKerningGroup = LAT_W_UC;
},
{
color = 4;
glyphname = a.ss01;
lastChange = "2020-06-14 07:18:20 +0000";
layers = (
{
anchors = (
{
name = bottom;
position = "{271, 0}";
},
{
name = center;
position = "{331, 256}";
},
{
name = ogonek;
position = "{487, 0}";
},
{
name = top;
position = "{382, 512}";
},
{
name = topright;
position = "{656, 512}";
}
);
components = (
{
alignment = -1;
name = "_part.bowl-reverse.ss01";
}
);
layerId = "AB099EFE-E788-4EFC-8633-CF147CB782A6";
paths = (
{
closed = 1;
nodes = (
"489 0 LINE",
"591 512 LINE",
"561 512 LINE",
"537 390 LINE",
"527 390 LINE",
"535 372 LINE",
"489 140 LINE",
"470 117 LINE",
"482 117 LINE",
"459 0 LINE"
);
}
);
width = 624;
},
{
anchors = (
{
name = bottom;
position = "{268, 0}";
},
{
name = center;
position = "{323, 264}";
},
{
name = ogonek;
position = "{540, 0}";
},
{
name = top;
position = "{381, 528}";
},
{
name = topright;
position = "{678, 528}";
}
);
components = (
{
alignment = -1;
name = "_part.bowl-reverse.ss01";
}
);
layerId = "2D8F7115-C311-411E-929D-56333CF7FFB2";
paths = (
{
closed = 1;
nodes = (
"541 0 LINE",
"646 528 LINE",
"480 528 LINE",
"466 458 LINE",
"452 458 LINE",
"460 420 LINE",
"388 88 LINE",
"380 60 LINE",
"398 60 LINE",
"386 0 LINE"
);
}
);
width = 655;
},
{
anchors = (
{
name = bottom;
position = "{263, 0}";
},
{
name = center;
position = "{319, 260}";
},
{
name = ogonek;
position = "{514, 0}";
},
{
name = top;
position = "{375, 520}";
},
{
name = topright;
position = "{670, 520}";
}
);
associatedMasterId = "AB099EFE-E788-4EFC-8633-CF147CB782A6";
components = (
{
alignment = -1;
name = "_part.bowl-reverse.ss01";
}
);
layerId = "AC8A3195-6078-46FD-AA9D-1AC5F6AC1630";
name = "Half {450}";
paths = (
{
closed = 1;
nodes = (
"522 0 LINE",
"625 520 LINE",
"521 520 LINE",
"502 424 LINE",
"489 424 LINE",
"498 396 LINE",
"439 114 LINE",
"421 70 LINE",
"436 70 LINE",
"422 0 LINE"
);
}
);
width = 638;
}
);
leftKerningGroup = LAT_O_LC;
leftMetricsKey = o;
rightKerningGroup = LAT_ASS01_LC;
},
{
glyphname = a.ss08;
lastChange = "2020-06-14 03:25:06 +0000";
layers = (
{
anchors = (
{
name = bottom;
position = "{197, 0}";
},
{
name = ogonek;
position = "{359, 0}";
},
{
name = top;
position = "{299, 512}";
}
);
layerId = "AB099EFE-E788-4EFC-8633-CF147CB782A6";
paths = (
{
closed = 1;
nodes = (
"367 0 LINE",
"433 332 LINE SMOOTH",
"456 447 OFFCURVE",
"434 520 OFFCURVE",
"307 520 CURVE SMOOTH",
"252 520 OFFCURVE",
"169 496 OFFCURVE",
"124 464 CURVE",
"135 438 LINE",
"178 467 OFFCURVE",
"253 492 OFFCURVE",
"303 492 CURVE SMOOTH",
"410 492 OFFCURVE",
"424 434 OFFCURVE",
"405 342 CURVE SMOOTH",
"391 274 LINE",
"391 270 LINE",
"360 120 LINE",
"348 86 LINE",
"356 86 LINE",
"339 0 LINE"
);
},
{
closed = 1;
nodes = (
"243 -8 OFFCURVE",
"315 37 OFFCURVE",
"356 86 CURVE",
"371 144 LINE",
"312 69 OFFCURVE",
"244 20 OFFCURVE",
"166 20 CURVE SMOOTH",
"93 20 OFFCURVE",
"49 74 OFFCURVE",
"61 135 CURVE SMOOTH",
"77 213 OFFCURVE",
"163 268 OFFCURVE",
"308 268 CURVE SMOOTH",
"402 268 LINE",
"409 296 LINE",
"311 296 LINE SMOOTH",
"148 296 OFFCURVE",
"52 233 OFFCURVE",
"33 140 CURVE SMOOTH",
"15 53 OFFCURVE",
"76 -8 OFFCURVE",
"165 -8 CURVE SMOOTH"
);
}
);
width = 466;
},
{
anchors = (
{
name = bottom;
position = "{224, 0}";
},
{
name = ogonek;
position = "{364, 0}";
},
{
name = top;
position = "{340, 528}";
}
);
layerId = "2D8F7115-C311-411E-929D-56333CF7FFB2";
paths = (
{
closed = 1;
nodes = (
"456 0 LINE",
"525 340 LINE SMOOTH",
"541 420 OFFCURVE",
"533 536 OFFCURVE",
"328 536 CURVE SMOOTH",
"227 536 OFFCURVE",
"146 511 OFFCURVE",
"105 490 CURVE",
"145 354 LINE",
"185 378 OFFCURVE",
"252 398 OFFCURVE",
"302 398 CURVE SMOOTH",
"338 398 OFFCURVE",
"366 390 OFFCURVE",
"359 354 CURVE SMOOTH",
"343 270 LINE",
"342 246 LINE",
"317 128 LINE",
"303 64 LINE",
"325 64 LINE",
"312 0 LINE"
);
},
{
closed = 1;
nodes = (
"239 -8 OFFCURVE",
"304 25 OFFCURVE",
"333 66 CURVE",
"320 158 LINE",
"297 134 OFFCURVE",
"258 116 OFFCURVE",
"225 116 CURVE SMOOTH",
"192 116 OFFCURVE",
"174 128 OFFCURVE",
"178 147 CURVE SMOOTH",
"186 190 OFFCURVE",
"226 208 OFFCURVE",
"267 208 CURVE SMOOTH",
"341 208 LINE",
"360 308 LINE",
"244 308 LINE SMOOTH",
"118 308 OFFCURVE",
"28 249 OFFCURVE",
"11 160 CURVE SMOOTH",
"-9 56 OFFCURVE",
"57 -8 OFFCURVE",
"159 -8 CURVE SMOOTH"
);
}
);
width = 538;
},
{
anchors = (
{
name = bottom;
position = "{212, 0}";
},
{
name = ogonek;
position = "{354, 0}";
},
{
name = top;
position = "{332, 520}";
}
);
associatedMasterId = "AB099EFE-E788-4EFC-8633-CF147CB782A6";
layerId = "10222E3F-14CA-477D-B1AE-4234237F89B0";
name = "Half {450}";
paths = (
{
closed = 1;
nodes = (
"404 0 LINE",
"480 328 LINE SMOOTH",
"502 426 OFFCURVE",
"480 528 OFFCURVE",
"332 528 CURVE SMOOTH",
"264 528 OFFCURVE",
"182 508 OFFCURVE",
"126 478 CURVE",
"146 392 LINE",
"188 416 OFFCURVE",
"254 436 OFFCURVE",
"306 436 CURVE SMOOTH",
"390 436 OFFCURVE",
"392 386 OFFCURVE",
"380 330 CURVE SMOOTH",
"366 270 LINE",
"364 236 LINE",
"340 128 LINE",
"318 68 LINE",
"338 68 LINE",
"322 0 LINE"
);
},
{
closed = 1;
nodes = (
"238 -8 OFFCURVE",
"312 30 OFFCURVE",
"350 80 CURVE",
"350 168 LINE",
"314 114 OFFCURVE",
"240 78 OFFCURVE",
"180 78 CURVE SMOOTH",
"138 78 OFFCURVE",
"108 100 OFFCURVE",
"118 144 CURVE SMOOTH",
"136 224 OFFCURVE",
"250 230 OFFCURVE",
"292 230 CURVE SMOOTH",
"384 230 LINE",
"402 312 LINE",
"302 312 LINE SMOOTH",
"118 312 OFFCURVE",
"38 236 OFFCURVE",
"18 148 CURVE SMOOTH",
"-4 52 OFFCURVE",
"58 -8 OFFCURVE",
"158 -8 CURVE SMOOTH"
);
}
);
width = 532;
}
);
leftKerningGroup = LAT_ASS02_LC;
leftMetricsKey = a;
rightKerningGroup = LAT_A_LC;
rightMetricsKey = n;
},
{
glyphname = ae;
lastChange = "2020-06-16 12:08:52 +0000";
layers = (
{
anchors = (
{
name = bottom;
position = "{341, 0}";
},
{
name = top;
position = "{437, 512}";
}
);
background = {
components = (
{
name = a;
transform = "{0.96569, 0, 0, 1, 5, 0}";
},
{
name = e;
transform = "{0.94033, 0, 0, 1, 327, 0}";
}
);
};
layerId = "AB099EFE-E788-4EFC-8633-CF147CB782A6";
paths = (
{
closed = 1;
nodes = (
"246 -8 OFFCURVE",
"330 58 OFFCURVE",
"367 142 CURVE",
"361 146 LINE",
"373 54 OFFCURVE",
"430 -8 OFFCURVE",
"531 -8 CURVE SMOOTH",
"588 -8 OFFCURVE",
"649 14 OFFCURVE",
"700 58 CURVE",
"695 92 LINE",
"652 52 OFFCURVE",
"587 20 OFFCURVE",
"526 20 CURVE SMOOTH",
"424 20 OFFCURVE",
"366 108 OFFCURVE",
"399 270 CURVE SMOOTH",
"426 402 OFFCURVE",
"517 492 OFFCURVE",
"621 492 CURVE SMOOTH",
"725 492 OFFCURVE",
"770 402 OFFCURVE",
"743 278 CURVE",
"394 276 LINE",
"388 248 LINE",
"768 246 LINE",
"770 255 OFFCURVE",
"772 263 OFFCURVE",
"775 276 CURVE SMOOTH",
"807 436 OFFCURVE",
"733 520 OFFCURVE",
"621 520 CURVE SMOOTH",
"535 520 OFFCURVE",
"458 468 OFFCURVE",
"410 384 CURVE",
"418 380 LINE",
"425 470 OFFCURVE",
"391 520 OFFCURVE",
"291 520 CURVE SMOOTH",
"242 520 OFFCURVE",
"162 498 OFFCURVE",
"118 464 CURVE",
"129 438 LINE",
"163 464 OFFCURVE",
"237 492 OFFCURVE",
"287 492 CURVE SMOOTH",
"392 492 OFFCURVE",
"403 431 OFFCURVE",
"384 340 CURVE SMOOTH",
"354 196 LINE SMOOTH",
"330 80 OFFCURVE",
"229 20 OFFCURVE",
"153 20 CURVE SMOOTH",
"77 20 OFFCURVE",
"41 68 OFFCURVE",
"53 130 CURVE SMOOTH",
"67 200 OFFCURVE",
"135 248 OFFCURVE",
"277 248 CURVE SMOOTH",
"373 248 LINE",
"378 276 LINE",
"284 276 LINE SMOOTH",
"125 276 OFFCURVE",
"43 224 OFFCURVE",
"25 135 CURVE SMOOTH",
"7 47 OFFCURVE",
"61 -8 OFFCURVE",
"153 -8 CURVE SMOOTH"
);
}
);
width = 826;
},
{
anchors = (
{
name = bottom;
position = "{369, 0}";
},
{
name = top;
position = "{479, 528}";
}
);
background = {
components = (
{
name = a;
transform = "{0.96569, 0, 0, 1, 3, 0}";
},
{
name = e;
transform = "{0.94033, 0, 0, 1, 313, 0}";
}
);
};
layerId = "2D8F7115-C311-411E-929D-56333CF7FFB2";
paths = (
{
closed = 1;
nodes = (
"297 -8 OFFCURVE",
"380 55 OFFCURVE",
"399 102 CURVE",
"360 116 LINE",
"388 44 OFFCURVE",
"452 -8 OFFCURVE",
"550 -8 CURVE SMOOTH",
"607 -8 OFFCURVE",
"678 4 OFFCURVE",
"717 30 CURVE",
"686 164 LINE",
"656 145 OFFCURVE",
"615 124 OFFCURVE",
"571 124 CURVE SMOOTH",
"533 124 OFFCURVE",
"444 132 OFFCURVE",
"467 247 CURVE SMOOTH",
"493 376 OFFCURVE",
"573 408 OFFCURVE",
"616 408 CURVE SMOOTH",
"659 408 OFFCURVE",
"687 374 OFFCURVE",
"678 322 CURVE",
"463 314 LINE",
"452 216 LINE",
"794 208 LINE",
"807 240 OFFCURVE",
"807 249 OFFCURVE",
"810 264 CURVE SMOOTH",
"851 462 OFFCURVE",
"739 536 OFFCURVE",
"635 536 CURVE SMOOTH",
"567 536 OFFCURVE",
"470 508 OFFCURVE",
"439 448 CURVE",
"486 432 LINE",
"474 492 OFFCURVE",
"445 536 OFFCURVE",
"325 536 CURVE SMOOTH",
"254 536 OFFCURVE",
"162 524 OFFCURVE",
"106 494 CURVE",
"141 354 LINE",
"172 374 OFFCURVE",
"238 402 OFFCURVE",
"295 402 CURVE SMOOTH",
"389 402 OFFCURVE",
"358 340 OFFCURVE",
"351 302 CURVE SMOOTH",
"335 212 LINE SMOOTH",
"325 158 OFFCURVE",
"280 116 OFFCURVE",
"219 116 CURVE SMOOTH",
"193 116 OFFCURVE",
"168 122 OFFCURVE",
"173 149 CURVE SMOOTH",
"186 216 OFFCURVE",
"261 216 OFFCURVE",
"300 216 CURVE SMOOTH",
"352 216 LINE",
"369 312 LINE",
"271 312 LINE SMOOTH",
"128 312 OFFCURVE",
"34 266 OFFCURVE",
"13 161 CURVE SMOOTH",
"-8 53 OFFCURVE",
"69 -8 OFFCURVE",
"180 -8 CURVE SMOOTH"
);
}
);
width = 838;
},
{
anchors = (
{
name = bottom;
position = "{371, 0}";
},
{
name = top;
position = "{477, 520}";
}
);
associatedMasterId = "AB099EFE-E788-4EFC-8633-CF147CB782A6";
background = {
components = (
{
name = a;
transform = "{1, 0, 0, 1, -5, 0}";
},
{
name = e;
transform = "{0.96, 0, 0, 1, 319, 0}";
}
);
};
layerId = "0E25C16D-2446-49C2-8681-EBC11D211070";
name = "Half {450}";
paths = (
{
closed = 1;
nodes = (
"288 -8 OFFCURVE",
"370 54 OFFCURVE",
"404 110 CURVE",
"378 114 LINE",
"406 40 OFFCURVE",
"458 -8 OFFCURVE",
"559 -8 CURVE SMOOTH",
"623 -8 OFFCURVE",
"693 14 OFFCURVE",
"736 46 CURVE",
"715 132 LINE",
"672 98 OFFCURVE",
"624 80 OFFCURVE",
"569 80 CURVE SMOOTH",
"483 80 OFFCURVE",
"435 142 OFFCURVE",
"458 260 CURVE SMOOTH",
"481 378 OFFCURVE",
"555 440 OFFCURVE",
"633 440 CURVE SMOOTH",
"710 440 OFFCURVE",
"743 378 OFFCURVE",
"727 304 CURVE",
"455 302 LINE",
"437 222 LINE",
"801 220 LINE",
"805 230 OFFCURVE",
"808 241 OFFCURVE",
"814 271 CURVE SMOOTH",
"847 435 OFFCURVE",
"773 528 OFFCURVE",
"649 528 CURVE SMOOTH",
"579 528 OFFCURVE",
"506 498 OFFCURVE",
"449 436 CURVE",
"473 432 LINE",
"466 486 OFFCURVE",
"424 528 OFFCURVE",
"317 528 CURVE SMOOTH",
"244 528 OFFCURVE",
"161 506 OFFCURVE",
"116 478 CURVE",
"136 392 LINE",
"168 416 OFFCURVE",
"243 436 OFFCURVE",
"301 436 CURVE SMOOTH",
"417 436 OFFCURVE",
"392 358 OFFCURVE",
"378 290 CURVE SMOOTH",
"358 190 LINE SMOOTH",
"346 130 OFFCURVE",
"267 80 OFFCURVE",
"195 80 CURVE SMOOTH",
"147 80 OFFCURVE",
"107 101 OFFCURVE",
"118 152 CURVE SMOOTH",
"127 194 OFFCURVE",
"175 222 OFFCURVE",
"267 222 CURVE SMOOTH",
"379 222 LINE",
"395 302 LINE",
"279 302 LINE SMOOTH",
"118 302 OFFCURVE",
"36 237 OFFCURVE",
"19 151 CURVE SMOOTH",
"0 54 OFFCURVE",
"68 -8 OFFCURVE",
"179 -8 CURVE SMOOTH"
);
}
);
width = 856;
}
);
leftKerningGroup = LAT_ASS02_LC;
leftMetricsKey = a.roman;
rightKerningGroup = LAT_E_LC;
rightMetricsKey = e;
unicode = 00E6;
},
{
glyphname = b;
lastChange = "2020-06-16 12:16:26 +0000";
layers = (
{
anchors = (
{
name = bottom;
position = "{225, 0}";
},
{
name = center;
position = "{170, 616}";
},
{
name = top;
position = "{360, 564}";
}
);
components = (
{
name = _part.bowl;
}
);
layerId = "AB099EFE-E788-4EFC-8633-CF147CB782A6";
paths = (
{
closed = 1;
nodes = (
"63 0 LINE",
"86 116 LINE",
"93 116 LINE",
"89 156 LINE",
"133 372 LINE",
"152 416 LINE",
"146 416 LINE",
"213 752 LINE",
"183 752 LINE",
"33 0 LINE"
);
}
);
width = 568;
},
{
anchors = (
{
name = bottom;
position = "{253, 0}";
},
{
name = center;
position = "{222, 634}";
},
{
name = top;
position = "{442, 568}";
}
);
components = (
{
name = _part.bowl;
}
);
layerId = "2D8F7115-C311-411E-929D-56333CF7FFB2";
paths = (
{
closed = 1;
nodes = (
"170 0 LINE",
"182 66 LINE",
"202 66 LINE",
"190 132 LINE",
"256 440 LINE",
"294 496 LINE",
"280 496 LINE",
"331 752 LINE",
"157 752 LINE",
"7 0 LINE"
);
}
);
width = 616;
},
{
anchors = (
{
name = bottom;
position = "{250, 0}";
},
{
name = center;
position = "{189, 626}";
},
{
name = top;
position = "{413, 566}";
}
);
associatedMasterId = "AB099EFE-E788-4EFC-8633-CF147CB782A6";
components = (
{
alignment = -1;
name = _part.bowl;
}
);
layerId = "5A761FBB-D991-4916-A5B6-6B494825C86B";
name = "Half {450}";
paths = (
{
closed = 1;
nodes = (
"112 0 LINE",
"127 75 LINE",
"148 75 LINE",
"129 122 LINE",
"191 422 LINE",
"221 466 LINE",
"211 466 LINE",
"268 752 LINE",
"164 752 LINE",
"12 0 LINE"
);
}
);
width = 590;
}
);
leftKerningGroup = LAT_H_UC;
leftMetricsKey = h;
rightKerningGroup = LAT_O_LC;
rightMetricsKey = o;
unicode = 0062;
},
{
color = 4;
glyphname = b.ss01;
lastChange = "2020-06-16 12:08:53 +0000";
layers = (
{
anchors = (
{
name = bottom;
position = "{228, 0}";
},
{
name = center;
position = "{172, 616}";
},
{
name = top;
position = "{364, 564}";
}
);
components = (
{
name = _part.bowl.ss01;
transform = "{1, 0, 0, 1, 1, 0}";
}
);
layerId = "AB099EFE-E788-4EFC-8633-CF147CB782A6";
paths = (
{
closed = 1;
nodes = (
"63 0 LINE",
"88 124 LINE",
"95 124 LINE",
"89 140 LINE",
"133 364 LINE",
"148 394 LINE",
"142 394 LINE",
"213 752 LINE",
"183 752 LINE",
"33 0 LINE"
);
}
);
width = 621;
},
{
anchors = (
{
name = bottom;
position = "{258, 0}";
},
{
name = center;
position = "{226, 634}";
},
{
name = top;
position = "{446, 568}";
}
);
components = (
{
name = _part.bowl.ss01;
transform = "{1, 0, 0, 1, 1, 0}";
}
);
layerId = "2D8F7115-C311-411E-929D-56333CF7FFB2";
paths = (
{
closed = 1;
nodes = (
"171 0 LINE",
"183 71 LINE",
"203 71 LINE",
"193 110 LINE",
"254 398 LINE",
"291 481 LINE",
"279 481 LINE",
"331 752 LINE",
"157 752 LINE",
"7 0 LINE"
);
}
);
width = 661;
},
{
anchors = (
{
name = bottom;
position = "{241, 0}";
},
{
name = center;
position = "{190, 625}";
},
{
name = top;
position = "{404, 566}";
}
);
associatedMasterId = "AB099EFE-E788-4EFC-8633-CF147CB782A6";
components = (
{
alignment = -1;
name = _part.bowl.ss01;
}
);
layerId = "5A761FBB-D991-4916-A5B6-6B494825C86B";
name = "Half {450}";
paths = (
{
closed = 1;
nodes = (
"110 0 LINE",
"128 93 LINE",
"142 93 LINE",
"135 125 LINE",
"187 381 LINE",
"217 457 LINE",
"208 457 LINE",
"265 752 LINE",
"162 752 LINE",
"12 0 LINE"
);
}
);
width = 640;
}
);
leftKerningGroup = LAT_L_LC;
leftMetricsKey = h;
rightKerningGroup = LAT_O_LC;
rightMetricsKey = o;
},
{
glyphname = c;
lastChange = "2020-06-16 07:21:32 +0000";
layers = (
{
anchors = (
{
name = base;
position = "{328, 0}";
},
{
name = bottom;
position = "{221, 0}";
},
{
name = cedilla;
position = "{229, 0}";
},
{
name = top;
position = "{323, 512}";
}
);
layerId = "AB099EFE-E788-4EFC-8633-CF147CB782A6";
paths = (
{
closed = 1;
nodes = (
"289 -6 OFFCURVE",
"346 14 OFFCURVE",
"394 52 CURVE",
"381 83 LINE",
"346 49 OFFCURVE",
"289 22 OFFCURVE",
"235 22 CURVE SMOOTH",
"128 22 OFFCURVE",
"61 129 OFFCURVE",
"88 265 CURVE SMOOTH",
"113 388 OFFCURVE",
"203 492 OFFCURVE",
"324 492 CURVE SMOOTH",
"377 492 OFFCURVE",
"426 472 OFFCURVE",
"449 440 CURVE",
"467 466 LINE",
"435 498 OFFCURVE",
"385 520 OFFCURVE",
"324 520 CURVE SMOOTH",
"188 520 OFFCURVE",
"85 409 OFFCURVE",
"58 266 CURVE SMOOTH",
"28 106 OFFCURVE",
"113 -6 OFFCURVE",
"237 -6 CURVE SMOOTH"
);
}
);
userData = {
RMXScaler = {
height = 71.5;
weight = 20;
width = 77;
};
};
width = 479;
},
{
anchors = (
{
name = base;
position = "{361, 0}";
},
{
name = bottom;
position = "{253, 0}";
},
{
name = cedilla;
position = "{258, 0}";
},
{
name = top;
position = "{365, 528}";
}
);
layerId = "2D8F7115-C311-411E-929D-56333CF7FFB2";
paths = (
{
closed = 1;
nodes = (
"325 -6 OFFCURVE",
"383 8 OFFCURVE",
"417 30 CURVE",
"380 182 LINE",
"352 158 OFFCURVE",
"319 142 OFFCURVE",
"283 142 CURVE SMOOTH",
"220 142 OFFCURVE",
"186 197 OFFCURVE",
"201 273 CURVE SMOOTH",
"215 343 OFFCURVE",
"262 388 OFFCURVE",
"317 388 CURVE SMOOTH",
"346 388 OFFCURVE",
"385 375 OFFCURVE",
"405 355 CURVE",
"491 483 LINE",
"455 509 OFFCURVE",
"395 536 OFFCURVE",
"322 536 CURVE SMOOTH",
"179 536 OFFCURVE",
"65 432 OFFCURVE",
"37 291 CURVE SMOOTH",
"3 121 OFFCURVE",
"111 -6 OFFCURVE",
"272 -6 CURVE SMOOTH"
);
}
);
userData = {
RMXScaler = {
height = 73.5;
weight = -50;
width = 73;
};
};
width = 485;
},
{
anchors = (
{
name = base;
position = "{353, 0}";
},
{
name = bottom;
position = "{242, 0}";
},
{
name = cedilla;
position = "{248, 0}";
},
{
name = top;
position = "{350, 520}";
}
);
associatedMasterId = "AB099EFE-E788-4EFC-8633-CF147CB782A6";
layerId = "1CE194FB-59CD-44F4-BAA6-2BB5E627A7E4";
name = "{450}";
paths = (
{
closed = 1;
nodes = (
"318 -6 OFFCURVE",
"369 12 OFFCURVE",
"417 44 CURVE",
"396 134 LINE",
"368 110 OFFCURVE",
"313 86 OFFCURVE",
"263 86 CURVE SMOOTH",
"172 86 OFFCURVE",
"128 167 OFFCURVE",
"149 270 CURVE SMOOTH",
"169 369 OFFCURVE",
"239 436 OFFCURVE",
"323 436 CURVE SMOOTH",
"367 436 OFFCURVE",
"411 419 OFFCURVE",
"431 392 CURVE",
"481 476 LINE",
"450 506 OFFCURVE",
"393 528 OFFCURVE",
"330 528 CURVE SMOOTH",
"192 528 OFFCURVE",
"77 429 OFFCURVE",
"48 281 CURVE SMOOTH",
"15 112 OFFCURVE",
"111 -6 OFFCURVE",
"260 -6 CURVE SMOOTH"
);
}
);
userData = {
RMXScaler = {
height = 71.5;
weight = 20;
width = 77;
};
};
width = 492;
}
);
leftKerningGroup = LAT_O_LC;
leftMetricsKey = o;
rightKerningGroup = LAT_C_LC;
unicode = 0063;
userData = {
RMXScaler = {
source = C;
};
};
},
{
glyphname = d;
lastChange = "2020-06-16 12:22:45 +0000";
layers = (
{
anchors = (
{
name = bottom;
position = "{258, 0}";
},
{
name = center;
position = "{552, 616}";
},
{
name = leghookretroflex;
position = "{429, 0}";
},
{
name = top;
position = "{576, 752}";
},
{
name = topright;
position = "{593, 752}";
}
);
components = (
{
name = "_part.bowl-reverse";
}
);
layerId = "AB099EFE-E788-4EFC-8633-CF147CB782A6";
paths = (
{
closed = 1;
nodes = (
"477 20 LINE",
"439 41 OFFCURVE",
"447 71 OFFCURVE",
"455 112 CURVE SMOOTH",
"582 754 LINE",
"555 754 LINE",
"480 384 LINE",
"468 384 LINE",
"475 352 LINE",
"431 130 LINE",
"412 89 LINE",
"426 89 LINE",
"424 103 LINE",
"410 26 OFFCURVE",
"428 17 OFFCURVE",
"460 -8 CURVE"
);
}
);
width = 576;
},
{
anchors = (
{
name = bottom;
position = "{262, 0}";
},
{
name = center;
position = "{546, 634}";
},
{
name = leghookretroflex;
position = "{421, 0}";
},
{
name = top;
position = "{570, 752}";
},
{
name = topright;
position = "{646, 752}";
}
);
components = (
{
name = "_part.bowl-reverse";
}
);
layerId = "2D8F7115-C311-411E-929D-56333CF7FFB2";
paths = (
{
closed = 1;
nodes = (
"575 134 LINE",
"548 144 OFFCURVE",
"542 148 OFFCURVE",
"549 184 CURVE SMOOTH",
"660 752 LINE",
"486 752 LINE",
"433 476 LINE",
"424 476 LINE",
"434 434 LINE",
"371 134 LINE",
"350 66 LINE",
"390 66 LINE",
"380 86 LINE",
"389 42 OFFCURVE",
"433 14 OFFCURVE",
"492 -6 CURVE"
);
}
);
width = 633;
},
{
anchors = (
{
name = bottom;
position = "{230, 0}";
},
{
name = center;
position = "{539, 624}";
},
{
name = leghookretroflex;
position = "{414, 0}";
},
{
name = top;
position = "{565, 752}";
},
{
name = topright;
position = "{693, 752}";
}
);
associatedMasterId = "AB099EFE-E788-4EFC-8633-CF147CB782A6";
components = (
{
name = "_part.bowl-reverse";
}
);
layerId = "93F45F20-9F23-4A78-8C04-8606029ED3EE";
name = "Half {450}";
paths = (
{
closed = 1;
nodes = (
"521 82 LINE",
"492 97 OFFCURVE",
"490 111 OFFCURVE",
"497 150 CURVE SMOOTH",
"616 752 LINE",
"514 752 LINE",
"456 458 LINE",
"444 458 LINE",
"458 404 LINE",
"405 140 LINE",
"367 66 LINE",
"425 66 LINE",
"398 92 LINE",
"391 55 OFFCURVE",
"410 21 OFFCURVE",
"467 -8 CURVE"
);
}
);
width = 608;
}
);
leftKerningGroup = LAT_O_LC;
leftMetricsKey = o;
rightKerningGroup = LAT_D_LC;
rightMetricsKey = "=u+4";
unicode = 0064;
},
{
color = 4;
glyphname = d.ss01;
lastChange = "2020-06-16 12:08:53 +0000";
layers = (
{
anchors = (
{
name = bottom;
position = "{277, 0}";
},
{
name = center;
position = "{592, 616}";
},
{
name = leghookretroflex;
position = "{460, 0}";
},
{
name = top;
position = "{623, 752}";
},
{
name = topright;
position = "{638, 752}";
}
);
components = (
{
name = "_part.bowl-reverse.ss01";
}
);
layerId = "AB099EFE-E788-4EFC-8633-CF147CB782A6";
paths = (
{
closed = 1;
nodes = (
"489 0 LINE",
"638 752 LINE",
"608 752 LINE",
"537 390 LINE",
"527 390 LINE",
"535 372 LINE",
"489 140 LINE",
"470 117 LINE",
"482 117 LINE",
"459 0 LINE"
);
}
);
width = 620;
},
{
anchors = (
{
name = bottom;
position = "{257, 0}";
},
{
name = center;
position = "{583, 634}";
},
{
name = leghookretroflex;
position = "{444, 0}";
},
{
name = top;
position = "{593, 752}";
},
{
name = topright;
position = "{673, 752}";
}
);
components = (
{
name = "_part.bowl-reverse.ss01";
}
);
layerId = "2D8F7115-C311-411E-929D-56333CF7FFB2";
paths = (
{
closed = 1;
nodes = (
"524 0 LINE",
"673 752 LINE",
"507 752 LINE",
"450 458 LINE",
"435 458 LINE",
"443 420 LINE",
"371 88 LINE",
"363 60 LINE",
"381 60 LINE",
"369 0 LINE"
);
}
);
width = 646;
},
{
anchors = (
{
name = bottom;
position = "{273, 0}";
},
{
name = center;
position = "{592, 625}";
},
{
name = leghookretroflex;
position = "{461, 0}";
},
{
name = top;
position = "{617, 752}";
},
{
name = topright;
position = "{669, 752}";
}
);
associatedMasterId = "AB099EFE-E788-4EFC-8633-CF147CB782A6";
components = (
{
alignment = -1;
name = "_part.bowl-reverse.ss01";
}
);
layerId = "93F45F20-9F23-4A78-8C04-8606029ED3EE";
name = "Half {450}";
paths = (
{
closed = 1;
nodes = (
"520 0 LINE",
"669 752 LINE",
"566 752 LINE",
"502 424 LINE",
"489 424 LINE",
"498 396 LINE",
"439 114 LINE",
"425 89 LINE",
"440 89 LINE",
"423 0 LINE"
);
}
);
width = 644;
}
);
leftKerningGroup = LAT_O_LC;
leftMetricsKey = o;
rightKerningGroup = LAT_H_UC;
},
{
glyphname = eth;
lastChange = "2020-06-14 07:26:18 +0000";
layers = (
{
background = {
paths = (
{
closed = 1;
nodes = (
"489 449 OFFCURVE",
"399 499 OFFCURVE",
"306 500 CURVE SMOOTH",
"164 499 OFFCURVE",
"58 393 OFFCURVE",
"60 248 CURVE SMOOTH",
"58 102 OFFCURVE",
"161 -8 OFFCURVE",
"298 -8 CURVE SMOOTH",
"444 -8 OFFCURVE",
"537 115 OFFCURVE",
"538 304 CURVE SMOOTH",
"537 515 OFFCURVE",
"395 691 OFFCURVE",
"170 762 CURVE",
"162 734 LINE",
"373 668 OFFCURVE",
"506 503 OFFCURVE",
"508 304 CURVE SMOOTH",
"506 131 OFFCURVE",
"425 21 OFFCURVE",
"298 20 CURVE SMOOTH",
"177 21 OFFCURVE",
"89 117 OFFCURVE",
"90 248 CURVE SMOOTH",
"89 376 OFFCURVE",
"182 471 OFFCURVE",
"306 470 CURVE SMOOTH",
"388 471 OFFCURVE",
"466 427 OFFCURVE",
"502 360 CURVE",
"530 372 LINE"
);
}
);
};
layerId = "AB099EFE-E788-4EFC-8633-CF147CB782A6";
paths = (
{
closed = 1;
nodes = (
"406 -8 OFFCURVE",
"493 119 OFFCURVE",
"523 278 CURVE SMOOTH",
"565 504 OFFCURVE",
"473 690 OFFCURVE",
"268 762 CURVE",
"255 736 LINE",
"366 698 OFFCURVE",
"492 598 OFFCURVE",
"507 402 CURVE",
"518 408 LINE",
"502 408 LINE",
"514 388 LINE",
"490 460 OFFCURVE",
"408 500 OFFCURVE",
"326 500 CURVE SMOOTH",
"186 500 OFFCURVE",
"80 385 OFFCURVE",
"58 247 CURVE SMOOTH",
"33 90 OFFCURVE",
"133 -8 OFFCURVE",
"260 -8 CURVE SMOOTH"
);
},
{
closed = 1;
nodes = (
"152 14 OFFCURVE",
"65 107 OFFCURVE",
"88 247 CURVE SMOOTH",
"108 370 OFFCURVE",
"206 472 OFFCURVE",
"329 472 CURVE SMOOTH",
"412 472 OFFCURVE",
"518 425 OFFCURVE",
"492 268 CURVE SMOOTH",
"472 149 OFFCURVE",
"388 27 OFFCURVE",
"264 20 CURVE SMOOTH"
);
},
{
closed = 1;
nodes = (
"545 738 LINE",
"538 760 LINE",
"221 596 LINE",
"227 572 LINE"
);
}
);
width = 581;
},
{
background = {
components = (
{
name = delta;
transform = "{1, 0, 0, 1, -3, 0}";
}
);
};
layerId = "2D8F7115-C311-411E-929D-56333CF7FFB2";
paths = (
{
closed = 1;
nodes = (
"414 -8 OFFCURVE",
"541 120 OFFCURVE",
"579 308 CURVE SMOOTH",
"622 520 OFFCURVE",
"521 706 OFFCURVE",
"288 826 CURVE",
"203 698 LINE",
"338 643 OFFCURVE",
"422 560 OFFCURVE",
"443 446 CURVE",
"469 462 LINE",
"425 462 LINE",
"446 420 LINE",
"438 476 OFFCURVE",
"369 502 OFFCURVE",
"313 502 CURVE SMOOTH",
"188 502 OFFCURVE",
"61 404 OFFCURVE",
"33 267 CURVE SMOOTH",
"1 110 OFFCURVE",
"101 -8 OFFCURVE",
"250 -8 CURVE SMOOTH"
);
},
{
closed = 1;
nodes = (
"210 144 OFFCURVE",
"183 186 OFFCURVE",
"196 249 CURVE SMOOTH",
"209 314 OFFCURVE",
"263 368 OFFCURVE",
"330 368 CURVE SMOOTH",
"390 368 OFFCURVE",
"417 328 OFFCURVE",
"408 279 CURVE SMOOTH",
"393 201 OFFCURVE",
"335 144 OFFCURVE",
"269 144 CURVE SMOOTH"
);
},
{
closed = 1;
nodes = (
"602 738 LINE",
"560 826 LINE",
"182 592 LINE",
"214 528 LINE"
);
}
);
width = 604;
},
{
associatedMasterId = "AB099EFE-E788-4EFC-8633-CF147CB782A6";
background = {
components = (
{
name = delta;
transform = "{1, 0, 0, 1, -4, 0}";
}
);
};
layerId = "91BDAD2D-5B11-4BE0-BF5F-19682392A8C1";
name = "Half {450}";
paths = (
{
closed = 1;
nodes = (
"401 -8 OFFCURVE",
"530 106 OFFCURVE",
"569 305 CURVE SMOOTH",
"618 552 OFFCURVE",
"482 704 OFFCURVE",
"283 796 CURVE",
"232 714 LINE",
"353 662 OFFCURVE",
"473 576 OFFCURVE",
"491 436 CURVE",
"509 450 LINE",
"483 450 LINE",
"493 430 LINE",
"482 470 OFFCURVE",
"423 504 OFFCURVE",
"343 504 CURVE SMOOTH",
"209 504 OFFCURVE",
"78 409 OFFCURVE",
"47 254 CURVE SMOOTH",
"19 116 OFFCURVE",
"97 -8 OFFCURVE",
"255 -8 CURVE SMOOTH"
);
},
{
closed = 1;
nodes = (
"179 88 OFFCURVE",
"131 167 OFFCURVE",
"148 254 CURVE SMOOTH",
"169 357 OFFCURVE",
"258 414 OFFCURVE",
"342 414 CURVE SMOOTH",
"428 414 OFFCURVE",
"481 354 OFFCURVE",
"462 260 CURVE SMOOTH",
"442 166 OFFCURVE",
"361 88 OFFCURVE",
"271 88 CURVE SMOOTH"
);
},
{
closed = 1;
nodes = (
"597 742 LINE",
"571 798 LINE",
"209 606 LINE",
"232 550 LINE"
);
}
);
width = 595;
}
);
leftKerningGroup = LAT_ETH_LC;
rightKerningGroup = LAT_ETH_LC;
unicode = 00F0;
},
{
glyphname = e;
lastChange = "2020-06-16 07:24:15 +0000";
layers = (
{
anchors = (
{
name = bottom;
position = "{223, 0}";
},
{
name = cedilla;
position = "{217, 0}";
},
{
name = ogonek;
position = "{365, 38}";
},
{
name = top;
position = "{321, 512}";
}
);
guideLines = (
{
angle = -67.5;
position = "{422, 36}";
}
);
layerId = "AB099EFE-E788-4EFC-8633-CF147CB782A6";
paths = (
{
closed = 1;
nodes = (
"306 -8 OFFCURVE",
"361 20 OFFCURVE",
"398 50 CURVE",
"387 78 LINE",
"345 44 OFFCURVE",
"297 20 OFFCURVE",
"236 20 CURVE SMOOTH",
"119 20 OFFCURVE",
"60 114 OFFCURVE",
"86 257 CURVE SMOOTH",
"111 390 OFFCURVE",
"202 492 OFFCURVE",
"308 492 CURVE SMOOTH",
"411 492 OFFCURVE",
"466 402 OFFCURVE",
"441 274 CURVE",
"84 274 LINE",
"78 246 LINE",
"466 246 LINE",
"467 249 OFFCURVE",
"469 260 OFFCURVE",
"470 265 CURVE SMOOTH",
"499 414 OFFCURVE",
"433 520 OFFCURVE",
"309 520 CURVE SMOOTH",
"189 520 OFFCURVE",
"83 417 OFFCURVE",
"56 255 CURVE SMOOTH",
"30 96 OFFCURVE",
"103 -8 OFFCURVE",
"234 -8 CURVE SMOOTH"
);
}
);
width = 523;
},
{
anchors = (
{
name = bottom;
position = "{235, 0}";
},
{
name = cedilla;
position = "{231, 0}";
},
{
name = ogonek;
position = "{406, 40}";
},
{
name = top;
position = "{330, 520}";
}
);
associatedMasterId = "AB099EFE-E788-4EFC-8633-CF147CB782A6";
background = {
paths = (
{
closed = 1;
nodes = (
"354 97 OFFCURVE",
"299 78 OFFCURVE",
"258 78 CURVE SMOOTH",
"175 78 OFFCURVE",
"129 144 OFFCURVE",
"145 247 CURVE SMOOTH",
"164 366 OFFCURVE",
"236 442 OFFCURVE",
"328 442 CURVE SMOOTH",
"391 442 OFFCURVE",
"431 398 OFFCURVE",
"428 334 CURVE SMOOTH",
"425 295 OFFCURVE",
"407 260 OFFCURVE",
"426 308 CURVE",
"104 308 LINE",
"104 224 LINE",
"499 224 LINE",
"524 274 OFFCURVE",
"533 316 OFFCURVE",
"532 339 CURVE SMOOTH",
"532 447 OFFCURVE",
"447 526 OFFCURVE",
"328 526 CURVE SMOOTH",
"182 526 OFFCURVE",
"67 418 OFFCURVE",
"43 261 CURVE SMOOTH",
"18 105 OFFCURVE",
"108 -6 OFFCURVE",
"258 -6 CURVE SMOOTH",
"321 -6 OFFCURVE",
"407 22 OFFCURVE",
"449 55 CURVE",
"383 121 LINE"
);
}
);
};
guideLines = (
{
angle = -67.5;
position = "{444, 36}";
}
);
layerId = "197FD552-64D2-439A-92C4-31C862AB66D0";
name = "Half {450}";
paths = (
{
closed = 1;
nodes = (
"318 -8 OFFCURVE",
"373 12 OFFCURVE",
"421 43 CURVE",
"387 130 LINE",
"354 102 OFFCURVE",
"309 80 OFFCURVE",
"260 80 CURVE SMOOTH",
"171 80 OFFCURVE",
"125 157 OFFCURVE",
"138 259 CURVE SMOOTH",
"151 360 OFFCURVE",
"219 440 OFFCURVE",
"303 440 CURVE SMOOTH",
"379 440 OFFCURVE",
"428 374 OFFCURVE",
"411 304 CURVE",
"123 304 LINE",
"108 222 LINE",
"482 222 LINE",
"487 228 OFFCURVE",
"495 256 OFFCURVE",
"500 282 CURVE SMOOTH",
"525 419 OFFCURVE",
"437 528 OFFCURVE",
"309 528 CURVE SMOOTH",
"179 528 OFFCURVE",
"72 410 OFFCURVE",
"48 278 CURVE SMOOTH",
"18 117 OFFCURVE",
"108 -8 OFFCURVE",
"258 -8 CURVE SMOOTH"
);
}
);
width = 540;
},
{
anchors = (
{
name = bottom;
position = "{245, 0}";
},
{
name = cedilla;
position = "{249, 0}";
},
{
name = ogonek;
position = "{413, 34}";
},
{
name = top;
position = "{334, 528}";
}
);
guideLines = (
{
angle = -67.5;
position = "{448, 36}";
}
);
layerId = "2D8F7115-C311-411E-929D-56333CF7FFB2";
paths = (
{
closed = 1;
nodes = (
"330 -8 OFFCURVE",
"388 3 OFFCURVE",
"434 26 CURVE",
"382 154 LINE",
"369 142 OFFCURVE",
"321 126 OFFCURVE",
"281 126 CURVE SMOOTH",
"217 126 OFFCURVE",
"169 172 OFFCURVE",
"174 249 CURVE SMOOTH",
"178 311 OFFCURVE",
"212 400 OFFCURVE",
"300 400 CURVE SMOOTH",
"334 400 OFFCURVE",
"379 382 OFFCURVE",
"369 318 CURVE",
"180 318 LINE",
"159 206 LINE",
"497 206 LINE",
"504 219 OFFCURVE",
"515 268 OFFCURVE",
"516 271 CURVE SMOOTH",
"547 411 OFFCURVE",
"456 536 OFFCURVE",
"306 536 CURVE SMOOTH",
"181 536 OFFCURVE",
"63 443 OFFCURVE",
"35 279 CURVE SMOOTH",
"6 110 OFFCURVE",
"94 -8 OFFCURVE",
"274 -8 CURVE SMOOTH"
);
}
);
width = 543;
},
{
anchors = (
{
name = bottom;
position = "{239, 0}";
},
{
name = cedilla;
position = "{239, 0}";
},
{
name = ogonek;
position = "{420, 40}";
},
{
name = top;
position = "{333, 524}";
}
);
associatedMasterId = "AB099EFE-E788-4EFC-8633-CF147CB782A6";
guideLines = (
{
angle = -67.5;
position = "{449, 36}";
}
);
layerId = "AA661440-5A2D-4B91-AB53-22C2BE9F23B9";
name = "{600}";
paths = (
{
closed = 1;
nodes = (
"321 -8 OFFCURVE",
"378 5 OFFCURVE",
"431 36 CURVE",
"391 140 LINE",
"358 119 OFFCURVE",
"314 102 OFFCURVE",
"269 102 CURVE SMOOTH",
"174 102 OFFCURVE",
"138 168 OFFCURVE",
"153 264 CURVE SMOOTH",
"167 354 OFFCURVE",
"217 420 OFFCURVE",
"300 420 CURVE SMOOTH",
"375 420 OFFCURVE",
"411 364 OFFCURVE",
"400 306 CURVE",
"144 306 LINE",
"124 212 LINE",
"491 212 LINE",
"501 239 OFFCURVE",
"510 265 OFFCURVE",
"513 286 CURVE SMOOTH",
"535 425 OFFCURVE",
"441 530 OFFCURVE",
"309 530 CURVE SMOOTH",
"178 530 OFFCURVE",
"67 423 OFFCURVE",
"40 266 CURVE SMOOTH",
"11 96 OFFCURVE",
"104 -8 OFFCURVE",
"265 -8 CURVE SMOOTH"
);
}
);
width = 544;
}
);
leftKerningGroup = LAT_O_LC;
leftMetricsKey = o;
rightKerningGroup = LAT_E_LC;
unicode = 0065;
},
{
glyphname = f;
lastChange = "2020-06-16 09:55:08 +0000";
layers = (
{
anchors = (
{
name = bottom;
position = "{95, 0}";
},
{
name = top;
position = "{332, 752}";
}
);
layerId = "AB099EFE-E788-4EFC-8633-CF147CB782A6";
paths = (
{
closed = 1;
nodes = (
"16 -212 OFFCURVE",
"77 -155 OFFCURVE",
"94 -68 CURVE SMOOTH",
"231 618 LINE SMOOTH",
"244 684 OFFCURVE",
"291 732 OFFCURVE",
"338 732 CURVE SMOOTH",
"353 732 OFFCURVE",
"370 728 OFFCURVE",
"383 721 CURVE",
"395 747 LINE",
"379 756 OFFCURVE",
"361 760 OFFCURVE",
"341 760 CURVE SMOOTH",
"278 760 OFFCURVE",
"217 703 OFFCURVE",
"200 616 CURVE SMOOTH",
"64 -68 LINE SMOOTH",
"51 -134 OFFCURVE",
"3 -184 OFFCURVE",
"-44 -184 CURVE SMOOTH",
"-50 -184 OFFCURVE",
"-59 -183 OFFCURVE",
"-66 -181 CURVE",
"-72 -209 LINE",
"-64 -211 OFFCURVE",
"-55 -212 OFFCURVE",
"-47 -212 CURVE SMOOTH"
);
},
{
closed = 1;
nodes = (
"330 484 LINE",
"335 512 LINE",
"99 512 LINE",
"92 484 LINE"
);
}
);
width = 333;
},
{
anchors = (
{
name = bottom;
position = "{154, 0}";
},
{
name = top;
position = "{367, 752}";
}
);
layerId = "2D8F7115-C311-411E-929D-56333CF7FFB2";
paths = (
{
closed = 1;
nodes = (
"119 -214 OFFCURVE",
"209 -137 OFFCURVE",
"235 -6 CURVE SMOOTH",
"344 550 LINE SMOOTH",
"353 596 OFFCURVE",
"384 621 OFFCURVE",
"421 621 CURVE SMOOTH",
"432 621 OFFCURVE",
"441 619 OFFCURVE",
"452 612 CURVE",
"514 758 LINE",
"481 772 OFFCURVE",
"443 778 OFFCURVE",
"411 778 CURVE SMOOTH",
"289 778 OFFCURVE",
"199 701 OFFCURVE",
"173 570 CURVE SMOOTH",
"63 14 LINE SMOOTH",
"54 -32 OFFCURVE",
"23 -57 OFFCURVE",
"-12 -57 CURVE SMOOTH",
"-24 -57 OFFCURVE",
"-30 -54 OFFCURVE",
"-40 -51 CURVE",
"-71 -204 LINE",
"-47 -211 OFFCURVE",
"-25 -214 OFFCURVE",
"-4 -214 CURVE SMOOTH"
);
},
{
closed = 1;
nodes = (
"424 380 LINE",
"454 528 LINE",
"73 528 LINE",
"43 380 LINE"
);
}
);
width = 428;
},
{
anchors = (
{
name = bottom;
position = "{128, 0}";
},
{
name = top;
position = "{369, 752}";
}
);
associatedMasterId = "AB099EFE-E788-4EFC-8633-CF147CB782A6";
layerId = "D74EF1A5-D3D7-4756-8257-D68E12FD6949";
name = "Half {450}";
paths = (
{
closed = 1;
nodes = (
"68 -214 OFFCURVE",
"145 -163 OFFCURVE",
"165 -64 CURVE SMOOTH",
"297 594 LINE SMOOTH",
"307 643 OFFCURVE",
"337 665 OFFCURVE",
"377 665 CURVE SMOOTH",
"390 665 OFFCURVE",
"404 661 OFFCURVE",
"419 654 CURVE",
"458 746 LINE",
"431 756 OFFCURVE",
"404 760 OFFCURVE",
"379 760 CURVE SMOOTH",
"293 760 OFFCURVE",
"216 709 OFFCURVE",
"196 610 CURVE SMOOTH",
"64 -48 LINE SMOOTH",
"54 -97 OFFCURVE",
"24 -119 OFFCURVE",
"-16 -119 CURVE SMOOTH",
"-24 -119 OFFCURVE",
"-33 -117 OFFCURVE",
"-42 -114 CURVE",
"-61 -209 LINE",
"-46 -213 OFFCURVE",
"-32 -214 OFFCURVE",
"-18 -214 CURVE SMOOTH"
);
},
{
closed = 1;
nodes = (
"386 430 LINE",
"406 520 LINE",
"88 520 LINE",
"66 430 LINE"
);
}
);
width = 385;
},
{
anchors = (
{
name = bottom;
position = "{139, 0}";
},
{
name = top;
position = "{368, 752}";
}
);
associatedMasterId = "AB099EFE-E788-4EFC-8633-CF147CB782A6";
layerId = "516F4623-5CD8-441C-8966-F6D84AE729AE";
name = "{600}";
paths = (
{
closed = 1;
nodes = (
"88 -214 OFFCURVE",
"172 -154 OFFCURVE",
"195 -39 CURVE SMOOTH",
"317 575 LINE SMOOTH",
"327 625 OFFCURVE",
"359 646 OFFCURVE",
"395 646 CURVE SMOOTH",
"409 646 OFFCURVE",
"420 643 OFFCURVE",
"433 636 CURVE",
"482 751 LINE",
"452 763 OFFCURVE",
"421 768 OFFCURVE",
"393 768 CURVE SMOOTH",
"289 768 OFFCURVE",
"208 704 OFFCURVE",
"186 593 CURVE SMOOTH",
"64 -21 LINE SMOOTH",
"54 -71 OFFCURVE",
"22 -92 OFFCURVE",
"-13 -92 CURVE SMOOTH",
"-24 -92 OFFCURVE",
"-32 -90 OFFCURVE",
"-41 -87 CURVE",
"-65 -207 LINE",
"-46 -212 OFFCURVE",
"-29 -214 OFFCURVE",
"-11 -214 CURVE SMOOTH"
);
},
{
closed = 1;
nodes = (
"407 415 LINE",
"429 523 LINE",
"82 523 LINE",
"59 415 LINE"
);
}
);
width = 403;
}
);
leftKerningGroup = LAT_F_LC;
rightKerningGroup = LAT_F_LC;
unicode = 0066;
},
{
glyphname = f.ss01;
lastChange = "2020-06-14 04:17:43 +0000";
layers = (
{
anchors = (
{
name = bottom;
position = "{98, 0}";
},
{
name = top;
position = "{336, 752}";
}
);
layerId = "AB099EFE-E788-4EFC-8633-CF147CB782A6";
paths = (
{
closed = 1;
nodes = (
"110 0 LINE",
"234 618 LINE SMOOTH",
"247 684 OFFCURVE",
"294 732 OFFCURVE",
"342 732 CURVE SMOOTH",
"357 732 OFFCURVE",
"375 728 OFFCURVE",
"388 721 CURVE",
"400 747 LINE",
"384 756 OFFCURVE",
"365 760 OFFCURVE",
"345 760 CURVE SMOOTH",
"280 760 OFFCURVE",
"220 703 OFFCURVE",
"203 616 CURVE SMOOTH",
"80 0 LINE"
);
},
{
closed = 1;
nodes = (
"335 484 LINE",
"340 512 LINE",
"100 512 LINE",
"93 484 LINE"
);
}
);
width = 338;
},
{
anchors = (
{
name = bottom;
position = "{157, 0}";
},
{
name = top;
position = "{373, 752}";
}
);
layerId = "2D8F7115-C311-411E-929D-56333CF7FFB2";
paths = (
{
closed = 1;
nodes = (
"237 0 LINE",
"346 550 LINE SMOOTH",
"355 596 OFFCURVE",
"388 621 OFFCURVE",
"426 621 CURVE SMOOTH",
"437 621 OFFCURVE",
"447 619 OFFCURVE",
"458 612 CURVE",
"520 758 LINE",
"486 772 OFFCURVE",
"449 778 OFFCURVE",
"416 778 CURVE SMOOTH",
"293 778 OFFCURVE",
"204 701 OFFCURVE",
"178 570 CURVE SMOOTH",
"63 0 LINE"
);
},
{
closed = 1;
nodes = (
"428 380 LINE",
"460 528 LINE",
"75 528 LINE",
"43 380 LINE"
);
}
);
width = 434;
},
{
anchors = (
{
name = bottom;
position = "{128, 0}";
},
{
name = top;
position = "{369, 752}";
}
);
associatedMasterId = "AB099EFE-E788-4EFC-8633-CF147CB782A6";
layerId = "D74EF1A5-D3D7-4756-8257-D68E12FD6949";
name = "Half {450}";
paths = (
{
closed = 1;
nodes = (
"176 0 LINE",
"296 594 LINE SMOOTH",
"306 643 OFFCURVE",
"337 665 OFFCURVE",
"377 665 CURVE SMOOTH",
"390 665 OFFCURVE",
"404 661 OFFCURVE",
"419 654 CURVE",
"458 746 LINE",
"431 756 OFFCURVE",
"404 760 OFFCURVE",
"379 760 CURVE SMOOTH",
"293 760 OFFCURVE",
"217 709 OFFCURVE",
"197 610 CURVE SMOOTH",
"74 0 LINE"
);
},
{
closed = 1;
nodes = (
"386 430 LINE",
"406 520 LINE",
"88 520 LINE",
"66 430 LINE"
);
}
);
width = 385;
},
{
anchors = (
{
name = bottom;
position = "{140, 0}";
},
{
name = top;
position = "{370, 752}";
}
);
associatedMasterId = "AB099EFE-E788-4EFC-8633-CF147CB782A6";
layerId = "516F4623-5CD8-441C-8966-F6D84AE729AE";
name = "{600}";
paths = (
{
closed = 1;
nodes = (
"201 0 LINE",
"317 575 LINE SMOOTH",
"327 623 OFFCURVE",
"358 646 OFFCURVE",
"398 646 CURVE SMOOTH",
"409 646 OFFCURVE",
"423 644 OFFCURVE",
"437 638 CURVE",
"484 753 LINE",
"455 763 OFFCURVE",
"425 768 OFFCURVE",
"396 768 CURVE SMOOTH",
"298 768 OFFCURVE",
"211 706 OFFCURVE",
"188 593 CURVE SMOOTH",
"69 0 LINE"
);
},
{
closed = 1;
nodes = (
"407 415 LINE",
"428 523 LINE",
"80 523 LINE",
"59 415 LINE"
);
}
);
width = 404;
}
);
leftKerningGroup = LAT_F_LC;
rightKerningGroup = LAT_F_LC;
},
{
glyphname = g;
lastChange = "2020-06-16 12:18:42 +0000";
layers = (
{
anchors = (
{
name = bottom;
position = "{189, -206}";
},
{
name = top;
position = "{329, 512}";
}
);
components = (
{
name = "_part.bowl-reverse";
}
);
guideLines = (
{
angle = 67.5;
position = "{64, -8}";
}
);
layerId = "AB099EFE-E788-4EFC-8633-CF147CB782A6";
paths = (
{
closed = 1;
nodes = (
"283 -212 OFFCURVE",
"399 -158 OFFCURVE",
"431 2 CURVE SMOOTH",
"533 512 LINE",
"503 512 LINE",
"480 396 LINE",
"476 396 LINE",
"479 374 LINE",
"429 138 LINE",
"416 98 LINE",
"420 98 LINE",
"401 4 LINE SMOOTH",
"372 -140 OFFCURVE",
"271 -184 OFFCURVE",
"185 -184 CURVE SMOOTH",
"125 -184 OFFCURVE",
"61 -162 OFFCURVE",
"24 -115 CURVE",
"10 -146 LINE",
"44 -184 OFFCURVE",
"113 -212 OFFCURVE",
"184 -212 CURVE SMOOTH"
);
}
);
width = 570;
},
{
anchors = (
{
name = bottom;
position = "{213, -206}";
},
{
name = top;
position = "{350, 528}";
}
);
components = (
{
name = "_part.bowl-reverse";
transform = "{1, 0, 0, 0.9597, 2, 22}";
}
);
guideLines = (
{
angle = 67.5;
position = "{46, -16}";
}
);
layerId = "2D8F7115-C311-411E-929D-56333CF7FFB2";
paths = (
{
closed = 1;
nodes = (
"353 -214 OFFCURVE",
"484 -134 OFFCURVE",
"516 26 CURVE SMOOTH",
"617 528 LINE",
"457 528 LINE",
"444 462 LINE",
"410 462 LINE",
"432 420 LINE",
"368 112 LINE",
"347 60 LINE",
"363 60 LINE",
"356 32 LINE SMOOTH",
"340 -34 OFFCURVE",
"271 -70 OFFCURVE",
"202 -70 CURVE SMOOTH",
"140 -70 OFFCURVE",
"79 -45 OFFCURVE",
"46 -16 CURVE",
"-12 -156 LINE",
"26 -182 OFFCURVE",
"102 -214 OFFCURVE",
"202 -214 CURVE SMOOTH"
);
}
);
width = 628;
},
{
anchors = (
{
name = bottom;
position = "{205, -206}";
},
{
name = top;
position = "{344, 520}";
}
);
associatedMasterId = "AB099EFE-E788-4EFC-8633-CF147CB782A6";
components = (
{
name = "_part.bowl-reverse";
}
);
guideLines = (
{
angle = 67.5;
position = "{54, 4}";
}
);
layerId = "D548E82C-F1D5-44DE-B786-3582CB4D3885";
name = "Half {450}";
paths = (
{
closed = 1;
nodes = (
"349 -214 OFFCURVE",
"448 -134 OFFCURVE",
"477 10 CURVE SMOOTH",
"580 520 LINE",
"480 520 LINE",
"466 449 LINE",
"438 449 LINE",
"455 384 LINE",
"402 122 LINE",
"368 57 LINE",
"388 57 LINE",
"380 16 LINE SMOOTH",
"362 -75 OFFCURVE",
"295 -123 OFFCURVE",
"208 -123 CURVE SMOOTH",
"143 -123 OFFCURVE",
"73 -99 OFFCURVE",
"36 -59 CURVE",
"-1 -148 LINE",
"38 -182 OFFCURVE",
"115 -214 OFFCURVE",
"208 -214 CURVE SMOOTH"
);
}
);
width = 600;
}
);
leftKerningGroup = LAT_G_LC;
rightKerningGroup = LAT_G_LC;
unicode = 0067;
},
{
color = 4;
glyphname = g.ss01;
lastChange = "2020-06-14 07:27:56 +0000";
layers = (
{
anchors = (
{
name = bottom;
position = "{217, -206}";
},
{
name = top;
position = "{358, 512}";
}
);
components = (
{
name = "_part.bowl-reverse.ss01";
}
);
layerId = "AB099EFE-E788-4EFC-8633-CF147CB782A6";
paths = (
{
closed = 1;
nodes = (
"333 -212 OFFCURVE",
"455 -158 OFFCURVE",
"487 2 CURVE SMOOTH",
"589 512 LINE",
"559 512 LINE",
"534 388 LINE",
"526 388 LINE",
"531 362 LINE",
"489 154 LINE",
"474 120 LINE",
"482 120 LINE",
"457 4 LINE SMOOTH",
"426 -140 OFFCURVE",
"319 -184 OFFCURVE",
"232 -184 CURVE SMOOTH",
"162 -184 OFFCURVE",
"98 -162 OFFCURVE",
"61 -115 CURVE",
"47 -146 LINE",
"81 -184 OFFCURVE",
"153 -212 OFFCURVE",
"234 -212 CURVE SMOOTH"
);
}
);
width = 626;
},
{
anchors = (
{
name = bottom;
position = "{230, -206}";
},
{
name = top;
position = "{366, 528}";
}
);
components = (
{
name = "_part.bowl-reverse.ss01";
transform = "{1, 0, 0, 0.95973, 3, 22}";
}
);
layerId = "2D8F7115-C311-411E-929D-56333CF7FFB2";
paths = (
{
closed = 1;
nodes = (
"379 -214 OFFCURVE",
"514 -134 OFFCURVE",
"546 26 CURVE SMOOTH",
"647 528 LINE",
"483 528 LINE",
"469 463 LINE",
"440 463 LINE",
"462 420 LINE",
"398 112 LINE",
"379 69 LINE",
"391 69 LINE",
"384 32 LINE SMOOTH",
"371 -36 OFFCURVE",
"297 -70 OFFCURVE",
"223 -70 CURVE SMOOTH",
"161 -70 OFFCURVE",
"100 -45 OFFCURVE",
"67 -16 CURVE",
"9 -156 LINE",
"47 -182 OFFCURVE",
"123 -214 OFFCURVE",
"223 -214 CURVE SMOOTH"
);
}
);
width = 658;
},
{
anchors = (
{
name = bottom;
position = "{227, -206}";
},
{
name = top;
position = "{365, 520}";
}
);
associatedMasterId = "AB099EFE-E788-4EFC-8633-CF147CB782A6";
components = (
{
alignment = -1;
name = "_part.bowl-reverse.ss01";
}
);
layerId = "D548E82C-F1D5-44DE-B786-3582CB4D3885";
name = "Half {450}";
paths = (
{
closed = 1;
nodes = (
"382 -214 OFFCURVE",
"491 -134 OFFCURVE",
"520 10 CURVE SMOOTH",
"623 520 LINE",
"522 520 LINE",
"503 435 LINE",
"478 435 LINE",
"498 384 LINE",
"445 122 LINE",
"411 65 LINE",
"432 65 LINE",
"422 16 LINE SMOOTH",
"404 -74 OFFCURVE",
"328 -123 OFFCURVE",
"241 -123 CURVE SMOOTH",
"176 -123 OFFCURVE",
"96 -99 OFFCURVE",
"59 -59 CURVE",
"22 -148 LINE",
"61 -182 OFFCURVE",
"148 -214 OFFCURVE",
"241 -214 CURVE SMOOTH"
);
}
);
width = 643;
}
);
leftKerningGroup = LAT_G_LC;
leftMetricsKey = g;
rightKerningGroup = LAT_G_LC;
rightMetricsKey = g;
},
{
color = 7;
glyphname = g.ss03;
lastChange = "2020-06-14 07:13:58 +0000";
layers = (
{
anchors = (
{
name = bottom;
position = "{187, -214}";
},
{
name = top;
position = "{319, 512}";
}
);
background = {
paths = (
{
closed = 1;
nodes = (
"440 454 LINE",
"458 478 LINE SMOOTH",
"472 497 OFFCURVE",
"497 516 OFFCURVE",
"542 516 CURVE",
"542 544 LINE",
"499 545 OFFCURVE",
"462 528 OFFCURVE",
"438 500 CURVE SMOOTH",
"420 476 LINE"
);
}
);
};
layerId = "AB099EFE-E788-4EFC-8633-CF147CB782A6";
paths = (
{
closed = 1;
nodes = (
"312 -214 OFFCURVE",
"428 -144 OFFCURVE",
"446 -56 CURVE SMOOTH",
"460 11 OFFCURVE",
"417 62 OFFCURVE",
"316 62 CURVE SMOOTH",
"186 62 LINE SMOOTH",
"123 62 OFFCURVE",
"83 94 OFFCURVE",
"93 150 CURVE SMOOTH",
"98 180 OFFCURVE",
"122 203 OFFCURVE",
"135 214 CURVE",
"119 236 LINE",
"100 223 OFFCURVE",
"74 188 OFFCURVE",
"68 160 CURVE SMOOTH",
"54 94 OFFCURVE",
"90 34 OFFCURVE",
"181 34 CURVE SMOOTH",
"321 34 LINE SMOOTH",
"397 34 OFFCURVE",
"424 -4 OFFCURVE",
"415 -48 CURVE SMOOTH",
"398 -132 OFFCURVE",
"296 -186 OFFCURVE",
"182 -186 CURVE SMOOTH",
"75 -186 OFFCURVE",
"14 -140 OFFCURVE",
"28 -70 CURVE SMOOTH",
"39 -18 OFFCURVE",
"92 36 OFFCURVE",
"134 52 CURVE",
"109 70 LINE",
"58 44 OFFCURVE",
"10 -10 OFFCURVE",
"0 -67 CURVE SMOOTH",
"-16 -152 OFFCURVE",
"54 -214 OFFCURVE",
"181 -214 CURVE SMOOTH"
);
},
{
closed = 1;
nodes = (
"367 162 OFFCURVE",
"457 236 OFFCURVE",
"477 338 CURVE SMOOTH",
"498 448 OFFCURVE",
"435 520 OFFCURVE",
"319 520 CURVE SMOOTH",
"207 520 OFFCURVE",
"116 452 OFFCURVE",
"95 347 CURVE SMOOTH",
"74 238 OFFCURVE",
"139 162 OFFCURVE",
"255 162 CURVE SMOOTH"
);
},
{
closed = 1;
nodes = (
"155 190 OFFCURVE",
"109 262 OFFCURVE",
"125 341 CURVE SMOOTH",
"143 428 OFFCURVE",
"223 492 OFFCURVE",
"318 492 CURVE SMOOTH",
"412 492 OFFCURVE",
"465 433 OFFCURVE",
"447 343 CURVE SMOOTH",
"430 256 OFFCURVE",
"348 190 OFFCURVE",
"252 190 CURVE SMOOTH"
);
},
{
closed = 1;
nodes = (
"493 473 OFFCURVE",
"528 488 OFFCURVE",
"566 506 CURVE",
"554 534 LINE",
"518 518 OFFCURVE",
"474 491 OFFCURVE",
"442 472 CURVE",
"453 446 LINE"
);
}
);
width = 572;
},
{
anchors = (
{
name = bottom;
position = "{196, -218}";
},
{
name = top;
position = "{336, 528}";
}
);
background = {
paths = (
{
closed = 1;
nodes = (
"471 430 LINE",
"481 446 LINE SMOOTH",
"497 471 OFFCURVE",
"541 475 OFFCURVE",
"595 472 CURVE",
"595 598 LINE",
"525 598 OFFCURVE",
"462 570 OFFCURVE",
"427 522 CURVE SMOOTH",
"391 474 LINE"
);
}
);
};
layerId = "2D8F7115-C311-411E-929D-56333CF7FFB2";
paths = (
{
closed = 1;
nodes = (
"388 -214 OFFCURVE",
"490 -156 OFFCURVE",
"511 -57 CURVE SMOOTH",
"531 34 OFFCURVE",
"479 102 OFFCURVE",
"365 102 CURVE SMOOTH",
"247 102 LINE SMOOTH",
"197 102 OFFCURVE",
"159 113 OFFCURVE",
"163 136 CURVE SMOOTH",
"168 166 OFFCURVE",
"188 184 OFFCURVE",
"203 190 CURVE",
"148 250 LINE",
"81 220 OFFCURVE",
"55 163 OFFCURVE",
"49 134 CURVE SMOOTH",
"31 52 OFFCURVE",
"116 -4 OFFCURVE",
"252 -4 CURVE SMOOTH",
"308 -4 LINE SMOOTH",
"344 -4 OFFCURVE",
"360 -12 OFFCURVE",
"358 -24 CURVE SMOOTH",
"351 -62 OFFCURVE",
"299 -88 OFFCURVE",
"225 -88 CURVE SMOOTH",
"161 -88 OFFCURVE",
"93 -82 OFFCURVE",
"101 -40 CURVE SMOOTH",
"106 -16 OFFCURVE",
"136 18 OFFCURVE",
"165 26 CURVE",
"69 64 LINE",
"24 53 OFFCURVE",
"-28 -3 OFFCURVE",
"-39 -52 CURVE SMOOTH",
"-58 -143 OFFCURVE",
"25 -214 OFFCURVE",
"208 -214 CURVE SMOOTH"
);
},
{
closed = 1;
nodes = (
"385 150 OFFCURVE",
"495 215 OFFCURVE",
"519 330 CURVE SMOOTH",
"543 449 OFFCURVE",
"461 536 OFFCURVE",
"328 536 CURVE SMOOTH",
"209 536 OFFCURVE",
"103 468 OFFCURVE",
"84 371 CURVE SMOOTH",
"59 244 OFFCURVE",
"138 150 OFFCURVE",
"273 150 CURVE SMOOTH"
);
},
{
closed = 1;
nodes = (
"238 266 OFFCURVE",
"215 289 OFFCURVE",
"222 328 CURVE SMOOTH",
"230 371 OFFCURVE",
"274 416 OFFCURVE",
"323 416 CURVE SMOOTH",
"363 416 OFFCURVE",
"384 390 OFFCURVE",
"377 355 CURVE SMOOTH",
"368 306 OFFCURVE",
"327 266 OFFCURVE",
"277 266 CURVE SMOOTH"
);
},
{
closed = 1;
nodes = (
"546 451 OFFCURVE",
"564 458 OFFCURVE",
"622 458 CURVE",
"610 584 LINE",
"559 570 OFFCURVE",
"520 553 OFFCURVE",
"428 496 CURVE",
"493 432 LINE"
);
}
);
width = 593;
},
{
anchors = (
{
name = bottom;
position = "{190, -216}";
},
{
name = top;
position = "{335, 520}";
}
);
associatedMasterId = "AB099EFE-E788-4EFC-8633-CF147CB782A6";
background = {
paths = (
{
closed = 1;
nodes = (
"487 509 OFFCURVE",
"504 512 OFFCURVE",
"520 516 CURVE",
"518 588 LINE",
"489 583 OFFCURVE",
"465 577 OFFCURVE",
"442 566 CURVE",
"420 553 OFFCURVE",
"403 541 OFFCURVE",
"388 528 CURVE",
"374 504 LINE",
"347 512 OFFCURVE",
"319 520 OFFCURVE",
"288 518 CURVE",
"250 520 OFFCURVE",
"217 512 OFFCURVE",
"188 498 CURVE",
"158 482 OFFCURVE",
"135 462 OFFCURVE",
"120 436 CURVE",
"102 412 OFFCURVE",
"92 383 OFFCURVE",
"92 350 CURVE",
"92 317 OFFCURVE",
"102 288 OFFCURVE",
"120 262 CURVE",
"125 250 OFFCURVE",
"133 242 OFFCURVE",
"142 234 CURVE",
"137 225 OFFCURVE",
"132 220 OFFCURVE",
"128 214 CURVE",
"115 192 OFFCURVE",
"109 171 OFFCURVE",
"108 146 CURVE",
"109 122 OFFCURVE",
"116 100 OFFCURVE",
"130 78 CURVE",
"128 78 OFFCURVE",
"128 78 OFFCURVE",
"130 78 CURVE",
"113 66 OFFCURVE",
"100 51 OFFCURVE",
"90 32 CURVE",
"74 7 OFFCURVE",
"67 -18 OFFCURVE",
"66 -48 CURVE",
"67 -78 OFFCURVE",
"77 -107 OFFCURVE",
"94 -132 CURVE",
"115 -156 OFFCURVE",
"143 -178 OFFCURVE",
"178 -192 CURVE",
"213 -206 OFFCURVE",
"252 -213 OFFCURVE",
"294 -214 CURVE",
"341 -213 OFFCURVE",
"384 -206 OFFCURVE",
"422 -192 CURVE",
"458 -178 OFFCURVE",
"488 -157 OFFCURVE",
"510 -132 CURVE",
"531 -106 OFFCURVE",
"543 -75 OFFCURVE",
"544 -40 CURVE",
"543 -4 OFFCURVE",
"531 24 OFFCURVE",
"512 44 CURVE",
"489 60 OFFCURVE",
"465 73 OFFCURVE",
"438 78 CURVE",
"411 83 OFFCURVE",
"381 86 OFFCURVE",
"348 86 CURVE",
"286 86 LINE",
"252 86 OFFCURVE",
"227 92 OFFCURVE",
"212 104 CURVE",
"198 118 OFFCURVE",
"190 134 OFFCURVE",
"190 152 CURVE",
"190 168 OFFCURVE",
"195 182 OFFCURVE",
"204 194 CURVE",
"229 182 OFFCURVE",
"258 177 OFFCURVE",
"290 176 CURVE",
"326 177 OFFCURVE",
"360 184 OFFCURVE",
"388 198 CURVE",
"417 214 OFFCURVE",
"440 234 OFFCURVE",
"458 262 CURVE",
"473 287 OFFCURVE",
"481 317 OFFCURVE",
"480 348 CURVE",
"481 382 OFFCURVE",
"473 411 OFFCURVE",
"456 436 CURVE",
"450 447 OFFCURVE",
"442 456 OFFCURVE",
"434 464 CURVE",
"438 470 LINE",
"446 482 OFFCURVE",
"458 492 OFFCURVE",
"470 502 CURVE"
);
},
{
closed = 1;
nodes = (
"348 8 LINE",
"376 9 OFFCURVE",
"402 5 OFFCURVE",
"424 -2 CURVE",
"443 -8 OFFCURVE",
"454 -26 OFFCURVE",
"454 -50 CURVE",
"454 -66 OFFCURVE",
"447 -82 OFFCURVE",
"432 -96 CURVE",
"416 -109 OFFCURVE",
"397 -119 OFFCURVE",
"374 -126 CURVE",
"349 -133 OFFCURVE",
"324 -136 OFFCURVE",
"296 -138 CURVE",
"255 -136 OFFCURVE",
"219 -127 OFFCURVE",
"190 -110 CURVE",
"163 -92 OFFCURVE",
"150 -71 OFFCURVE",
"148 -48 CURVE",
"150 -29 OFFCURVE",
"155 -11 OFFCURVE",
"168 6 CURVE",
"174 14 OFFCURVE",
"180 23 OFFCURVE",
"188 28 CURVE",
"187 29 OFFCURVE",
"187 28 OFFCURVE",
"190 28 CURVE",
"215 14 OFFCURVE",
"247 9 OFFCURVE",
"288 8 CURVE"
);
},
{
closed = 1;
nodes = (
"347 261 OFFCURVE",
"321 251 OFFCURVE",
"290 250 CURVE",
"256 252 OFFCURVE",
"228 261 OFFCURVE",
"208 282 CURVE",
"186 297 OFFCURVE",
"176 321 OFFCURVE",
"176 350 CURVE",
"176 379 OFFCURVE",
"186 403 OFFCURVE",
"208 422 CURVE",
"227 438 OFFCURVE",
"255 447 OFFCURVE",
"288 448 CURVE",
"320 447 OFFCURVE",
"346 437 OFFCURVE",
"368 422 CURVE",
"388 402 OFFCURVE",
"399 378 OFFCURVE",
"400 348 CURVE",
"399 321 OFFCURVE",
"388 297 OFFCURVE",
"368 282 CURVE"
);
},
{
closed = 1;
nodes = (
"444 454 LINE",
"458 474 LINE SMOOTH",
"473 495 OFFCURVE",
"506 508 OFFCURVE",
"558 508 CURVE",
"558 584 LINE",
"499 584 OFFCURVE",
"442 565 OFFCURVE",
"416 528 CURVE SMOOTH",
"392 490 LINE"
);
}
);
};
layerId = "D548E82C-F1D5-44DE-B786-3582CB4D3885";
name = "Half {450}";
paths = (
{
closed = 1;
nodes = (
"353 -216 OFFCURVE",
"467 -143 OFFCURVE",
"488 -47 CURVE SMOOTH",
"506 34 OFFCURVE",
"447 88 OFFCURVE",
"354 88 CURVE SMOOTH",
"236 88 LINE SMOOTH",
"204 88 OFFCURVE",
"145 88 OFFCURVE",
"155 141 CURVE SMOOTH",
"160 165 OFFCURVE",
"174 178 OFFCURVE",
"197 192 CURVE",
"148 238 LINE",
"103 212 OFFCURVE",
"76 182 OFFCURVE",
"69 144 CURVE SMOOTH",
"57 83 OFFCURVE",
"92 2 OFFCURVE",
"233 2 CURVE SMOOTH",
"301 2 LINE SMOOTH",
"346 2 OFFCURVE",
"394 2 OFFCURVE",
"385 -43 CURVE SMOOTH",
"376 -86 OFFCURVE",
"305 -126 OFFCURVE",
"208 -126 CURVE SMOOTH",
"138 -126 OFFCURVE",
"69 -107 OFFCURVE",
"80 -48 CURVE SMOOTH",
"87 -10 OFFCURVE",
"125 16 OFFCURVE",
"160 26 CURVE",
"87 66 LINE",
"36 44 OFFCURVE",
"-7 -4 OFFCURVE",
"-16 -50 CURVE SMOOTH",
"-37 -152 OFFCURVE",
"53 -216 OFFCURVE",
"196 -216 CURVE SMOOTH"
);
},
{
closed = 1;
nodes = (
"385 158 OFFCURVE",
"484 236 OFFCURVE",
"506 344 CURVE SMOOTH",
"528 450 OFFCURVE",
"451 528 OFFCURVE",
"334 528 CURVE SMOOTH",
"219 528 OFFCURVE",
"113 455 OFFCURVE",
"91 346 CURVE SMOOTH",
"69 240 OFFCURVE",
"146 158 OFFCURVE",
"268 158 CURVE SMOOTH"
);
},
{
closed = 1;
nodes = (
"221 244 OFFCURVE",
"179 284 OFFCURVE",
"189 338 CURVE SMOOTH",
"200 394 OFFCURVE",
"257 440 OFFCURVE",
"325 440 CURVE SMOOTH",
"375 440 OFFCURVE",
"418 411 OFFCURVE",
"405 346 CURVE SMOOTH",
"393 286 OFFCURVE",
"344 244 OFFCURVE",
"280 244 CURVE SMOOTH"
);
},
{
closed = 1;
nodes = (
"523 455 OFFCURVE",
"548 468 OFFCURVE",
"600 476 CURVE",
"573 566 LINE",
"526 548 OFFCURVE",
"482 526 OFFCURVE",
"421 490 CURVE",
"475 436 LINE"
);
}
);
width = 582;
}
);
leftKerningGroup = LAT_G_LC;
rightKerningGroup = LAT_G_LC;
},
{
glyphname = h;
lastChange = "2020-06-16 12:08:52 +0000";
layers = (
{
anchors = (
{
name = bottom;
position = "{216, 0}";
},
{
name = center;
position = "{173, 616}";
},
{
name = top;
position = "{197, 720}";
}
);
background = {
paths = (
{
closed = 1;
nodes = (
"243 520 OFFCURVE",
"175 470 OFFCURVE",
"135 404 CURVE",
"162 428 LINE",
"150 428 LINE",
"214 752 LINE",
"184 752 LINE",
"33 0 LINE",
"63 0 LINE",
"129 324 LINE SMOOTH",
"148 418 OFFCURVE",
"241 492 OFFCURVE",
"330 492 CURVE SMOOTH",
"412 492 OFFCURVE",
"451 429 OFFCURVE",
"427 308 CURVE SMOOTH",
"388 112 LINE SMOOTH",
"377 55 OFFCURVE",
"383 25 OFFCURVE",
"427 -7 CURVE",
"440 24 LINE",
"416 38 OFFCURVE",
"408 62 OFFCURVE",
"416 104 CURVE SMOOTH",
"457 309 LINE SMOOTH",
"484 445 OFFCURVE",
"436 520 OFFCURVE",
"330 520 CURVE SMOOTH"
);
}
);
};
layerId = "AB099EFE-E788-4EFC-8633-CF147CB782A6";
paths = (
{
closed = 1;
nodes = (
"432 24 LINE",
"407 39 OFFCURVE",
"401 65 OFFCURVE",
"409 104 CURVE SMOOTH",
"450 309 LINE SMOOTH",
"477 445 OFFCURVE",
"430 520 OFFCURVE",
"326 520 CURVE SMOOTH",
"242 520 OFFCURVE",
"174 470 OFFCURVE",
"135 404 CURVE",
"162 428 LINE",
"150 428 LINE",
"214 752 LINE",
"184 752 LINE",
"33 0 LINE",
"63 0 LINE",
"129 324 LINE SMOOTH",
"148 418 OFFCURVE",
"240 492 OFFCURVE",
"326 492 CURVE SMOOTH",
"406 492 OFFCURVE",
"444 429 OFFCURVE",
"420 308 CURVE SMOOTH",
"381 112 LINE SMOOTH",
"370 55 OFFCURVE",
"376 26 OFFCURVE",
"419 -7 CURVE"
);
}
);
width = 526;
},
{
anchors = (
{
name = bottom;
position = "{245, 0}";
},
{
name = center;
position = "{220, 634}";
},
{
name = top;
position = "{243, 752}";
}
);
background = {
paths = (
{
closed = 1;
nodes = (
"181 0 LINE",
"241 300 LINE SMOOTH",
"252 356 OFFCURVE",
"282 394 OFFCURVE",
"329 394 CURVE SMOOTH",
"363 394 OFFCURVE",
"397 374 OFFCURVE",
"385 318 CURVE SMOOTH",
"350 153 LINE SMOOTH",
"326 41 OFFCURVE",
"389 -5 OFFCURVE",
"488 -9 CURVE",
"548 132 LINE",
"528 136 OFFCURVE",
"523 148 OFFCURVE",
"530 184 CURVE SMOOTH",
"563 342 LINE SMOOTH",
"587 458 OFFCURVE",
"526 536 OFFCURVE",
"411 536 CURVE SMOOTH",
"343 536 OFFCURVE",
"274 508 OFFCURVE",
"244 432 CURVE",
"292 490 LINE",
"280 490 LINE",
"331 752 LINE",
"157 752 LINE",
"7 0 LINE"
);
}
);
};
layerId = "2D8F7115-C311-411E-929D-56333CF7FFB2";
paths = (
{
closed = 1;
nodes = (
"549 132 LINE",
"529 136 OFFCURVE",
"517 148 OFFCURVE",
"524 184 CURVE SMOOTH",
"556 342 LINE SMOOTH",
"579 455 OFFCURVE",
"523 536 OFFCURVE",
"408 536 CURVE SMOOTH",
"342 536 OFFCURVE",
"274 508 OFFCURVE",
"244 432 CURVE",
"292 490 LINE",
"280 490 LINE",
"331 752 LINE",
"157 752 LINE",
"7 0 LINE",
"182 0 LINE",
"242 300 LINE SMOOTH",
"253 356 OFFCURVE",
"281 394 OFFCURVE",
"325 394 CURVE SMOOTH",
"356 394 OFFCURVE",
"388 374 OFFCURVE",
"376 318 CURVE SMOOTH",
"341 153 LINE SMOOTH",
"317 41 OFFCURVE",
"391 -6 OFFCURVE",
"488 -9 CURVE"
);
}
);
width = 603;
},
{
anchors = (
{
name = bottom;
position = "{223, 0}";
},
{
name = center;
position = "{188, 625}";
},
{
name = top;
position = "{212, 736}";
}
);
associatedMasterId = "AB099EFE-E788-4EFC-8633-CF147CB782A6";
layerId = "39EFB1E4-533D-4678-8F1E-E84D7E2E78D0";
name = "Half {450}";
paths = (
{
closed = 1;
nodes = (
"481 82 LINE",
"447 86 OFFCURVE",
"451 100 OFFCURVE",
"460 147 CURVE SMOOTH",
"496 330 LINE SMOOTH",
"513 416 OFFCURVE",
"476 528 OFFCURVE",
"342 528 CURVE SMOOTH",
"262 528 OFFCURVE",
"197 489 OFFCURVE",
"165 418 CURVE",
"223 485 LINE",
"213 485 LINE",
"264 752 LINE",
"162 752 LINE",
"12 0 LINE",
"115 0 LINE",
"179 312 LINE SMOOTH",
"194 387 OFFCURVE",
"249 435 OFFCURVE",
"316 435 CURVE SMOOTH",
"381 435 OFFCURVE",
"405 391 OFFCURVE",
"389 312 CURVE SMOOTH",
"354 137 LINE SMOOTH",
"339 62 OFFCURVE",
"357 14 OFFCURVE",
"446 -8 CURVE"
);
}
);
width = 556;
}
);
leftKerningGroup = LAT_H_UC;
rightKerningGroup = LAT_N_LC;
rightMetricsKey = n;
unicode = 0068;
},
{
color = 8;
glyphname = idotless;
lastChange = "2020-06-16 07:28:17 +0000";
layers = (
{
anchors = (
{
name = bottom;
position = "{86, 0}";
},
{
name = center;
position = "{109, 278}";
},
{
name = ogonek;
position = "{148, 6}";
},
{
name = top;
position = "{157, 512}";
}
);
guideLines = (
{
angle = 80;
position = "{63, -8}";
}
);
layerId = "AB099EFE-E788-4EFC-8633-CF147CB782A6";
paths = (
{
closed = 1;
nodes = (
"125 -4 OFFCURVE",
"140 0 OFFCURVE",
"149 6 CURVE",
"156 37 LINE",
"146 31 OFFCURVE",
"129 24 OFFCURVE",
"112 24 CURVE SMOOTH",
"78 24 OFFCURVE",
"81 56 OFFCURVE",
"90 100 CURVE SMOOTH",
"172 512 LINE",
"142 512 LINE",
"61 110 LINE SMOOTH",
"50 57 OFFCURVE",
"43 -4 OFFCURVE",
"110 -4 CURVE SMOOTH"
);
}
);
width = 231;
},
{
anchors = (
{
name = bottom;
position = "{101, 0}";
},
{
name = center;
position = "{155, 278}";
},
{
name = ogonek;
position = "{242, 8}";
},
{
name = top;
position = "{202, 528}";
}
);
guideLines = (
{
angle = 80;
position = "{152, -8}";
}
);
layerId = "2D8F7115-C311-411E-929D-56333CF7FFB2";
paths = (
{
closed = 1;
nodes = (
"191 -8 OFFCURVE",
"230 -2 OFFCURVE",
"253 10 CURVE",
"268 150 LINE",
"261 144 OFFCURVE",
"247 136 OFFCURVE",
"230 136 CURVE SMOOTH",
"221 136 OFFCURVE",
"214 146 OFFCURVE",
"218 166 CURVE SMOOTH",
"289 528 LINE",
"114 528 LINE",
"40 152 LINE SMOOTH",
"24 72 OFFCURVE",
"55 -8 OFFCURVE",
"164 -8 CURVE SMOOTH"
);
}
);
width = 323;
},
{
anchors = (
{
name = bottom;
position = "{108, 0}";
},
{
name = center;
position = "{132, 278}";
},
{
name = ogonek;
position = "{218, 4}";
},
{
name = top;
position = "{181, 520}";
}
);
associatedMasterId = "AB099EFE-E788-4EFC-8633-CF147CB782A6";
guideLines = (
{
angle = 80;
position = "{105, -8}";
}
);
layerId = "FCE0932C-1120-48E4-95DD-8C2B49BF8D66";
name = "Half {450}";
paths = (
{
closed = 1;
nodes = (
"178 -8 OFFCURVE",
"192 -3 OFFCURVE",
"209 4 CURVE",
"229 103 LINE",
"219 95 OFFCURVE",
"200 89 OFFCURVE",
"183 89 CURVE SMOOTH",
"144 89 OFFCURVE",
"152 122 OFFCURVE",
"155 137 CURVE SMOOTH",
"232 520 LINE",
"128 520 LINE",
"49 126 LINE SMOOTH",
"31 38 OFFCURVE",
"84 -8 OFFCURVE",
"154 -8 CURVE SMOOTH"
);
}
);
width = 280;
}
);
unicode = 0131;
},
{
glyphname = idotless.ss01;
lastChange = "2020-06-14 03:55:12 +0000";
layers = (
{
anchors = (
{
name = bottom;
position = "{49, 0}";
},
{
name = ogonek;
position = "{65, 0}";
},
{
name = top;
position = "{153, 512}";
}
);
layerId = "AB099EFE-E788-4EFC-8633-CF147CB782A6";
paths = (
{
closed = 1;
nodes = (
"67 0 LINE",
"169 512 LINE",
"139 512 LINE",
"37 0 LINE"
);
}
);
width = 206;
},
{
anchors = (
{
name = bottom;
position = "{97, 0}";
},
{
name = ogonek;
position = "{187, 0}";
},
{
name = top;
position = "{203, 528}";
}
);
guideLines = (
{
angle = 60;
position = "{91, 0}";
}
);
layerId = "2D8F7115-C311-411E-929D-56333CF7FFB2";
paths = (
{
closed = 1;
nodes = (
"183 0 LINE",
"289 528 LINE",
"115 528 LINE",
"9 0 LINE"
);
}
);
width = 298;
},
{
anchors = (
{
name = bottom;
position = "{68, 0}";
},
{
name = ogonek;
position = "{72, 0}";
},
{
name = top;
position = "{174, 520}";
}
);
associatedMasterId = "AB099EFE-E788-4EFC-8633-CF147CB782A6";
layerId = "AE9AEE94-C3D5-4AA6-8DA1-95250520065B";
name = "Half {450}";
paths = (
{
closed = 1;
nodes = (
"118 0 LINE",
"224 520 LINE",
"122 520 LINE",
"16 0 LINE"
);
}
);
width = 240;
}
);
},
{
glyphname = jdotless;
lastChange = "2020-06-16 07:29:09 +0000";
layers = (
{
anchors = (
{
name = center;
position = "{120, 278}";
},
{
name = top;
position = "{166, 512}";
}
);
layerId = "AB099EFE-E788-4EFC-8633-CF147CB782A6";
paths = (
{
closed = 1;
nodes = (
"-2 -214 OFFCURVE",
"50 -152 OFFCURVE",
"66 -70 CURVE SMOOTH",
"182 512 LINE",
"151 512 LINE",
"35 -72 LINE SMOOTH",
"23 -132 OFFCURVE",
"-15 -184 OFFCURVE",
"-78 -184 CURVE SMOOTH",
"-85 -184 OFFCURVE",
"-96 -183 OFFCURVE",
"-108 -179 CURVE",
"-114 -208 LINE",
"-101 -212 OFFCURVE",
"-87 -214 OFFCURVE",
"-74 -214 CURVE SMOOTH"
);
}
);
width = 217;
},
{
anchors = (
{
name = center;
position = "{162, 278}";
},
{
name = top;
position = "{209, 528}";
}
);
layerId = "2D8F7115-C311-411E-929D-56333CF7FFB2";
paths = (
{
closed = 1;
nodes = (
"91 -218 OFFCURVE",
"166 -136 OFFCURVE",
"190 -14 CURVE SMOOTH",
"297 528 LINE",
"122 528 LINE",
"15 -10 LINE SMOOTH",
"10 -36 OFFCURVE",
"-11 -64 OFFCURVE",
"-49 -64 CURVE SMOOTH",
"-56 -64 OFFCURVE",
"-77 -64 OFFCURVE",
"-85 -60 CURVE",
"-116 -208 LINE",
"-89 -214 OFFCURVE",
"-62 -218 OFFCURVE",
"-34 -218 CURVE SMOOTH"
);
}
);
width = 307;
},
{
anchors = (
{
name = center;
position = "{139, 278}";
},
{
name = top;
position = "{186, 520}";
}
);
associatedMasterId = "AB099EFE-E788-4EFC-8633-CF147CB782A6";
layerId = "07B42797-D86D-41F2-ABBA-4C41B9928AA5";
name = "{450}";
paths = (
{
closed = 1;
nodes = (
"43 -215 OFFCURVE",
"105 -136 OFFCURVE",
"120 -62 CURVE SMOOTH",
"238 520 LINE",
"134 520 LINE",
"20 -46 LINE SMOOTH",
"10 -94 OFFCURVE",
"-21 -118 OFFCURVE",
"-62 -118 CURVE SMOOTH",
"-74 -118 OFFCURVE",
"-90 -116 OFFCURVE",
"-102 -111 CURVE",
"-121 -206 LINE",
"-117 -207 OFFCURVE",
"-86 -215 OFFCURVE",
"-55 -215 CURVE SMOOTH"
);
}
);
width = 252;
}
);
leftKerningGroup = LAT_J_LC;
rightKerningGroup = LAT_J_LC;
unicode = 0237;
},
{
glyphname = k;
lastChange = "2020-06-16 12:25:25 +0000";
layers = (
{
anchors = (
{
name = bottom;
position = "{198, 0}";
},
{
name = top;
position = "{197, 752}";
}
);
layerId = "AB099EFE-E788-4EFC-8633-CF147CB782A6";
paths = (
{
closed = 1;
nodes = (
"64 0 LINE",
"113 246 LINE",
"151 246 LINE",
"133 258 LINE",
"341 0 LINE",
"379 0 LINE",
"161 269 LINE",
"159 251 LINE",
"457 512 LINE",
"415 512 LINE",
"131 264 LINE",
"157 276 LINE",
"119 276 LINE",
"214 752 LINE",
"183 752 LINE",
"33 0 LINE"
);
}
);
width = 462;
},
{
anchors = (
{
name = bottom;
position = "{256, 0}";
},
{
name = top;
position = "{245, 752}";
}
);
layerId = "2D8F7115-C311-411E-929D-56333CF7FFB2";
paths = (
{
closed = 1;
nodes = (
"183 0 LINE",
"227 222 LINE",
"278 222 LINE",
"233 248 LINE",
"353 0 LINE",
"534 0 LINE",
"362 316 LINE",
"370 218 LINE",
"633 528 LINE",
"426 528 LINE",
"250 296 LINE",
"294 322 LINE",
"247 322 LINE",
"332 752 LINE",
"157 752 LINE",
"7 0 LINE"
);
}
);
width = 596;
},
{
anchors = (
{
name = bottom;
position = "{221, 0}";
},
{
name = top;
position = "{213, 752}";
}
);
associatedMasterId = "AB099EFE-E788-4EFC-8633-CF147CB782A6";
layerId = "747C743E-195A-40A8-87E1-D6A4F966DDB7";
name = "Half {450}";
paths = (
{
closed = 1;
nodes = (
"117 0 LINE",
"165 244 LINE",
"208 244 LINE",
"179 262 LINE",
"355 0 LINE",
"471 0 LINE",
"267 298 LINE",
"265 244 LINE",
"552 520 LINE",
"415 520 LINE",
"182 294 LINE",
"225 320 LINE",
"181 320 LINE",
"268 752 LINE",
"164 752 LINE",
"12 0 LINE"
);
}
);
width = 543;
}
);
leftKerningGroup = LAT_H_UC;
leftMetricsKey = h;
rightKerningGroup = LAT_K_LC;
unicode = 006B;
},
{
glyphname = kgreenlandic;
lastChange = "2020-06-16 12:08:53 +0000";
layers = (
{
anchors = (
{
name = bottom;
position = "{184, 0}";
},
{
name = top;
position = "{286, 512}";
}
);
layerId = "AB099EFE-E788-4EFC-8633-CF147CB782A6";
paths = (
{
closed = 1;
nodes = (
"63 0 LINE",
"112 246 LINE",
"149 246 LINE",
"129 258 LINE",
"337 0 LINE",
"377 0 LINE",
"159 270 LINE",
"157 252 LINE",
"463 512 LINE",
"419 512 LINE",
"131 264 LINE",
"155 276 LINE",
"118 276 LINE",
"165 512 LINE",
"135 512 LINE",
"33 0 LINE"
);
}
);
width = 460;
},
{
anchors = (
{
name = bottom;
position = "{246, 0}";
},
{
name = top;
position = "{352, 528}";
}
);
layerId = "2D8F7115-C311-411E-929D-56333CF7FFB2";
paths = (
{
closed = 1;
nodes = (
"181 0 LINE",
"225 222 LINE",
"258 222 LINE",
"213 248 LINE",
"339 0 LINE",
"535 0 LINE",
"353 326 LINE",
"336 226 LINE",
"637 528 LINE",
"427 528 LINE",
"221 296 LINE",
"279 322 LINE",
"246 322 LINE",
"287 528 LINE",
"113 528 LINE",
"7 0 LINE"
);
}
);
width = 596;
}
);
leftMetricsKey = n;
rightMetricsKey = k;
unicode = 0138;
},
{
glyphname = l;
lastChange = "2020-06-16 07:30:10 +0000";
layers = (
{
anchors = (
{
name = bottom;
position = "{77, 0}";
},
{
name = center;
position = "{123, 374}";
},
{
name = top;
position = "{198, 752}";
},
{
name = topright;
position = "{218, 752}";
}
);
background = {
components = (
{
name = l.ss01;
transform = "{1, 0, 0, 1, -9, 0}";
}
);
};
layerId = "AB099EFE-E788-4EFC-8633-CF147CB782A6";
paths = (
{
closed = 1;
nodes = (
"115 -4 OFFCURVE",
"130 2 OFFCURVE",
"138 8 CURVE",
"141 38 LINE",
"136 35 OFFCURVE",
"119 24 OFFCURVE",
"99 24 CURVE SMOOTH",
"67 24 OFFCURVE",
"74 56 OFFCURVE",
"80 84 CURVE SMOOTH",
"214 752 LINE",
"183 752 LINE",
"51 92 LINE SMOOTH",
"41 42 OFFCURVE",
"41 -4 OFFCURVE",
"95 -4 CURVE SMOOTH"
);
}
);
width = 223;
},
{
anchors = (
{
name = bottom;
position = "{115, 0}";
},
{
name = center;
position = "{170, 394}";
},
{
name = top;
position = "{243, 754}";
},
{
name = topright;
position = "{314, 752}";
}
);
background = {
components = (
{
name = l.ss01;
transform = "{1, 0, 0, 1, -4, 0}";
}
);
};
layerId = "2D8F7115-C311-411E-929D-56333CF7FFB2";
paths = (
{
closed = 1;
nodes = (
"193 -8 OFFCURVE",
"227 -2 OFFCURVE",
"251 10 CURVE",
"267 150 LINE",
"258 143 OFFCURVE",
"247 136 OFFCURVE",
"230 136 CURVE SMOOTH",
"219 136 OFFCURVE",
"212 146 OFFCURVE",
"216 166 CURVE SMOOTH",
"332 752 LINE",
"157 752 LINE",
"38 152 LINE SMOOTH",
"22 72 OFFCURVE",
"55 -8 OFFCURVE",
"164 -8 CURVE SMOOTH"
);
}
);
width = 339;
},
{
anchors = (
{
name = bottom;
position = "{92, 0}";
},
{
name = center;
position = "{143, 384}";
},
{
name = top;
position = "{215, 752}";
},
{
name = topright;
position = "{369, 752}";
}
);
associatedMasterId = "AB099EFE-E788-4EFC-8633-CF147CB782A6";
background = {
components = (
{
name = l.ss01;
transform = "{1, 0, 0, 1, -14, 0}";
}
);
};
layerId = "07F136B1-63E0-44F7-A7A8-9BD3A03A128C";
name = "Half {450}";
paths = (
{
closed = 1;
nodes = (
"154 -8 OFFCURVE",
"183 -3 OFFCURVE",
"195 5 CURVE",
"198 91 LINE",
"189 87 OFFCURVE",
"180 84 OFFCURVE",
"170 84 CURVE SMOOTH",
"142 84 OFFCURVE",
"137 105 OFFCURVE",
"142 130 CURVE SMOOTH",
"267 752 LINE",
"163 752 LINE",
"40 140 LINE SMOOTH",
"22 49 OFFCURVE",
"64 -8 OFFCURVE",
"132 -8 CURVE SMOOTH"
);
}
);
width = 273;
}
);
leftKerningGroup = LAT_L_LC;
leftMetricsKey = h;
rightKerningGroup = LAT_L_LC;
unicode = 006C;
},
{
color = 4;
glyphname = l.ss01;
lastChange = "2020-06-14 07:13:58 +0000";
layers = (
{
anchors = (
{
name = bottom;
position = "{59, 0}";
},
{
name = center;
position = "{131, 358}";
},
{
name = dot;
position = "{240, 360}";
},
{
name = top;
position = "{217, 804}";
},
{
name = topright;
position = "{224, 752}";
}
);
layerId = "AB099EFE-E788-4EFC-8633-CF147CB782A6";
paths = (
{
closed = 1;
nodes = (
"74 0 LINE",
"224 752 LINE",
"193 752 LINE",
"43 0 LINE"
);
}
);
width = 219;
},
{
anchors = (
{
name = bottom;
position = "{105, 0}";
},
{
name = center;
position = "{184, 394}";
},
{
name = dot;
position = "{415, 400}";
},
{
name = top;
position = "{252, 752}";
},
{
name = topright;
position = "{342, 752}";
}
);
layerId = "2D8F7115-C311-411E-929D-56333CF7FFB2";
paths = (
{
closed = 1;
nodes = (
"192 0 LINE",
"342 752 LINE",
"167 752 LINE",
"17 0 LINE"
);
}
);
width = 315;
}
);
leftKerningGroup = LAT_H_UC;
rightKerningGroup = LAT_H_UC;
},
{
glyphname = m;
lastChange = "2020-06-16 09:41:09 +0000";
layers = (
{
anchors = (
{
name = bottom;
position = "{345, 0}";
},
{
name = leghookleft;
position = "{646, 0}";
},
{
name = top;
position = "{447, 512}";
}
);
layerId = "AB099EFE-E788-4EFC-8633-CF147CB782A6";
paths = (
{
closed = 1;
nodes = (
"702 24 LINE",
"677 39 OFFCURVE",
"671 66 OFFCURVE",
"679 104 CURVE SMOOTH",
"727 334 LINE SMOOTH",
"754 464 OFFCURVE",
"677 520 OFFCURVE",
"595 520 CURVE SMOOTH",
"510 520 OFFCURVE",
"458 458 OFFCURVE",
"429 406 CURVE",
"444 410 LINE",
"422 410 LINE",
"432 398 LINE",
"431 462 OFFCURVE",
"376 520 OFFCURVE",
"300 520 CURVE SMOOTH",
"224 520 OFFCURVE",
"166 470 OFFCURVE",
"138 404 CURVE",
"157 427 LINE",
"148 427 LINE",
"165 512 LINE",
"135 512 LINE",
"33 0 LINE",
"64 0 LINE",
"127 316 LINE SMOOTH",
"143 396 OFFCURVE",
"208 492 OFFCURVE",
"299 492 CURVE SMOOTH",
"355 492 OFFCURVE",
"421 452 OFFCURVE",
"399 334 CURVE SMOOTH",
"336 0 LINE",
"367 0 LINE",
"428 328 LINE SMOOTH",
"441 398 OFFCURVE",
"504 492 OFFCURVE",
"597 492 CURVE SMOOTH",
"650 492 OFFCURVE",
"721 460 OFFCURVE",
"694 328 CURVE SMOOTH",
"650 112 LINE SMOOTH",
"640 63 OFFCURVE",
"640 30 OFFCURVE",
"689 -7 CURVE"
);
}
);
width = 796;
},
{
anchors = (
{
name = bottom;
position = "{389, 0}";
},
{
name = leghookleft;
position = "{677, 0}";
},
{
name = top;
position = "{493, 528}";
}
);
layerId = "2D8F7115-C311-411E-929D-56333CF7FFB2";
paths = (
{
closed = 1;
nodes = (
"831 133 LINE",
"810 137 OFFCURVE",
"798 150 OFFCURVE",
"805 185 CURVE SMOOTH",
"833 322 LINE SMOOTH",
"860 453 OFFCURVE",
"788 536 OFFCURVE",
"674 536 CURVE SMOOTH",
"599 536 OFFCURVE",
"544 492 OFFCURVE",
"507 448 CURVE",
"528 456 LINE",
"495 456 LINE",
"515 437 LINE",
"509 496 OFFCURVE",
"469 536 OFFCURVE",
"405 536 CURVE SMOOTH",
"337 536 OFFCURVE",
"279 502 OFFCURVE",
"230 406 CURVE",
"286 462 LINE",
"262 462 LINE",
"277 528 LINE",
"113 528 LINE",
"7 0 LINE",
"182 0 LINE",
"240 286 LINE SMOOTH",
"250 337 OFFCURVE",
"273 394 OFFCURVE",
"324 394 CURVE SMOOTH",
"359 394 OFFCURVE",
"377 366 OFFCURVE",
"369 322 CURVE SMOOTH",
"308 0 LINE",
"483 0 LINE",
"537 286 LINE SMOOTH",
"545 326 OFFCURVE",
"560 394 OFFCURVE",
"614 394 CURVE SMOOTH",
"649 394 OFFCURVE",
"666 366 OFFCURVE",
"657 322 CURVE SMOOTH",
"623 153 LINE SMOOTH",
"606 68 OFFCURVE",
"638 5 OFFCURVE",
"771 -8 CURVE"
);
}
);
width = 885;
},
{
anchors = (
{
name = bottom;
position = "{362, 0}";
},
{
name = leghookleft;
position = "{657, 0}";
},
{
name = top;
position = "{468, 520}";
}
);
associatedMasterId = "AB099EFE-E788-4EFC-8633-CF147CB782A6";
background = {
components = (
{
name = n;
}
);
};
guideLines = (
{
angle = 60;
position = "{252, 446}";
},
{
angle = 60;
position = "{210, 350}";
}
);
layerId = "7C464084-DF0B-4897-9988-7D453C095C5A";
name = "Half {450}";
paths = (
{
closed = 1;
nodes = (
"753 82 LINE",
"720 86 OFFCURVE",
"720 99 OFFCURVE",
"730 147 CURVE SMOOTH",
"769 330 LINE SMOOTH",
"795 450 OFFCURVE",
"734 528 OFFCURVE",
"625 528 CURVE SMOOTH",
"545 528 OFFCURVE",
"471 483 OFFCURVE",
"434 416 CURVE",
"498 452 LINE",
"433 452 LINE",
"471 412 LINE",
"454 481 OFFCURVE",
"408 528 OFFCURVE",
"340 528 CURVE SMOOTH",
"271 528 OFFCURVE",
"209 484 OFFCURVE",
"177 412 CURVE",
"224 460 LINE",
"204 460 LINE",
"216 520 LINE",
"116 520 LINE",
"12 0 LINE",
"111 0 LINE",
"167 268 LINE SMOOTH",
"188 369 OFFCURVE",
"238 436 OFFCURVE",
"308 436 CURVE SMOOTH",
"361 436 OFFCURVE",
"388 397 OFFCURVE",
"374 321 CURVE SMOOTH",
"313 0 LINE",
"415 0 LINE",
"469 278 LINE SMOOTH",
"490 384 OFFCURVE",
"536 436 OFFCURVE",
"600 436 CURVE SMOOTH",
"656 436 OFFCURVE",
"678 397 OFFCURVE",
"663 321 CURVE SMOOTH",
"626 137 LINE SMOOTH",
"614 77 OFFCURVE",
"616 18 OFFCURVE",
"718 -8 CURVE"
);
}
);
width = 828;
}
);
leftKerningGroup = LAT_N_LC;
leftMetricsKey = n;
rightKerningGroup = LAT_N_LC;
rightMetricsKey = n;
unicode = 006D;
},
{
glyphname = n;
lastChange = "2020-06-16 12:28:56 +0000";
layers = (
{
anchors = (
{
name = bottom;
position = "{220, 0}";
},
{
name = leghookleft;
position = "{50, 0}";
},
{
name = leghookretroflex;
position = "{375, 0}";
},
{
name = top;
position = "{325, 512}";
}
);
layerId = "AB099EFE-E788-4EFC-8633-CF147CB782A6";
paths = (
{
closed = 1;
nodes = (
"430 24 LINE",
"405 39 OFFCURVE",
"397 65 OFFCURVE",
"405 104 CURVE SMOOTH",
"448 309 LINE SMOOTH",
"475 439 OFFCURVE",
"422 520 OFFCURVE",
"313 520 CURVE SMOOTH",
"228 520 OFFCURVE",
"173 470 OFFCURVE",
"135 404 CURVE",
"163 428 LINE",
"150 428 LINE",
"167 512 LINE",
"135 512 LINE",
"33 0 LINE",
"63 0 LINE",
"129 324 LINE SMOOTH",
"147 414 OFFCURVE",
"221 492 OFFCURVE",
"313 492 CURVE SMOOTH",
"403 492 OFFCURVE",
"440 418 OFFCURVE",
"417 308 CURVE SMOOTH",
"376 112 LINE SMOOTH",
"364 55 OFFCURVE",
"374 24 OFFCURVE",
"417 -7 CURVE"
);
}
);
width = 524;
},
{
anchors = (
{
name = bottom;
position = "{244, 0}";
},
{
name = leghookleft;
position = "{94, 0}";
},
{
name = leghookretroflex;
position = "{401, 0}";
},
{
name = top;
position = "{368, 528}";
}
);
layerId = "2D8F7115-C311-411E-929D-56333CF7FFB2";
paths = (
{
closed = 1;
nodes = (
"551 133 LINE",
"531 137 OFFCURVE",
"519 149 OFFCURVE",
"526 185 CURVE SMOOTH",
"558 343 LINE SMOOTH",
"582 460 OFFCURVE",
"518 536 OFFCURVE",
"420 536 CURVE SMOOTH",
"344 536 OFFCURVE",
"277 496 OFFCURVE",
"243 406 CURVE",
"287 456 LINE",
"266 456 LINE",
"280 528 LINE",
"113 528 LINE",
"8 0 LINE",
"183 0 LINE",
"239 280 LINE SMOOTH",
"254 356 OFFCURVE",
"282 394 OFFCURVE",
"327 394 CURVE SMOOTH",
"358 394 OFFCURVE",
"390 375 OFFCURVE",
"378 318 CURVE SMOOTH",
"344 153 LINE SMOOTH",
"321 41 OFFCURVE",
"392 -3 OFFCURVE",
"492 -8 CURVE"
);
}
);
width = 605;
},
{
anchors = (
{
name = bottom;
position = "{218, 0}";
},
{
name = leghookleft;
position = "{60, 0}";
},
{
name = leghookretroflex;
position = "{371, 0}";
},
{
name = top;
position = "{337, 520}";
}
);
associatedMasterId = "AB099EFE-E788-4EFC-8633-CF147CB782A6";
layerId = "B3BA6D2D-8889-4E23-852D-A1E06A84ADF3";
name = "Half {450}";
paths = (
{
closed = 1;
nodes = (
"469 82 LINE",
"436 86 OFFCURVE",
"436 99 OFFCURVE",
"446 147 CURVE SMOOTH",
"485 330 LINE SMOOTH",
"504 418 OFFCURVE",
"473 528 OFFCURVE",
"341 528 CURVE SMOOTH",
"270 528 OFFCURVE",
"212 482 OFFCURVE",
"173 414 CURVE",
"220 460 LINE",
"204 460 LINE",
"216 520 LINE",
"116 520 LINE",
"12 0 LINE",
"115 0 LINE",
"171 268 LINE SMOOTH",
"193 374 OFFCURVE",
"248 436 OFFCURVE",
"311 436 CURVE SMOOTH",
"373 436 OFFCURVE",
"394 391 OFFCURVE",
"377 312 CURVE SMOOTH",
"340 137 LINE SMOOTH",
"326 71 OFFCURVE",
"339 15 OFFCURVE",
"434 -8 CURVE"
);
}
);
width = 544;
}
);
leftKerningGroup = LAT_N_LC;
rightKerningGroup = LAT_N_LC;
unicode = 006E;
},
{
glyphname = o;
lastChange = "2020-06-16 07:19:30 +0000";
layers = (
{
anchors = (
{
name = bottom;
position = "{242, 0}";
},
{
name = center;
position = "{284, 256}";
},
{
name = horn;
position = "{435, 480}";
},
{
name = ogonek;
position = "{298, 0}";
},
{
name = top;
position = "{326, 512}";
},
{
name = topright;
position = "{585, 512}";
}
);
background = {
paths = (
{
closed = 1;
nodes = (
"394 -8 OFFCURVE",
"498 112 OFFCURVE",
"524 256 CURVE SMOOTH",
"553 420 OFFCURVE",
"467 520 OFFCURVE",
"335 520 CURVE SMOOTH",
"185 520 OFFCURVE",
"80 394 OFFCURVE",
"56 256 CURVE SMOOTH",
"29 99 OFFCURVE",
"115 -8 OFFCURVE",
"251 -8 CURVE SMOOTH"
);
},
{
closed = 1;
nodes = (
"130 20 OFFCURVE",
"61 116 OFFCURVE",
"86 253 CURVE SMOOTH",
"110 386 OFFCURVE",
"209 492 OFFCURVE",
"336 492 CURVE SMOOTH",
"455 492 OFFCURVE",
"518 398 OFFCURVE",
"494 262 CURVE SMOOTH",
"472 134 OFFCURVE",
"382 20 OFFCURVE",
"251 20 CURVE SMOOTH"
);
}
);
};
layerId = "AB099EFE-E788-4EFC-8633-CF147CB782A6";
paths = (
{
closed = 1;
nodes = (
"373 -8 OFFCURVE",
"475 90 OFFCURVE",
"503 231 CURVE SMOOTH",
"534 386 OFFCURVE",
"464 520 OFFCURVE",
"314 520 CURVE SMOOTH",
"190 520 OFFCURVE",
"89 424 OFFCURVE",
"61 283 CURVE SMOOTH",
"30 128 OFFCURVE",
"102 -8 OFFCURVE",
"251 -8 CURVE SMOOTH"
);
},
{
closed = 1;
nodes = (
"123 20 OFFCURVE",
"63 137 OFFCURVE",
"91 278 CURVE SMOOTH",
"116 404 OFFCURVE",
"204 492 OFFCURVE",
"314 492 CURVE SMOOTH",
"440 492 OFFCURVE",
"502 376 OFFCURVE",
"473 235 CURVE SMOOTH",
"449 116 OFFCURVE",
"364 20 OFFCURVE",
"252 20 CURVE SMOOTH"
);
}
);
width = 564;
},
{
anchors = (
{
name = bottom;
position = "{238, 0}";
},
{
name = center;
position = "{289, 264}";
},
{
name = horn;
position = "{475, 483}";
},
{
name = ogonek;
position = "{302, 0}";
},
{
name = top;
position = "{342, 528}";
},
{
name = topright;
position = "{598, 528}";
}
);
layerId = "2D8F7115-C311-411E-929D-56333CF7FFB2";
paths = (
{
closed = 1;
nodes = (
"397 -8 OFFCURVE",
"516 102 OFFCURVE",
"544 244 CURVE SMOOTH",
"576 404 OFFCURVE",
"475 536 OFFCURVE",
"317 536 CURVE SMOOTH",
"178 536 OFFCURVE",
"64 426 OFFCURVE",
"36 286 CURVE SMOOTH",
"4 126 OFFCURVE",
"98 -8 OFFCURVE",
"256 -8 CURVE SMOOTH"
);
},
{
closed = 1;
nodes = (
"208 136 OFFCURVE",
"186 186 OFFCURVE",
"197 257 CURVE SMOOTH",
"209 335 OFFCURVE",
"251 390 OFFCURVE",
"311 390 CURVE SMOOTH",
"367 390 OFFCURVE",
"391 342 OFFCURVE",
"383 275 CURVE SMOOTH",
"375 208 OFFCURVE",
"338 136 OFFCURVE",
"267 136 CURVE SMOOTH"
);
}
);
width = 580;
},
{
anchors = (
{
name = bottom;
position = "{238, 0}";
},
{
name = center;
position = "{280, 258}";
},
{
name = horn;
position = "{442, 489}";
},
{
name = ogonek;
position = "{297, 0}";
},
{
name = top;
position = "{324, 520}";
},
{
name = topright;
position = "{583, 520}";
}
);
associatedMasterId = "AB099EFE-E788-4EFC-8633-CF147CB782A6";
layerId = "51EC8CF4-9C29-420F-ACA7-DB790A9AB824";
name = "Half {450}";
paths = (
{
closed = 1;
nodes = (
"383 -8 OFFCURVE",
"485 89 OFFCURVE",
"514 232 CURVE SMOOTH",
"547 395 OFFCURVE",
"472 528 OFFCURVE",
"316 528 CURVE SMOOTH",
"178 528 OFFCURVE",
"76 424 OFFCURVE",
"49 286 CURVE SMOOTH",
"17 125 OFFCURVE",
"100 -8 OFFCURVE",
"253 -8 CURVE SMOOTH"
);
},
{
closed = 1;
nodes = (
"164 84 OFFCURVE",
"130 168 OFFCURVE",
"150 270 CURVE SMOOTH",
"171 373 OFFCURVE",
"233 436 OFFCURVE",
"311 436 CURVE SMOOTH",
"398 436 OFFCURVE",
"434 358 OFFCURVE",
"415 259 CURVE SMOOTH",
"397 166 OFFCURVE",
"339 84 OFFCURVE",
"252 84 CURVE SMOOTH"
);
}
);
width = 564;
}
);
leftKerningGroup = LAT_O_LC;
rightKerningGroup = LAT_O_LC;
unicode = 006F;
},
{
color = 4;
glyphname = o.ss01;
lastChange = "2020-06-14 07:13:58 +0000";
layers = (
{
anchors = (
{
name = bottom;
position = "{250, 0}";
},
{
name = center;
position = "{301, 256}";
},
{
name = horn;
position = "{467, 494}";
},
{
name = ogonek;
position = "{303, 12}";
},
{
name = top;
position = "{352, 512}";
},
{
name = topright;
position = "{643, 512}";
}
);
layerId = "AB099EFE-E788-4EFC-8633-CF147CB782A6";
paths = (
{
closed = 1;
nodes = (
"390 -8 OFFCURVE",
"525 108 OFFCURVE",
"555 255 CURVE SMOOTH",
"585 402 OFFCURVE",
"495 520 OFFCURVE",
"352 520 CURVE SMOOTH",
"207 520 OFFCURVE",
"77 403 OFFCURVE",
"49 261 CURVE SMOOTH",
"19 109 OFFCURVE",
"108 -8 OFFCURVE",
"250 -8 CURVE SMOOTH"
);
},
{
closed = 1;
nodes = (
"124 20 OFFCURVE",
"51 131 OFFCURVE",
"77 257 CURVE SMOOTH",
"104 389 OFFCURVE",
"227 492 OFFCURVE",
"351 492 CURVE SMOOTH",
"476 492 OFFCURVE",
"551 386 OFFCURVE",
"527 262 CURVE SMOOTH",
"499 120 OFFCURVE",
"374 20 OFFCURVE",
"251 20 CURVE SMOOTH"
);
}
);
width = 603;
},
{
anchors = (
{
name = bottom;
position = "{243, 0}";
},
{
name = center;
position = "{295, 264}";
},
{
name = horn;
position = "{491, 496}";
},
{
name = ogonek;
position = "{305, 14}";
},
{
name = top;
position = "{352, 528}";
},
{
name = topright;
position = "{635, 528}";
}
);
layerId = "2D8F7115-C311-411E-929D-56333CF7FFB2";
paths = (
{
closed = 1;
nodes = (
"396 -8 OFFCURVE",
"536 104 OFFCURVE",
"564 248 CURVE SMOOTH",
"595 403 OFFCURVE",
"502 536 OFFCURVE",
"344 536 CURVE SMOOTH",
"197 536 OFFCURVE",
"59 424 OFFCURVE",
"31 281 CURVE SMOOTH",
"-1 120 OFFCURVE",
"95 -8 OFFCURVE",
"251 -8 CURVE SMOOTH"
);
},
{
closed = 1;
nodes = (
"208 140 OFFCURVE",
"175 185 OFFCURVE",
"188 253 CURVE SMOOTH",
"201 322 OFFCURVE",
"265 388 OFFCURVE",
"330 388 CURVE SMOOTH",
"388 388 OFFCURVE",
"419 342 OFFCURVE",
"407 281 CURVE SMOOTH",
"391 203 OFFCURVE",
"329 140 OFFCURVE",
"265 140 CURVE SMOOTH"
);
}
);
width = 595;
},
{
anchors = (
{
name = bottom;
position = "{255, 0}";
},
{
name = center;
position = "{308, 260}";
},
{
name = horn;
position = "{492, 496}";
},
{
name = ogonek;
position = "{315, 14}";
},
{
name = top;
position = "{361, 520}";
},
{
name = topright;
position = "{661, 520}";
}
);
associatedMasterId = "AB099EFE-E788-4EFC-8633-CF147CB782A6";
layerId = "51EC8CF4-9C29-420F-ACA7-DB790A9AB824";
name = "Half {450}";
paths = (
{
closed = 1;
nodes = (
"405 -8 OFFCURVE",
"550 110 OFFCURVE",
"580 259 CURVE SMOOTH",
"610 408 OFFCURVE",
"511 528 OFFCURVE",
"359 528 CURVE SMOOTH",
"215 528 OFFCURVE",
"69 420 OFFCURVE",
"37 262 CURVE SMOOTH",
"8 118 OFFCURVE",
"100 -8 OFFCURVE",
"257 -8 CURVE SMOOTH"
);
},
{
closed = 1;
nodes = (
"175 84 OFFCURVE",
"121 162 OFFCURVE",
"140 259 CURVE SMOOTH",
"161 362 OFFCURVE",
"254 436 OFFCURVE",
"345 436 CURVE SMOOTH",
"443 436 OFFCURVE",
"497 357 OFFCURVE",
"478 267 CURVE SMOOTH",
"457 166 OFFCURVE",
"365 84 OFFCURVE",
"271 84 CURVE SMOOTH"
);
}
);
width = 616;
}
);
leftKerningGroup = LAT_O_LC;
rightKerningGroup = LAT_O_LC;
},
{
glyphname = oe;
lastChange = "2020-06-16 12:08:52 +0000";
layers = (
{
anchors = (
{
name = top;
position = "{572, 550}";
}
);
background = {
components = (
{
name = o;
transform = "{0.92, 0, 0, 1, 8, 0}";
},
{
name = e;
transform = "{0.94033, 0, 0, 1, 432, 0}";
}
);
};
layerId = "AB099EFE-E788-4EFC-8633-CF147CB782A6";
paths = (
{
closed = 1;
nodes = (
"361 -8 OFFCURVE",
"470 104 OFFCURVE",
"500 257 CURVE SMOOTH",
"530 406 OFFCURVE",
"461 522 OFFCURVE",
"333 522 CURVE SMOOTH",
"205 522 OFFCURVE",
"86 410 OFFCURVE",
"56 258 CURVE SMOOTH",
"26 108 OFFCURVE",
"102 -8 OFFCURVE",
"231 -8 CURVE SMOOTH"
);
},
{
closed = 1;
nodes = (
"123 20 OFFCURVE",
"58 118 OFFCURVE",
"86 255 CURVE SMOOTH",
"114 392 OFFCURVE",
"223 494 OFFCURVE",
"332 494 CURVE SMOOTH",
"440 494 OFFCURVE",
"498 394 OFFCURVE",
"470 257 CURVE SMOOTH",
"444 127 OFFCURVE",
"344 20 OFFCURVE",
"230 20 CURVE SMOOTH"
);
},
{
closed = 1;
nodes = (
"694 -8 OFFCURVE",
"756 14 OFFCURVE",
"809 58 CURVE",
"802 92 LINE",
"761 52 OFFCURVE",
"695 20 OFFCURVE",
"634 20 CURVE SMOOTH",
"525 20 OFFCURVE",
"472 120 OFFCURVE",
"502 258 CURVE SMOOTH",
"531 389 OFFCURVE",
"622 492 OFFCURVE",
"730 492 CURVE SMOOTH",
"826 492 OFFCURVE",
"878 404 OFFCURVE",
"850 276 CURVE",
"498 274 LINE",
"492 246 LINE",
"874 244 LINE",
"882 273 OFFCURVE",
"880 264 OFFCURVE",
"882 275 CURVE SMOOTH",
"909 418 OFFCURVE",
"850 520 OFFCURVE",
"729 520 CURVE SMOOTH",
"610 520 OFFCURVE",
"504 416 OFFCURVE",
"472 256 CURVE SMOOTH",
"442 104 OFFCURVE",
"505 -8 OFFCURVE",
"637 -8 CURVE SMOOTH"
);
}
);
width = 933;
},
{
anchors = (
{
name = top;
position = "{528, 572}";
}
);
background = {
components = (
{
name = o;
transform = "{0.92, 0, 0, 1, 4, 0}";
},
{
name = e.archive;
transform = "{0.94033, 0, 0, 1, 368, 0}";
}
);
};
layerId = "2D8F7115-C311-411E-929D-56333CF7FFB2";
paths = (
{
closed = 1;
nodes = (
"386 -8 OFFCURVE",
"508 120 OFFCURVE",
"533 250 CURVE SMOOTH",
"560 390 OFFCURVE",
"486 536 OFFCURVE",
"333 536 CURVE SMOOTH",
"197 536 OFFCURVE",
"66 430 OFFCURVE",
"36 282 CURVE SMOOTH",
"2 114 OFFCURVE",
"100 -8 OFFCURVE",
"240 -8 CURVE SMOOTH"
);
},
{
closed = 1;
nodes = (
"199 134 OFFCURVE",
"175 181 OFFCURVE",
"189 251 CURVE SMOOTH",
"205 329 OFFCURVE",
"259 392 OFFCURVE",
"327 392 CURVE SMOOTH",
"381 392 OFFCURVE",
"410 350 OFFCURVE",
"396 281 CURVE SMOOTH",
"378 194 OFFCURVE",
"324 134 OFFCURVE",
"260 134 CURVE SMOOTH"
);
},
{
closed = 1;
nodes = (
"674 -8 OFFCURVE",
"740 5 OFFCURVE",
"777 28 CURVE",
"745 162 LINE",
"711 138 OFFCURVE",
"669 124 OFFCURVE",
"632 124 CURVE SMOOTH",
"571 124 OFFCURVE",
"504 142 OFFCURVE",
"527 262 CURVE SMOOTH",
"547 364 OFFCURVE",
"621 414 OFFCURVE",
"670 414 CURVE SMOOTH",
"723 414 OFFCURVE",
"749 378 OFFCURVE",
"737 320 CURVE",
"523 312 LINE",
"504 212 LINE",
"856 204 LINE",
"872 258 OFFCURVE",
"871 258 OFFCURVE",
"872 264 CURVE SMOOTH",
"913 462 OFFCURVE",
"799 536 OFFCURVE",
"693 536 CURVE SMOOTH",
"563 536 OFFCURVE",
"434 430 OFFCURVE",
"402 274 CURVE SMOOTH",
"371 119 OFFCURVE",
"449 -8 OFFCURVE",
"608 -8 CURVE SMOOTH"
);
}
);
width = 900;
},
{
anchors = (
{
name = top;
position = "{559, 558}";
}
);
associatedMasterId = "AB099EFE-E788-4EFC-8633-CF147CB782A6";
background = {
components = (
{
name = o;
transform = "{0.94, 0, 0, 1, 5, 0}";
},
{
name = e.archive;
transform = "{0.94033, 0, 0, 1, 397, 0}";
}
);
};
layerId = "AC77F9ED-8594-4DB0-8E42-55F87E192FDC";
name = "Half {450}";
paths = (
{
closed = 1;
nodes = (
"374 -8 OFFCURVE",
"491 111 OFFCURVE",
"521 257 CURVE SMOOTH",
"553 414 OFFCURVE",
"472 528 OFFCURVE",
"336 528 CURVE SMOOTH",
"206 528 OFFCURVE",
"77 420 OFFCURVE",
"45 266 CURVE SMOOTH",
"15 120 OFFCURVE",
"91 -8 OFFCURVE",
"234 -8 CURVE SMOOTH"
);
},
{
closed = 1;
nodes = (
"169 80 OFFCURVE",
"122 152 OFFCURVE",
"143 259 CURVE SMOOTH",
"164 364 OFFCURVE",
"236 440 OFFCURVE",
"328 440 CURVE SMOOTH",
"415 440 OFFCURVE",
"460 368 OFFCURVE",
"439 260 CURVE SMOOTH",
"418 156 OFFCURVE",
"346 80 OFFCURVE",
"254 80 CURVE SMOOTH"
);
},
{
closed = 1;
nodes = (
"704 -8 OFFCURVE",
"776 14 OFFCURVE",
"817 48 CURVE",
"793 136 LINE",
"751 102 OFFCURVE",
"703 82 OFFCURVE",
"648 82 CURVE SMOOTH",
"557 82 OFFCURVE",
"510 150 OFFCURVE",
"531 257 CURVE SMOOTH",
"552 368 OFFCURVE",
"626 440 OFFCURVE",
"710 440 CURVE SMOOTH",
"788 440 OFFCURVE",
"822 380 OFFCURVE",
"804 304 CURVE",
"520 302 LINE",
"504 222 LINE",
"878 220 LINE",
"882 231 OFFCURVE",
"888 259 OFFCURVE",
"893 284 CURVE SMOOTH",
"922 436 OFFCURVE",
"845 528 OFFCURVE",
"724 528 CURVE SMOOTH",
"591 528 OFFCURVE",
"473 418 OFFCURVE",
"443 268 CURVE SMOOTH",
"411 113 OFFCURVE",
"483 -8 OFFCURVE",
"636 -8 CURVE SMOOTH"
);
}
);
width = 930;
}
);
leftKerningGroup = LAT_O_LC;
leftMetricsKey = o;
rightKerningGroup = LAT_E_LC;
rightMetricsKey = e;
unicode = 0153;
},
{
glyphname = p;
lastChange = "2020-06-16 12:16:20 +0000";
layers = (
{
anchors = (
{
name = bottom;
position = "{10, -206}";
},
{
name = top;
position = "{333, 512}";
}
);
components = (
{
name = _part.bowl;
}
);
layerId = "AB099EFE-E788-4EFC-8633-CF147CB782A6";
paths = (
{
closed = 1;
nodes = (
"25 -206 LINE",
"88 118 LINE",
"98 118 LINE",
"94 162 LINE",
"140 394 LINE",
"153 416 LINE",
"148 416 LINE",
"168 512 LINE",
"137 512 LINE",
"-6 -206 LINE"
);
}
);
width = 568;
},
{
anchors = (
{
name = bottom;
position = "{55, -206}";
},
{
name = top;
position = "{379, 528}";
}
);
components = (
{
name = _part.bowl;
}
);
layerId = "2D8F7115-C311-411E-929D-56333CF7FFB2";
paths = (
{
closed = 1;
nodes = (
"144 -206 LINE",
"196 52 LINE",
"219 52 LINE",
"190 122 LINE",
"252 440 LINE",
"292 488 LINE",
"267 488 LINE",
"275 528 LINE",
"115 528 LINE",
"-31 -206 LINE"
);
}
);
width = 616;
},
{
anchors = (
{
name = bottom;
position = "{25, -206}";
},
{
name = top;
position = "{365, 520}";
}
);
associatedMasterId = "AB099EFE-E788-4EFC-8633-CF147CB782A6";
components = (
{
alignment = -1;
name = _part.bowl;
}
);
layerId = "AF74158E-455A-4DFD-A125-19750D17B1F5";
name = "Half {450}";
paths = (
{
closed = 1;
nodes = (
"75 -206 LINE",
"130 68 LINE",
"146 68 LINE",
"132 130 LINE",
"190 416 LINE",
"223 460 LINE",
"205 460 LINE",
"217 520 LINE",
"117 520 LINE",
"-29 -206 LINE"
);
}
);
width = 590;
}
);
leftKerningGroup = LAT_P_LC;
rightKerningGroup = LAT_O_LC;
rightMetricsKey = o;
unicode = 0070;
},
{
color = 4;
glyphname = p.ss01;
lastChange = "2020-06-16 12:08:53 +0000";
layers = (
{
anchors = (
{
name = bottom;
position = "{4, -206}";
},
{
name = top;
position = "{328, 512}";
}
);
components = (
{
name = _part.bowl.ss01;
transform = "{1, 0, 0, 1, 1, 0}";
}
);
layerId = "AB099EFE-E788-4EFC-8633-CF147CB782A6";
paths = (
{
closed = 1;
nodes = (
"22 -206 LINE",
"87 128 LINE",
"92 128 LINE",
"91 158 LINE",
"136 370 LINE",
"151 396 LINE",
"142 396 LINE",
"165 512 LINE",
"135 512 LINE",
"-8 -206 LINE"
);
}
);
width = 621;
},
{
anchors = (
{
name = bottom;
position = "{53, -206}";
},
{
name = top;
position = "{360, 528}";
}
);
components = (
{
name = _part.bowl.ss01;
transform = "{1, 0, 0, 1, 1, 0}";
}
);
layerId = "2D8F7115-C311-411E-929D-56333CF7FFB2";
paths = (
{
closed = 1;
nodes = (
"142 -206 LINE",
"192 52 LINE",
"199 52 LINE",
"200 134 LINE",
"258 418 LINE",
"289 472 LINE",
"267 472 LINE",
"277 528 LINE",
"113 528 LINE",
"-33 -206 LINE"
);
}
);
width = 661;
},
{
anchors = (
{
name = bottom;
position = "{21, -206}";
},
{
name = top;
position = "{343, 520}";
}
);
associatedMasterId = "AB099EFE-E788-4EFC-8633-CF147CB782A6";
components = (
{
alignment = -1;
name = _part.bowl.ss01;
}
);
layerId = "AF74158E-455A-4DFD-A125-19750D17B1F5";
name = "Half {450}";
paths = (
{
closed = 1;
nodes = (
"75 -206 LINE",
"130 79 LINE",
"137 79 LINE",
"132 117 LINE",
"189 394 LINE",
"217 456 LINE",
"201 456 LINE",
"214 520 LINE",
"116 520 LINE",
"-29 -206 LINE"
);
}
);
width = 640;
}
);
leftKerningGroup = LAT_P_LC;
rightKerningGroup = LAT_O_LC;
rightMetricsKey = o;
},
{
glyphname = thorn;
lastChange = "2020-06-16 12:18:08 +0000";
layers = (
{
anchors = (
{
name = bottom;
position = "{197, -24}";
},
{
name = top;
position = "{214, 804}";
}
);
components = (
{
name = _part.bowl;
}
);
layerId = "AB099EFE-E788-4EFC-8633-CF147CB782A6";
paths = (
{
closed = 1;
nodes = (
"23 -206 LINE",
"87 116 LINE",
"93 116 LINE",
"93 160 LINE",
"139 386 LINE",
"150 406 LINE",
"144 406 LINE",
"213 752 LINE",
"183 752 LINE",
"-7 -206 LINE"
);
}
);
width = 568;
},
{
anchors = (
{
name = bottom;
position = "{229, -24}";
},
{
name = top;
position = "{257, 804}";
}
);
components = (
{
name = _part.bowl;
}
);
layerId = "2D8F7115-C311-411E-929D-56333CF7FFB2";
paths = (
{
closed = 1;
nodes = (
"142 -206 LINE",
"193 50 LINE",
"217 50 LINE",
"178 112 LINE",
"240 430 LINE",
"293 501 LINE",
"282 501 LINE",
"332 752 LINE",
"157 752 LINE",
"-33 -206 LINE"
);
}
);
width = 616;
},
{
anchors = (
{
name = bottom;
position = "{226, -24}";
},
{
name = top;
position = "{232, 804}";
}
);
associatedMasterId = "AB099EFE-E788-4EFC-8633-CF147CB782A6";
components = (
{
alignment = -1;
name = _part.bowl;
}
);
layerId = "1ACFF9C7-557E-40E4-81BB-2F99C6EE3349";
name = "Half {450}";
paths = (
{
closed = 1;
nodes = (
"75 -206 LINE",
"130 64 LINE",
"146 64 LINE",
"129 98 LINE",
"192 414 LINE",
"223 463 LINE",
"209 463 LINE",
"267 752 LINE",
"163 752 LINE",
"-29 -206 LINE"
);
}
);
width = 590;
}
);
leftKerningGroup = LAT_L_LC;
leftMetricsKey = h;
rightKerningGroup = LAT_O_LC;
rightMetricsKey = p;
unicode = 00FE;
},
{
glyphname = thorn.ss01;
lastChange = "2020-06-16 12:08:53 +0000";
layers = (
{
anchors = (
{
name = bottom;
position = "{255, 0}";
},
{
name = top;
position = "{199, 752}";
}
);
components = (
{
name = _part.bowl.ss01;
}
);
layerId = "AB099EFE-E788-4EFC-8633-CF147CB782A6";
paths = (
{
closed = 1;
nodes = (
"23 -206 LINE",
"88 122 LINE",
"92 122 LINE",
"93 160 LINE",
"137 378 LINE",
"149 400 LINE",
"143 400 LINE",
"213 752 LINE",
"183 752 LINE",
"-7 -206 LINE"
);
}
);
width = 620;
},
{
anchors = (
{
name = bottom;
position = "{317, 0}";
},
{
name = top;
position = "{239, 752}";
}
);
components = (
{
name = _part.bowl.ss01;
}
);
layerId = "2D8F7115-C311-411E-929D-56333CF7FFB2";
paths = (
{
closed = 1;
nodes = (
"142 -206 LINE",
"194 58 LINE",
"215 58 LINE",
"192 104 LINE",
"256 410 LINE",
"291 478 LINE",
"277 478 LINE",
"331 752 LINE",
"157 752 LINE",
"-33 -206 LINE"
);
}
);
width = 660;
},
{
anchors = (
{
name = bottom;
position = "{296, 0}";
},
{
name = top;
position = "{211, 752}";
}
);
associatedMasterId = "AB099EFE-E788-4EFC-8633-CF147CB782A6";
components = (
{
alignment = -1;
name = _part.bowl.ss01;
}
);
layerId = "1ACFF9C7-557E-40E4-81BB-2F99C6EE3349";
name = "Half {450}";
paths = (
{
closed = 1;
nodes = (
"75 -206 LINE",
"131 77 LINE",
"144 77 LINE",
"135 132 LINE",
"193 413 LINE",
"216 458 LINE",
"206 458 LINE",
"264 752 LINE",
"162 752 LINE",
"-28 -206 LINE"
);
}
);
width = 640;
}
);
leftKerningGroup = LAT_L_LC;
leftMetricsKey = h;
rightKerningGroup = LAT_O_LC;
rightMetricsKey = p;
},
{
glyphname = q;
lastChange = "2020-06-16 12:06:06 +0000";
layers = (
{
anchors = (
{
name = bottom;
position = "{369, -206}";
},
{
name = top;
position = "{322, 512}";
}
);
background = {
paths = (
{
closed = 1;
nodes = (
"432 -184 LINE",
"409 -170 OFFCURVE",
"402 -137 OFFCURVE",
"411 -94 CURVE SMOOTH",
"533 512 LINE",
"502 512 LINE",
"479 396 LINE",
"471 396 LINE",
"476 362 LINE",
"430 134 LINE",
"413 100 LINE",
"420 100 LINE",
"382 -86 LINE SMOOTH",
"370 -144 OFFCURVE",
"378 -186 OFFCURVE",
"419 -215 CURVE"
);
}
);
};
components = (
{
name = "_part.bowl-reverse";
}
);
guideLines = (
{
angle = 67.5;
position = "{434, -184}";
}
);
layerId = "AB099EFE-E788-4EFC-8633-CF147CB782A6";
paths = (
{
closed = 1;
nodes = (
"441 -214 OFFCURVE",
"456 -208 OFFCURVE",
"464 -202 CURVE",
"467 -172 LINE",
"462 -175 OFFCURVE",
"445 -186 OFFCURVE",
"425 -186 CURVE SMOOTH",
"393 -186 OFFCURVE",
"401 -154 OFFCURVE",
"407 -126 CURVE SMOOTH",
"533 512 LINE",
"502 512 LINE",
"479 396 LINE",
"471 396 LINE",
"476 362 LINE",
"430 134 LINE",
"413 100 LINE",
"420 100 LINE",
"377 -118 LINE SMOOTH",
"367 -168 OFFCURVE",
"367 -214 OFFCURVE",
"421 -214 CURVE SMOOTH"
);
}
);
width = 564;
},
{
anchors = (
{
name = bottom;
position = "{388, -206}";
},
{
name = top;
position = "{339, 528}";
}
);
background = {
paths = (
{
closed = 1;
nodes = (
"520 -74 LINE",
"501 -64 OFFCURVE",
"496 -58 OFFCURVE",
"503 -22 CURVE SMOOTH",
"613 528 LINE",
"450 528 LINE",
"437 466 LINE",
"422 466 LINE",
"429 416 LINE",
"359 70 LINE",
"312 32 LINE",
"338 32 LINE",
"327 -22 LINE SMOOTH",
"311 -101 OFFCURVE",
"344 -166 OFFCURVE",
"460 -215 CURVE"
);
}
);
};
components = (
{
name = "_part.bowl-reverse";
}
);
guideLines = (
{
angle = 67.5;
position = "{521, -74}";
}
);
layerId = "2D8F7115-C311-411E-929D-56333CF7FFB2";
paths = (
{
closed = 1;
nodes = (
"477 -213 OFFCURVE",
"511 -207 OFFCURVE",
"535 -195 CURVE",
"551 -55 LINE",
"542 -62 OFFCURVE",
"531 -69 OFFCURVE",
"514 -69 CURVE SMOOTH",
"503 -69 OFFCURVE",
"496 -59 OFFCURVE",
"500 -39 CURVE SMOOTH",
"613 528 LINE",
"453 528 LINE",
"439 462 LINE",
"421 462 LINE",
"429 416 LINE",
"359 70 LINE",
"312 32 LINE",
"338 32 LINE",
"322 -53 LINE SMOOTH",
"307 -133 OFFCURVE",
"339 -213 OFFCURVE",
"448 -213 CURVE SMOOTH"
);
}
);
width = 608;
},
{
anchors = (
{
name = bottom;
position = "{398, -206}";
},
{
name = top;
position = "{326, 520}";
}
);
associatedMasterId = "AB099EFE-E788-4EFC-8633-CF147CB782A6";
background = {
paths = (
{
closed = 1;
nodes = (
"488 -124 LINE",
"451 -110 OFFCURVE",
"459 -78 OFFCURVE",
"472 -13 CURVE SMOOTH",
"578 520 LINE",
"475 520 LINE",
"461 448 LINE",
"438 448 LINE",
"457 402 LINE",
"396 94 LINE",
"365 48 LINE",
"380 48 LINE",
"362 -43 LINE SMOOTH",
"350 -102 OFFCURVE",
"359 -179 OFFCURVE",
"451 -214 CURVE"
);
}
);
};
components = (
{
name = "_part.bowl-reverse";
}
);
guideLines = (
{
angle = 67.5;
position = "{488, -124}";
}
);
layerId = "71FC3BAB-2654-4618-A306-03265AF02326";
name = "Half {450}";
paths = (
{
closed = 1;
nodes = (
"471 -214 OFFCURVE",
"500 -209 OFFCURVE",
"512 -201 CURVE",
"515 -115 LINE",
"506 -119 OFFCURVE",
"497 -122 OFFCURVE",
"487 -122 CURVE SMOOTH",
"459 -122 OFFCURVE",
"454 -101 OFFCURVE",
"459 -76 CURVE SMOOTH",
"578 520 LINE",
"475 520 LINE",
"461 448 LINE",
"438 448 LINE",
"457 402 LINE",
"396 94 LINE",
"365 48 LINE",
"380 48 LINE",
"357 -66 LINE SMOOTH",
"339 -157 OFFCURVE",
"381 -214 OFFCURVE",
"449 -214 CURVE SMOOTH"
);
}
);
width = 618;
}
);
leftKerningGroup = LAT_O_LC;
leftMetricsKey = o;
rightKerningGroup = LAT_Q_LC;
unicode = 0071;
},
{
color = 4;
glyphname = q.ss01;
lastChange = "2020-06-14 07:31:58 +0000";
layers = (
{
anchors = (
{
name = bottom;
position = "{433, -206}";
},
{
name = top;
position = "{359, 512}";
}
);
components = (
{
name = "_part.bowl-reverse.ss01";
}
);
layerId = "AB099EFE-E788-4EFC-8633-CF147CB782A6";
paths = (
{
closed = 1;
nodes = (
"448 -206 LINE",
"591 512 LINE",
"561 512 LINE",
"537 390 LINE",
"527 390 LINE",
"535 372 LINE",
"489 140 LINE",
"470 117 LINE",
"482 117 LINE",
"418 -206 LINE"
);
}
);
width = 620;
},
{
anchors = (
{
name = bottom;
position = "{422, -206}";
},
{
name = top;
position = "{362, 528}";
}
);
components = (
{
name = "_part.bowl-reverse.ss01";
}
);
layerId = "2D8F7115-C311-411E-929D-56333CF7FFB2";
paths = (
{
closed = 1;
nodes = (
"500 -206 LINE",
"646 528 LINE",
"480 528 LINE",
"466 458 LINE",
"452 458 LINE",
"460 420 LINE",
"388 88 LINE",
"380 60 LINE",
"398 60 LINE",
"345 -206 LINE"
);
}
);
width = 658;
},
{
anchors = (
{
name = bottom;
position = "{433, -206}";
},
{
name = top;
position = "{354, 520}";
}
);
associatedMasterId = "AB099EFE-E788-4EFC-8633-CF147CB782A6";
components = (
{
alignment = -1;
name = "_part.bowl-reverse.ss01";
}
);
layerId = "71FC3BAB-2654-4618-A306-03265AF02326";
name = "Half {450}";
paths = (
{
closed = 1;
nodes = (
"483 -206 LINE",
"627 520 LINE",
"523 520 LINE",
"504 424 LINE",
"491 424 LINE",
"500 396 LINE",
"441 114 LINE",
"412 60 LINE",
"432 60 LINE",
"379 -206 LINE"
);
}
);
width = 640;
}
);
leftKerningGroup = LAT_O_LC;
leftMetricsKey = o;
rightKerningGroup = LAT_Q_LC;
},
{
glyphname = r;
lastChange = "2020-06-16 09:08:05 +0000";
layers = (
{
anchors = (
{
name = bottom;
position = "{49, 0}";
},
{
name = top;
position = "{233, 512}";
}
);
guideLines = (
{
angle = 67.5;
position = "{-171, -200}";
}
);
layerId = "AB099EFE-E788-4EFC-8633-CF147CB782A6";
paths = (
{
closed = 1;
nodes = (
"64 0 LINE",
"125 312 LINE SMOOTH",
"145 416 OFFCURVE",
"240 492 OFFCURVE",
"302 492 CURVE SMOOTH",
"321 492 OFFCURVE",
"343 484 OFFCURVE",
"350 476 CURVE",
"364 502 LINE",
"352 511 OFFCURVE",
"331 520 OFFCURVE",
"303 520 CURVE SMOOTH",
"247 520 OFFCURVE",
"167 466 OFFCURVE",
"134 398 CURVE",
"154 420 LINE",
"148 420 LINE",
"165 512 LINE",
"135 512 LINE",
"33 0 LINE"
);
}
);
width = 331;
},
{
anchors = (
{
name = bottom;
position = "{95, 0}";
},
{
name = top;
position = "{275, 528}";
}
);
guideLines = (
{
angle = 67.5;
position = "{-51, -200}";
}
);
layerId = "2D8F7115-C311-411E-929D-56333CF7FFB2";
paths = (
{
closed = 1;
nodes = (
"183 0 LINE",
"234 256 LINE SMOOTH",
"249 330 OFFCURVE",
"306 368 OFFCURVE",
"350 368 CURVE SMOOTH",
"367 368 OFFCURVE",
"385 364 OFFCURVE",
"395 358 CURVE",
"490 512 LINE",
"480 524 OFFCURVE",
"451 536 OFFCURVE",
"414 536 CURVE SMOOTH",
"325 536 OFFCURVE",
"263 470 OFFCURVE",
"245 426 CURVE",
"280 466 LINE",
"268 466 LINE",
"281 528 LINE",
"113 528 LINE",
"7 0 LINE"
);
}
);
width = 437;
},
{
anchors = (
{
name = bottom;
position = "{64, 0}";
},
{
name = top;
position = "{254, 520}";
}
);
associatedMasterId = "AB099EFE-E788-4EFC-8633-CF147CB782A6";
guideLines = (
{
angle = 67.5;
position = "{-118, -200}";
}
);
layerId = "AE84A8BD-4857-43AC-97B6-848273A736C5";
name = "Half {450}";
paths = (
{
closed = 1;
nodes = (
"116 0 LINE",
"175 286 LINE SMOOTH",
"192 370 OFFCURVE",
"268 430 OFFCURVE",
"325 430 CURVE SMOOTH",
"346 430 OFFCURVE",
"372 422 OFFCURVE",
"378 416 CURVE",
"433 508 LINE",
"421 518 OFFCURVE",
"398 528 OFFCURVE",
"365 528 CURVE SMOOTH",
"286 528 OFFCURVE",
"211 482 OFFCURVE",
"187 424 CURVE",
"216 454 LINE",
"204 454 LINE",
"218 520 LINE",
"118 520 LINE",
"12 0 LINE"
);
}
);
width = 388;
}
);
leftKerningGroup = LAT_N_LC;
leftMetricsKey = n;
rightKerningGroup = LAT_R_LC;
unicode = 0072;
},
{
glyphname = s;
lastChange = "2020-06-16 07:32:41 +0000";
layers = (
{
anchors = (
{
name = bottom;
position = "{160, 0}";
},
{
name = cedilla;
position = "{163, 0}";
},
{
name = top;
position = "{262, 512}";
}
);
background = {
paths = (
{
closed = 1;
nodes = (
"250 -8 OFFCURVE",
"336 46 OFFCURVE",
"356 132 CURVE SMOOTH",
"379 234 OFFCURVE",
"289 262 OFFCURVE",
"232 282 CURVE SMOOTH",
"197 294 OFFCURVE",
"119 322 OFFCURVE",
"132 392 CURVE SMOOTH",
"144 448 OFFCURVE",
"198 492 OFFCURVE",
"268 492 CURVE SMOOTH",
"330 492 OFFCURVE",
"361 456 OFFCURVE",
"374 420 CURVE",
"404 432 LINE",
"394 474 OFFCURVE",
"352 520 OFFCURVE",
"276 520 CURVE SMOOTH",
"192 520 OFFCURVE",
"121 470 OFFCURVE",
"104 398 CURVE SMOOTH",
"84 310 OFFCURVE",
"169 270 OFFCURVE",
"222 254 CURVE SMOOTH",
"261 242 OFFCURVE",
"345 216 OFFCURVE",
"326 134 CURVE SMOOTH",
"310 64 OFFCURVE",
"234 20 OFFCURVE",
"172 20 CURVE SMOOTH",
"112 20 OFFCURVE",
"69 66 OFFCURVE",
"62 114 CURVE",
"30 102 LINE",
"38 46 OFFCURVE",
"86 -8 OFFCURVE",
"166 -8 CURVE SMOOTH"
);
}
);
};
guideLines = (
{
angle = 22.5;
position = "{136, 327}";
}
);
layerId = "AB099EFE-E788-4EFC-8633-CF147CB782A6";
paths = (
{
closed = 1;
nodes = (
"267 -8 OFFCURVE",
"328 52 OFFCURVE",
"342 126 CURVE SMOOTH",
"356 202 OFFCURVE",
"314 246 OFFCURVE",
"232 278 CURVE SMOOTH",
"170 302 OFFCURVE",
"113 326 OFFCURVE",
"125 398 CURVE SMOOTH",
"134 448 OFFCURVE",
"180 492 OFFCURVE",
"249 492 CURVE SMOOTH",
"307 492 OFFCURVE",
"340 457 OFFCURVE",
"353 419 CURVE",
"381 431 LINE",
"370 474 OFFCURVE",
"325 520 OFFCURVE",
"248 520 CURVE SMOOTH",
"172 520 OFFCURVE",
"111 476 OFFCURVE",
"96 407 CURVE SMOOTH",
"79 329 OFFCURVE",
"133 286 OFFCURVE",
"212 254 CURVE SMOOTH",
"253 238 OFFCURVE",
"330 211 OFFCURVE",
"312 126 CURVE SMOOTH",
"300 70 OFFCURVE",
"244 20 OFFCURVE",
"178 20 CURVE SMOOTH",
"120 20 OFFCURVE",
"68 68 OFFCURVE",
"60 116 CURVE",
"30 104 LINE",
"42 44 OFFCURVE",
"98 -8 OFFCURVE",
"179 -8 CURVE SMOOTH"
);
}
);
width = 429;
},
{
anchors = (
{
name = bottom;
position = "{156, 0}";
},
{
name = cedilla;
position = "{161, 0}";
},
{
name = top;
position = "{261, 522}";
}
);
associatedMasterId = "AB099EFE-E788-4EFC-8633-CF147CB782A6";
background = {
paths = (
{
closed = 1;
nodes = (
"261 -8 OFFCURVE",
"360 58 OFFCURVE",
"380 148 CURVE SMOOTH",
"403 248 OFFCURVE",
"307 284 OFFCURVE",
"262 300 CURVE SMOOTH",
"218 314 OFFCURVE",
"164 332 OFFCURVE",
"176 382 CURVE SMOOTH",
"184 418 OFFCURVE",
"223 442 OFFCURVE",
"262 442 CURVE SMOOTH",
"309 442 OFFCURVE",
"326 408 OFFCURVE",
"332 386 CURVE",
"428 422 LINE",
"415 476 OFFCURVE",
"371 528 OFFCURVE",
"280 528 CURVE SMOOTH",
"183 528 OFFCURVE",
"99 466 OFFCURVE",
"80 384 CURVE SMOOTH",
"60 294 OFFCURVE",
"123 254 OFFCURVE",
"186 232 CURVE SMOOTH",
"226 218 OFFCURVE",
"296 198 OFFCURVE",
"284 146 CURVE SMOOTH",
"275 106 OFFCURVE",
"229 80 OFFCURVE",
"186 80 CURVE SMOOTH",
"141 80 OFFCURVE",
"109 114 OFFCURVE",
"104 152 CURVE",
"4 114 LINE",
"14 50 OFFCURVE",
"73 -8 OFFCURVE",
"166 -8 CURVE SMOOTH"
);
}
);
};
guideLines = (
{
angle = 22.5;
position = "{130, 160}";
}
);
layerId = "71E4C0AB-FD56-4113-8C0E-7CB3582C377C";
name = "Half {450}";
paths = (
{
closed = 1;
nodes = (
"269 -8 OFFCURVE",
"349 48 OFFCURVE",
"363 141 CURVE SMOOTH",
"378 238 OFFCURVE",
"304 278 OFFCURVE",
"241 300 CURVE SMOOTH",
"208 312 OFFCURVE",
"160 331 OFFCURVE",
"168 382 CURVE SMOOTH",
"174 418 OFFCURVE",
"201 442 OFFCURVE",
"241 442 CURVE SMOOTH",
"283 442 OFFCURVE",
"305 410 OFFCURVE",
"315 388 CURVE",
"403 424 LINE",
"387 475 OFFCURVE",
"333 528 OFFCURVE",
"245 528 CURVE SMOOTH",
"157 528 OFFCURVE",
"93 477 OFFCURVE",
"76 401 CURVE SMOOTH",
"58 320 OFFCURVE",
"101 264 OFFCURVE",
"178 232 CURVE SMOOTH",
"215 217 OFFCURVE",
"277 200 OFFCURVE",
"268 147 CURVE SMOOTH",
"262 107 OFFCURVE",
"229 80 OFFCURVE",
"189 80 CURVE SMOOTH",
"148 80 OFFCURVE",
"108 112 OFFCURVE",
"97 151 CURVE",
"6 111 LINE",
"20 51 OFFCURVE",
"95 -8 OFFCURVE",
"183 -8 CURVE SMOOTH"
);
}
);
width = 421;
},
{
anchors = (
{
name = bottom;
position = "{181, 0}";
},
{
name = cedilla;
position = "{189, 0}";
},
{
name = top;
position = "{286, 532}";
}
);
background = {
paths = (
{
closed = 1;
nodes = (
"300 -8 OFFCURVE",
"408 62 OFFCURVE",
"430 162 CURVE SMOOTH",
"455 270 OFFCURVE",
"357 304 OFFCURVE",
"312 316 CURVE SMOOTH",
"276 326 OFFCURVE",
"217 338 OFFCURVE",
"224 370 CURVE SMOOTH",
"229 392 OFFCURVE",
"256 404 OFFCURVE",
"278 404 CURVE SMOOTH",
"310 404 OFFCURVE",
"327 384 OFFCURVE",
"336 362 CURVE",
"480 420 LINE",
"464 494 OFFCURVE",
"392 536 OFFCURVE",
"302 536 CURVE SMOOTH",
"194 536 OFFCURVE",
"95 472 OFFCURVE",
"72 372 CURVE SMOOTH",
"53 284 OFFCURVE",
"108 238 OFFCURVE",
"182 214 CURVE SMOOTH",
"225 200 OFFCURVE",
"285 190 OFFCURVE",
"278 158 CURVE SMOOTH",
"274 140 OFFCURVE",
"250 124 OFFCURVE",
"220 124 CURVE SMOOTH",
"174 124 OFFCURVE",
"154 160 OFFCURVE",
"144 186 CURVE",
"-4 126 LINE",
"15 38 OFFCURVE",
"96 -8 OFFCURVE",
"188 -8 CURVE SMOOTH"
);
}
);
};
guideLines = (
{
angle = 22.5;
position = "{144, 280}";
}
);
layerId = "2D8F7115-C311-411E-929D-56333CF7FFB2";
paths = (
{
closed = 1;
nodes = (
"307 -8 OFFCURVE",
"400 46 OFFCURVE",
"419 144 CURVE SMOOTH",
"440 254 OFFCURVE",
"344 298 OFFCURVE",
"292 314 CURVE SMOOTH",
"250 327 OFFCURVE",
"203 338 OFFCURVE",
"209 370 CURVE SMOOTH",
"213 389 OFFCURVE",
"232 404 OFFCURVE",
"260 404 CURVE SMOOTH",
"290 404 OFFCURVE",
"311 386 OFFCURVE",
"326 363 CURVE",
"462 419 LINE",
"437 486 OFFCURVE",
"366 536 OFFCURVE",
"268 536 CURVE SMOOTH",
"162 536 OFFCURVE",
"87 481 OFFCURVE",
"67 399 CURVE SMOOTH",
"47 320 OFFCURVE",
"95 248 OFFCURVE",
"183 216 CURVE SMOOTH",
"227 200 OFFCURVE",
"275 193 OFFCURVE",
"272 161 CURVE SMOOTH",
"270 140 OFFCURVE",
"247 124 OFFCURVE",
"219 124 CURVE SMOOTH",
"175 124 OFFCURVE",
"153 159 OFFCURVE",
"139 182 CURVE",
"-2 125 LINE",
"24 48 OFFCURVE",
"99 -8 OFFCURVE",
"203 -8 CURVE SMOOTH"
);
}
);
width = 464;
},
{
anchors = (
{
name = bottom;
position = "{163, 0}";
},
{
name = cedilla;
position = "{170, 0}";
},
{
name = top;
position = "{268, 526}";
}
);
associatedMasterId = "AB099EFE-E788-4EFC-8633-CF147CB782A6";
guideLines = (
{
angle = 22.5;
position = "{130, 160}";
}
);
layerId = "164736BD-8162-410A-99BE-7EAAFFE43B2D";
name = "{600}";
paths = (
{
closed = 1;
nodes = (
"293 -8 OFFCURVE",
"361 44 OFFCURVE",
"381 130 CURVE SMOOTH",
"406 238 OFFCURVE",
"322 283 OFFCURVE",
"260 306 CURVE SMOOTH",
"231 317 OFFCURVE",
"176 332 OFFCURVE",
"184 374 CURVE SMOOTH",
"189 402 OFFCURVE",
"210 423 OFFCURVE",
"245 423 CURVE SMOOTH",
"282 423 OFFCURVE",
"305 399 OFFCURVE",
"317 377 CURVE",
"423 422 LINE",
"405 480 OFFCURVE",
"345 531 OFFCURVE",
"253 531 CURVE SMOOTH",
"161 531 OFFCURVE",
"95 482 OFFCURVE",
"75 404 CURVE SMOOTH",
"54 319 OFFCURVE",
"99 258 OFFCURVE",
"178 225 CURVE SMOOTH",
"212 211 OFFCURVE",
"268 197 OFFCURVE",
"266 154 CURVE SMOOTH",
"265 125 OFFCURVE",
"236 101 OFFCURVE",
"198 101 CURVE SMOOTH",
"157 101 OFFCURVE",
"122 131 OFFCURVE",
"112 164 CURVE",
"3 117 LINE",
"20 49 OFFCURVE",
"101 -8 OFFCURVE",
"199 -8 CURVE SMOOTH"
);
}
);
width = 437;
}
);
leftKerningGroup = LAT_S_LC;
rightKerningGroup = LAT_S_LC;
unicode = 0073;
userData = {
com.typemytype.robofont.layerData = {
background = {
anchors = (
);
components = (
);
contours = (
{
points = (
{
segmentType = curve;
smooth = 1;
x = 213;
y = -12;
},
{
smooth = 0;
x = 318;
y = -12;
},
{
smooth = 0;
x = 376;
y = 50;
},
{
segmentType = curve;
smooth = 1;
x = 376;
y = 120;
},
{
smooth = 0;
x = 376;
y = 214;
},
{
smooth = 0;
x = 288;
y = 237;
},
{
segmentType = curve;
smooth = 1;
x = 208;
y = 266;
},
{
smooth = 0;
x = 147;
y = 288;
},
{
smooth = 0;
x = 85;
y = 310;
},
{
segmentType = curve;
smooth = 1;
x = 85;
y = 368;
},
{
smooth = 0;
x = 85;
y = 415;
},
{
smooth = 0;
x = 124;
y = 462;
},
{
segmentType = curve;
smooth = 1;
x = 208;
y = 462;
},
{
smooth = 0;
x = 253;
y = 462;
},
{
smooth = 0;
x = 284;
y = 448;
},
{
segmentType = curve;
smooth = 1;
x = 314;
y = 429;
},
{
smooth = 0;
x = 325;
y = 422;
},
{
smooth = 0;
x = 336;
y = 423;
},
{
segmentType = curve;
smooth = 1;
x = 343;
y = 434;
},
{
segmentType = line;
smooth = 1;
x = 346;
y = 439;
},
{
smooth = 0;
x = 347;
y = 441;
},
{
smooth = 0;
x = 347;
y = 443;
},
{
segmentType = curve;
smooth = 1;
x = 345;
y = 444;
},
{
smooth = 0;
x = 311;
y = 468;
},
{
smooth = 0;
x = 257;
y = 490;
},
{
segmentType = curve;
smooth = 1;
x = 211;
y = 490;
},
{
smooth = 0;
x = 108;
y = 490;
},
{
smooth = 0;
x = 54;
y = 432;
},
{
segmentType = curve;
smooth = 1;
x = 54;
y = 366;
},
{
smooth = 0;
x = 54;
y = 284;
},
{
smooth = 0;
x = 141;
y = 256;
},
{
segmentType = curve;
smooth = 1;
x = 218;
y = 230;
},
{
smooth = 0;
x = 277;
y = 210;
},
{
smooth = 0;
x = 344;
y = 182;
},
{
segmentType = curve;
smooth = 1;
x = 344;
y = 118;
},
{
smooth = 0;
x = 344;
y = 64;
},
{
smooth = 0;
x = 300;
y = 16;
},
{
segmentType = curve;
smooth = 1;
x = 215;
y = 16;
},
{
smooth = 0;
x = 148;
y = 16;
},
{
smooth = 0;
x = 105;
y = 37;
},
{
segmentType = curve;
smooth = 1;
x = 66;
y = 65;
},
{
smooth = 0;
x = 55;
y = 73;
},
{
smooth = 0;
x = 45;
y = 74;
},
{
segmentType = curve;
smooth = 1;
x = 37;
y = 63;
},
{
segmentType = line;
smooth = 1;
x = 33;
y = 57;
},
{
smooth = 0;
x = 32;
y = 55;
},
{
smooth = 0;
x = 32;
y = 53;
},
{
segmentType = curve;
smooth = 1;
x = 34;
y = 51;
},
{
smooth = 0;
x = 73;
y = 12;
},
{
smooth = 0;
x = 139;
y = -12;
}
);
}
);
lib = {
};
name = s;
unicodes = (
);
width = 439;
};
};
};
},
